<svg xmlns="http://www.w3.org/2000/svg" xmlns:xlink="http://www.w3.org/1999/xlink" width="72.116" height="18" viewBox="0 0 72.116 18"><defs><linearGradient id="a" x1="0.5" y1="0.018" x2="0.5" y2="1.493" gradientUnits="objectBoundingBox"><stop offset="0" stop-color="#666"/><stop offset="0.192" stop-color="#ccc"/><stop offset="0.408" stop-color="#b3b3b3"/><stop offset="0.803" stop-color="#f2f2f2"/><stop offset="1" stop-color="#b3b3b3"/></linearGradient><linearGradient id="b" x1="0.5" y1="-0.336" x2="0.5" y2="1.665" xlink:href="#a"/><linearGradient id="c" x1="0.5" y1="-0.346" x2="0.5" y2="1.7" xlink:href="#a"/><linearGradient id="d" x1="0.5" y1="-0.34" x2="0.5" y2="1.673" xlink:href="#a"/><linearGradient id="g" x1="0.5" y1="0.002" x2="0.5" y2="1.499" xlink:href="#a"/><linearGradient id="h" x1="0.5" y1="0.018" x2="0.5" y2="1.493" gradientUnits="objectBoundingBox"><stop offset="0" stop-color="#b3b3b3"/><stop offset="0.197" stop-color="#f2f2f2"/><stop offset="0.592" stop-color="#b3b3b3"/><stop offset="0.808" stop-color="#ccc"/><stop offset="1" stop-color="#666"/></linearGradient><linearGradient id="i" x1="0.5" y1="-0.336" x2="0.5" y2="1.665" xlink:href="#h"/><linearGradient id="j" x1="0.5" y1="-0.346" x2="0.5" y2="1.7" xlink:href="#h"/><linearGradient id="k" x1="0.5" y1="-0.34" x2="0.5" y2="1.673" xlink:href="#h"/><linearGradient id="n" x1="0.5" y1="0.002" x2="0.5" y2="1.499" xlink:href="#h"/><linearGradient id="o" x1="1.065" y1="0.142" x2="0.156" y2="1.049" gradientUnits="objectBoundingBox"><stop offset="0.006" stop-color="#85f0f4"/><stop offset="0.139" stop-color="#1fd1e5"/><stop offset="1" stop-color="#0066b3"/></linearGradient><linearGradient id="p" x1="1.065" y1="0.142" x2="0.159" y2="1.046" gradientUnits="objectBoundingBox"><stop offset="0.006" stop-color="#24e4eb"/><stop offset="0.139" stop-color="#1fd1e5"/><stop offset="0.655" stop-color="#0066b3"/><stop offset="1" stop-color="#00214d"/></linearGradient><linearGradient id="q" x1="0.97" y1="0.198" x2="-0.071" y2="1.038" xlink:href="#o"/><linearGradient id="r" x1="0.999" y1="0.148" x2="0.094" y2="0.98" xlink:href="#p"/><linearGradient id="s" x1="1.255" y1="-0.341" x2="0.031" y2="1.041" xlink:href="#o"/><linearGradient id="t" x1="1.657" y1="-1.094" x2="-0.299" y2="1.698" xlink:href="#p"/><linearGradient id="u" x1="0.897" y1="0.029" x2="-0.009" y2="0.903" xlink:href="#o"/><linearGradient id="v" x1="0.897" y1="0.029" x2="-0.009" y2="0.903" xlink:href="#p"/></defs><g transform="translate(0 0)"><g transform="translate(22.133 3.892)"><path d="M1368.176-91.271q-.456-.015-.8-.06a5.691,5.691,0,0,1-.7-.137,2.937,2.937,0,0,1-1.337-.8,3.3,3.3,0,0,1-.691-1.2,5.5,5.5,0,0,1-.258-1.45q-.038-.775-.038-1.549v-.076a17.863,17.863,0,0,1,.076-1.823,7.937,7.937,0,0,1,.2-1.17,2.491,2.491,0,0,1,.3-.721,3.7,3.7,0,0,1,.387-.494,2.8,2.8,0,0,1,.608-.486,3,3,0,0,1,.714-.3,5.071,5.071,0,0,1,.76-.152,6.2,6.2,0,0,1,.744-.046,6.9,6.9,0,0,1,1.587.212,2.62,2.62,0,0,1,1.3.775q.167.213.326.448a2.42,2.42,0,0,1,.281.615l-1.383.152a1.212,1.212,0,0,0-.365-.478,1.677,1.677,0,0,0-.509-.266,2.807,2.807,0,0,0-.593-.122q-.311-.03-.6-.045a6.216,6.216,0,0,0-1.033.129,1.638,1.638,0,0,0-.821.494,1.518,1.518,0,0,0-.19.243,1.822,1.822,0,0,0-.19.494,6.317,6.317,0,0,0-.151.942q-.061.6-.061,1.6v.076q0,1,.061,1.6a6.552,6.552,0,0,0,.151.95,1.684,1.684,0,0,0,.19.494,1.674,1.674,0,0,0,.19.235,1.782,1.782,0,0,0,.828.5,5.432,5.432,0,0,0,1.01.137q.319-.015.638-.061a3.269,3.269,0,0,0,.607-.144,1.6,1.6,0,0,0,.509-.281,1.085,1.085,0,0,0,.326-.471l1.383.182a2.786,2.786,0,0,1-.775,1.185,3.218,3.218,0,0,1-1.23.668A5.636,5.636,0,0,1,1368.176-91.271Z" transform="translate(-1364.348 101.737)" fill="url(#a)"/><path d="M1393.51-90.142a6.392,6.392,0,0,1-.175,1.549,3.358,3.358,0,0,1-.562,1.215,2.522,2.522,0,0,1-1.025.8,3.838,3.838,0,0,1-1.549.281,3.485,3.485,0,0,1-1.565-.311,2.617,2.617,0,0,1-.995-.843,3.36,3.36,0,0,1-.524-1.223,6.8,6.8,0,0,1-.152-1.466,7.434,7.434,0,0,1,.152-1.549,3.154,3.154,0,0,1,.532-1.23,2.559,2.559,0,0,1,.995-.8,3.674,3.674,0,0,1,1.557-.289,3.842,3.842,0,0,1,1.633.3,2.55,2.55,0,0,1,1.018.828,3.209,3.209,0,0,1,.517,1.23A7.58,7.58,0,0,1,1393.51-90.142Zm-3.311,2.506a2.045,2.045,0,0,0,.972-.2,1.58,1.58,0,0,0,.6-.551,2.136,2.136,0,0,0,.3-.8,5.727,5.727,0,0,0,.076-.951,5.25,5.25,0,0,0-.091-1.019,2.26,2.26,0,0,0-.311-.8,1.5,1.5,0,0,0-.592-.528,2.094,2.094,0,0,0-.95-.189,2.03,2.03,0,0,0-.987.2,1.434,1.434,0,0,0-.562.551,2.191,2.191,0,0,0-.258.8,7.186,7.186,0,0,0-.061.951,6.167,6.167,0,0,0,.076,1,2.238,2.238,0,0,0,.281.808,1.455,1.455,0,0,0,.569.536A1.977,1.977,0,0,0,1390.2-87.636Z" transform="translate(-1378.822 96.796)" fill="url(#b)"/><path d="M1414.584-86.424h-1.337V-90.48a4.129,4.129,0,0,0-.053-.721,3,3,0,0,0-.129-.5,1.165,1.165,0,0,0-.182-.334c-.071-.086-.137-.159-.2-.22a2.4,2.4,0,0,0-.5-.334,1.764,1.764,0,0,0-.82-.167,1.69,1.69,0,0,0-.79.167,2.387,2.387,0,0,0-.5.334q-.091.091-.2.213a1.334,1.334,0,0,0-.2.319,2.05,2.05,0,0,0-.144.494,4.361,4.361,0,0,0-.053.752v4.056h-1.337v-7.382h1.337v.866a1.3,1.3,0,0,1,.319-.418,2.38,2.38,0,0,1,.471-.327,2.557,2.557,0,0,1,.547-.212,2.145,2.145,0,0,1,.547-.076,3.887,3.887,0,0,1,1.443.243,2.564,2.564,0,0,1,1,.7,2.909,2.909,0,0,1,.585,1.1,5.143,5.143,0,0,1,.19,1.451Z" transform="translate(-1392.377 96.769)" fill="url(#c)"/><path d="M1432.2-93.974a3.465,3.465,0,0,1,2.066.54,2.543,2.543,0,0,1,.987,1.374l-1.428.137a1.17,1.17,0,0,0-.7-.593,2.856,2.856,0,0,0-.927-.167,2.044,2.044,0,0,0-1,.213,1.524,1.524,0,0,0-.585.562,2.241,2.241,0,0,0-.274.813,6.649,6.649,0,0,0-.068.965,5.7,5.7,0,0,0,.083,1.01,2.19,2.19,0,0,0,.3.8,1.452,1.452,0,0,0,.593.524,2.13,2.13,0,0,0,.957.19,3.073,3.073,0,0,0,.463-.038,2.163,2.163,0,0,0,.479-.129,1.632,1.632,0,0,0,.41-.236.93.93,0,0,0,.273-.342l1.428.137a2.509,2.509,0,0,1-.987,1.382,3.5,3.5,0,0,1-2.066.531,3.73,3.73,0,0,1-1.617-.3,2.508,2.508,0,0,1-.995-.828,3.465,3.465,0,0,1-.524-1.215,8.8,8.8,0,0,1-.205-1.481,7.138,7.138,0,0,1,.159-1.572,3.043,3.043,0,0,1,.547-1.207,2.575,2.575,0,0,1,1.033-.782A4.022,4.022,0,0,1,1432.2-93.974Z" transform="translate(-1405.636 96.769)" fill="url(#d)"/><path d="M1455.533-90.142a6.4,6.4,0,0,1-.175,1.549,3.358,3.358,0,0,1-.562,1.215,2.523,2.523,0,0,1-1.025.8,3.836,3.836,0,0,1-1.549.281,3.483,3.483,0,0,1-1.564-.311,2.614,2.614,0,0,1-.995-.843,3.358,3.358,0,0,1-.524-1.223,6.8,6.8,0,0,1-.152-1.466,7.426,7.426,0,0,1,.152-1.549,3.156,3.156,0,0,1,.532-1.23,2.561,2.561,0,0,1,.995-.8,3.674,3.674,0,0,1,1.557-.289,3.841,3.841,0,0,1,1.633.3,2.551,2.551,0,0,1,1.018.828,3.209,3.209,0,0,1,.517,1.23A7.553,7.553,0,0,1,1455.533-90.142Zm-3.312,2.506a2.044,2.044,0,0,0,.972-.2,1.582,1.582,0,0,0,.6-.551,2.14,2.14,0,0,0,.3-.8,5.727,5.727,0,0,0,.076-.951,5.25,5.25,0,0,0-.091-1.019,2.258,2.258,0,0,0-.311-.8,1.5,1.5,0,0,0-.592-.528,2.094,2.094,0,0,0-.95-.189,2.029,2.029,0,0,0-.987.2,1.437,1.437,0,0,0-.562.551,2.184,2.184,0,0,0-.258.8,7.124,7.124,0,0,0-.061.951,6.168,6.168,0,0,0,.076,1,2.244,2.244,0,0,0,.281.808,1.456,1.456,0,0,0,.569.536A1.979,1.979,0,0,0,1452.221-87.636Z" transform="translate(-1418.516 96.796)" fill="url(#b)"/><path d="M1474.314-92.516a2.211,2.211,0,0,0-.41-.182,1.45,1.45,0,0,0-.532-.061,1.772,1.772,0,0,0-.782.2,1.784,1.784,0,0,0-.577.486,2.418,2.418,0,0,0-.372.7,2.447,2.447,0,0,0-.136.805v4.147h-1.337v-7.4h1.337v.881a1.338,1.338,0,0,1,.311-.418,2.193,2.193,0,0,1,.463-.327,2.526,2.526,0,0,1,.555-.212,2.287,2.287,0,0,1,.57-.076,3.539,3.539,0,0,1,.911.122Z" transform="translate(-1432.072 96.769)" fill="url(#c)"/><path d="M1484.6-94.726a7.929,7.929,0,0,1,.137-1.512,3.255,3.255,0,0,1,.5-1.238,2.548,2.548,0,0,1,.995-.843,3.7,3.7,0,0,1,1.633-.311,2.509,2.509,0,0,1,.607.076,2.825,2.825,0,0,1,.577.212,2.067,2.067,0,0,1,.479.327,1.428,1.428,0,0,1,.311.4v-3.661h1.337V-91.1h-1.337v-.76a1.94,1.94,0,0,1-.813.638,2.721,2.721,0,0,1-1.162.258,3.817,3.817,0,0,1-1.534-.273,2.542,2.542,0,0,1-1.01-.775,3.121,3.121,0,0,1-.554-1.192A6.5,6.5,0,0,1,1484.6-94.726Zm3.266,2.461a1.943,1.943,0,0,0,.866-.167,2.287,2.287,0,0,0,.486-.3q.106-.106.213-.228a1.252,1.252,0,0,0,.2-.342,2.76,2.76,0,0,0,.152-.57,5.522,5.522,0,0,0,.061-.911,5.41,5.41,0,0,0-.061-.9,2.762,2.762,0,0,0-.152-.57,1.411,1.411,0,0,0-.2-.35q-.107-.129-.213-.235a1.919,1.919,0,0,0-.486-.319,1.937,1.937,0,0,0-.866-.167,1.917,1.917,0,0,0-.836.167,2.187,2.187,0,0,0-.517.319q-.106.106-.212.235a1.125,1.125,0,0,0-.182.35,3.337,3.337,0,0,0-.129.57,6.128,6.128,0,0,0-.053.9,6.53,6.53,0,0,0,.053.942,3.123,3.123,0,0,0,.129.562.931.931,0,0,0,.182.327q.106.114.212.22a2.871,2.871,0,0,0,.494.3A1.889,1.889,0,0,0,1487.863-92.265Z" transform="translate(-1441.307 101.44)" fill="url(#g)"/></g><g transform="translate(22.133 3.518)"><path d="M1368.176-92.308q-.456-.015-.8-.06a5.622,5.622,0,0,1-.7-.137,2.937,2.937,0,0,1-1.337-.8,3.3,3.3,0,0,1-.691-1.2,5.5,5.5,0,0,1-.258-1.45q-.038-.775-.038-1.549v-.076a17.87,17.87,0,0,1,.076-1.823,7.932,7.932,0,0,1,.2-1.169,2.5,2.5,0,0,1,.3-.722,3.744,3.744,0,0,1,.387-.494,2.8,2.8,0,0,1,.608-.486,2.971,2.971,0,0,1,.714-.3,5.071,5.071,0,0,1,.76-.152,6.275,6.275,0,0,1,.744-.046,6.88,6.88,0,0,1,1.587.213,2.619,2.619,0,0,1,1.3.775q.167.213.326.448a2.414,2.414,0,0,1,.281.615l-1.383.152a1.214,1.214,0,0,0-.365-.479,1.694,1.694,0,0,0-.509-.266,2.784,2.784,0,0,0-.593-.121q-.311-.031-.6-.046a6.213,6.213,0,0,0-1.033.129,1.638,1.638,0,0,0-.821.494,1.518,1.518,0,0,0-.19.243,1.812,1.812,0,0,0-.19.494,6.317,6.317,0,0,0-.151.942q-.061.6-.061,1.6v.076q0,1,.061,1.6a6.554,6.554,0,0,0,.151.949,1.679,1.679,0,0,0,.19.494,1.633,1.633,0,0,0,.19.235,1.783,1.783,0,0,0,.828.5,5.465,5.465,0,0,0,1.01.136q.319-.015.638-.061a3.3,3.3,0,0,0,.607-.144,1.6,1.6,0,0,0,.509-.281,1.083,1.083,0,0,0,.326-.471l1.383.182a2.784,2.784,0,0,1-.775,1.185,3.219,3.219,0,0,1-1.23.669A5.637,5.637,0,0,1,1368.176-92.308Z" transform="translate(-1364.348 102.774)" stroke="#707070" stroke-miterlimit="10" stroke-width="0.232" fill="url(#h)"/><path d="M1393.51-91.179a6.4,6.4,0,0,1-.175,1.549,3.359,3.359,0,0,1-.562,1.215,2.519,2.519,0,0,1-1.025.8,3.831,3.831,0,0,1-1.549.281,3.485,3.485,0,0,1-1.565-.311,2.614,2.614,0,0,1-.995-.843,3.358,3.358,0,0,1-.524-1.223,6.8,6.8,0,0,1-.152-1.466,7.439,7.439,0,0,1,.152-1.549,3.155,3.155,0,0,1,.532-1.23,2.56,2.56,0,0,1,.995-.805,3.68,3.68,0,0,1,1.557-.288,3.836,3.836,0,0,1,1.633.3,2.549,2.549,0,0,1,1.018.828,3.211,3.211,0,0,1,.517,1.23A7.58,7.58,0,0,1,1393.51-91.179Zm-3.311,2.506a2.05,2.05,0,0,0,.972-.2,1.581,1.581,0,0,0,.6-.551,2.137,2.137,0,0,0,.3-.8,5.735,5.735,0,0,0,.076-.951,5.253,5.253,0,0,0-.091-1.019,2.263,2.263,0,0,0-.311-.8,1.5,1.5,0,0,0-.592-.528,2.094,2.094,0,0,0-.95-.189,2.03,2.03,0,0,0-.987.2,1.437,1.437,0,0,0-.562.551,2.194,2.194,0,0,0-.258.8,7.191,7.191,0,0,0-.061.951,6.166,6.166,0,0,0,.076,1,2.235,2.235,0,0,0,.281.808,1.456,1.456,0,0,0,.569.536A1.977,1.977,0,0,0,1390.2-88.672Z" transform="translate(-1378.822 97.832)" stroke="#707070" stroke-miterlimit="10" stroke-width="0.232" fill="url(#i)"/><path d="M1414.584-87.461h-1.337v-4.056a4.132,4.132,0,0,0-.053-.721,3,3,0,0,0-.129-.5,1.155,1.155,0,0,0-.182-.334q-.107-.129-.2-.22a2.418,2.418,0,0,0-.5-.334,1.764,1.764,0,0,0-.82-.167,1.69,1.69,0,0,0-.79.167,2.4,2.4,0,0,0-.5.334q-.091.091-.2.213a1.327,1.327,0,0,0-.2.319,2.046,2.046,0,0,0-.144.494,4.356,4.356,0,0,0-.053.752v4.056h-1.337v-7.382h1.337v.866a1.3,1.3,0,0,1,.319-.418,2.35,2.35,0,0,1,.471-.327,2.558,2.558,0,0,1,.547-.213,2.159,2.159,0,0,1,.547-.076,3.887,3.887,0,0,1,1.443.243,2.557,2.557,0,0,1,1,.7,2.909,2.909,0,0,1,.585,1.1,5.142,5.142,0,0,1,.19,1.45Z" transform="translate(-1392.377 97.805)" stroke="#707070" stroke-miterlimit="10" stroke-width="0.232" fill="url(#j)"/><path d="M1432.2-95.01a3.468,3.468,0,0,1,2.066.539,2.544,2.544,0,0,1,.987,1.374l-1.428.137a1.169,1.169,0,0,0-.7-.592,2.846,2.846,0,0,0-.927-.167,2.048,2.048,0,0,0-1,.212,1.525,1.525,0,0,0-.585.562,2.241,2.241,0,0,0-.274.813,6.64,6.64,0,0,0-.068.964,5.708,5.708,0,0,0,.083,1.01,2.19,2.19,0,0,0,.3.8,1.453,1.453,0,0,0,.593.524,2.125,2.125,0,0,0,.957.19,3.122,3.122,0,0,0,.463-.038,2.144,2.144,0,0,0,.479-.129,1.63,1.63,0,0,0,.41-.235.931.931,0,0,0,.273-.342l1.428.137a2.506,2.506,0,0,1-.987,1.382,3.5,3.5,0,0,1-2.066.531,3.736,3.736,0,0,1-1.617-.3,2.512,2.512,0,0,1-.995-.828,3.463,3.463,0,0,1-.524-1.215,8.8,8.8,0,0,1-.205-1.481,7.135,7.135,0,0,1,.159-1.572,3.043,3.043,0,0,1,.547-1.207,2.572,2.572,0,0,1,1.033-.782A4.022,4.022,0,0,1,1432.2-95.01Z" transform="translate(-1405.636 97.805)" stroke="#707070" stroke-miterlimit="10" stroke-width="0.232" fill="url(#k)"/><path d="M1455.533-91.179a6.4,6.4,0,0,1-.175,1.549,3.359,3.359,0,0,1-.562,1.215,2.52,2.52,0,0,1-1.025.8,3.829,3.829,0,0,1-1.549.281,3.483,3.483,0,0,1-1.564-.311,2.611,2.611,0,0,1-.995-.843,3.356,3.356,0,0,1-.524-1.223,6.8,6.8,0,0,1-.152-1.466,7.431,7.431,0,0,1,.152-1.549,3.157,3.157,0,0,1,.532-1.23,2.562,2.562,0,0,1,.995-.805,3.68,3.68,0,0,1,1.557-.288,3.835,3.835,0,0,1,1.633.3,2.55,2.55,0,0,1,1.018.828,3.211,3.211,0,0,1,.517,1.23A7.553,7.553,0,0,1,1455.533-91.179Zm-3.312,2.506a2.048,2.048,0,0,0,.972-.2,1.583,1.583,0,0,0,.6-.551,2.14,2.14,0,0,0,.3-.8,5.735,5.735,0,0,0,.076-.951,5.253,5.253,0,0,0-.091-1.019,2.261,2.261,0,0,0-.311-.8,1.5,1.5,0,0,0-.592-.528,2.094,2.094,0,0,0-.95-.189,2.029,2.029,0,0,0-.987.2,1.439,1.439,0,0,0-.562.551,2.186,2.186,0,0,0-.258.8,7.129,7.129,0,0,0-.061.951,6.167,6.167,0,0,0,.076,1,2.242,2.242,0,0,0,.281.808,1.457,1.457,0,0,0,.569.536A1.979,1.979,0,0,0,1452.221-88.672Z" transform="translate(-1418.516 97.832)" stroke="#707070" stroke-miterlimit="10" stroke-width="0.232" fill="url(#i)"/><path d="M1474.314-93.552a2.187,2.187,0,0,0-.41-.183,1.466,1.466,0,0,0-.532-.061,1.776,1.776,0,0,0-.782.2,1.787,1.787,0,0,0-.577.486,2.416,2.416,0,0,0-.372.7,2.445,2.445,0,0,0-.136.8v4.147h-1.337v-7.4h1.337v.881a1.341,1.341,0,0,1,.311-.418,2.168,2.168,0,0,1,.463-.327,2.526,2.526,0,0,1,.555-.213,2.3,2.3,0,0,1,.57-.076,3.523,3.523,0,0,1,.911.122Z" transform="translate(-1432.072 97.805)" stroke="#707070" stroke-miterlimit="10" stroke-width="0.232" fill="url(#j)"/><path d="M1484.6-95.762a7.925,7.925,0,0,1,.137-1.511,3.253,3.253,0,0,1,.5-1.238,2.545,2.545,0,0,1,.995-.843,3.7,3.7,0,0,1,1.633-.311,2.509,2.509,0,0,1,.607.076,2.8,2.8,0,0,1,.577.213,2.055,2.055,0,0,1,.479.327,1.431,1.431,0,0,1,.311.4v-3.66h1.337v10.177h-1.337v-.76a1.941,1.941,0,0,1-.813.638,2.727,2.727,0,0,1-1.162.258,3.817,3.817,0,0,1-1.534-.273,2.546,2.546,0,0,1-1.01-.775,3.126,3.126,0,0,1-.554-1.192A6.5,6.5,0,0,1,1484.6-95.762Zm3.266,2.461a1.937,1.937,0,0,0,.866-.167,2.272,2.272,0,0,0,.486-.3q.106-.106.213-.228a1.246,1.246,0,0,0,.2-.342,2.763,2.763,0,0,0,.152-.57,5.526,5.526,0,0,0,.061-.912,5.406,5.406,0,0,0-.061-.9,2.756,2.756,0,0,0-.152-.57,1.4,1.4,0,0,0-.2-.35q-.107-.129-.213-.235a1.929,1.929,0,0,0-.486-.319,1.943,1.943,0,0,0-.866-.167,1.922,1.922,0,0,0-.836.167,2.2,2.2,0,0,0-.517.319q-.106.106-.212.235a1.117,1.117,0,0,0-.182.35,3.329,3.329,0,0,0-.129.57,6.123,6.123,0,0,0-.053.9,6.53,6.53,0,0,0,.053.942,3.116,3.116,0,0,0,.129.562.928.928,0,0,0,.182.327c.071.076.141.15.212.22a2.848,2.848,0,0,0,.494.3A1.884,1.884,0,0,0,1487.863-93.3Z" transform="translate(-1441.307 102.476)" stroke="#707070" stroke-miterlimit="10" stroke-width="0.232" fill="url(#n)"/></g><g transform="translate(0)"><path d="M1311.344-76.158c2.043-.173,5.081-1.9,7.58-4.145a13.4,13.4,0,0,0-1.677.22c-3.628.7-7.311,2.98-6.625,3.75l.039.036.105.09-.109-.1A1.048,1.048,0,0,0,1311.344-76.158Z" transform="translate(-1307.777 91.911)" fill="#134577"/><path d="M1314.748-66.257a6.57,6.57,0,0,0,.722.4l.09.042c-.214-.111-.372-.192-.5-.263C1314.952-66.135,1314.848-66.2,1314.748-66.257Z" transform="translate(-1310.471 82.921)" fill="#134577"/><path d="M1312.52-67.82l0,0c-.135-.1-.286-.223-.437-.345C1312.237-68.04,1312.386-67.922,1312.52-67.82Z" transform="translate(-1308.769 84.14)" fill="#134577"/><path d="M1318.326-64.443c.143.059.286.117.41.163l-.014-.008-.146-.056Z" transform="translate(-1312.761 81.76)" fill="#134577"/><path d="M1340.314-76.816a1.6,1.6,0,0,0-.765-1.589,19.028,19.028,0,0,1-2.534,2.308c.85.149,1.219.6.972,1.13a1.869,1.869,0,0,1-.229.381A15.91,15.91,0,0,0,1340.314-76.816Z" transform="translate(-1324.722 90.696)" fill="#134577"/><path d="M1350.88-80.222c.066-.167.13-.346.191-.539.035-.114.072-.239.111-.378l.015-.057,0-.019-.01.04C1351.108-80.895,1351.013-80.575,1350.88-80.222Z" transform="translate(-1333.595 92.494)" fill="#134577"/><path d="M1303.967-80.171l.009.027-.009-.029Z" transform="translate(-1303.57 91.828)" fill="#134577"/><path d="M1304.622-78.364c.03.068.06.135.092.2-.1-.243-.211-.494-.314-.766C1304.474-78.729,1304.552-78.535,1304.622-78.364Z" transform="translate(-1303.849 91.03)" fill="#134577"/><path d="M1304.364-93.18a14.152,14.152,0,0,0,6.5-4.151c-3.4.652-6.624,2.035-7.715,3.311a.885.885,0,0,0-.281.57C1302.9-93.289,1302.994-92.912,1304.364-93.18Z" transform="translate(-1302.867 102.809)" fill="#134577"/><path d="M1347.541-72.531l.011-.015.045-.062-.026.035Z" transform="translate(-1331.458 86.985)" fill="#134577"/><path d="M1332.322-98.34a12.548,12.548,0,0,1-2.871,3.605,12.919,12.919,0,0,1,4.209.014,9.435,9.435,0,0,0,1.555-3.047A8.99,8.99,0,0,0,1332.322-98.34Z" transform="translate(-1319.881 103.454)" fill="#134577"/><path d="M1348.841-75.541c.122-.2.219-.369.387-.691-.15.279-.243.45-.332.6Z" transform="translate(-1332.29 89.305)" fill="#134577"/><path d="M1349.318-87.881a5.986,5.986,0,0,0,.724-2.4v.017c-.016.276-.04.637-.092,1.026a8.671,8.671,0,0,0,.1-1.115,3.878,3.878,0,0,0-.54-1.94,6.66,6.66,0,0,1-.869,2.736A2.434,2.434,0,0,1,1349.318-87.881Z" transform="translate(-1332.16 99.586)" fill="#134577"/><path d="M1336.835-108.514a7.032,7.032,0,0,1,2.378.825,3.358,3.358,0,0,0-.931-1.445,4.51,4.51,0,0,0-.4-.325l-.122-.081a6.678,6.678,0,0,0-2.073-.769A2.512,2.512,0,0,1,1336.835-108.514Z" transform="translate(-1323.87 111.115)" fill="#134577"/><path d="M1307.673-102.992c-.092.116-.182.233-.258.334l-.058.086c.045-.064.093-.13.142-.2S1307.613-102.916,1307.673-102.992Z" transform="translate(-1305.74 106.432)" fill="#134577"/><path d="M1315.385-110.454a2.063,2.063,0,0,0-.364-.157,15.147,15.147,0,0,0-3.107.677.3.3,0,0,0-.043.242c-.721.366-1.217.428-1.391.321a6.355,6.355,0,0,0-1.831,1.176c-.472.607.109.591.381.556a4.412,4.412,0,0,0,1.145-.368,9.962,9.962,0,0,0-.6.869,19.8,19.8,0,0,1,6.582-1.688A1.479,1.479,0,0,0,1315.385-110.454Z" transform="translate(-1306.452 111.308)" fill="#134577"/><path d="M1305.687-99.955l-.033.065c.119-.22.2-.366.277-.5C1305.854-100.263,1305.782-100.134,1305.687-99.955Z" transform="translate(-1304.651 104.766)" fill="#134577"/><path d="M1347.988-101.8l-.1-.145,0,0c.154.235.264.4.351.54C1348.153-101.553,1348.069-101.686,1347.988-101.8Z" transform="translate(-1331.678 105.767)" fill="#134577"/><path d="M1304.243-96.86c-.05.131-.1.272-.142.39l-.05.15c.111-.308.18-.5.237-.647C1304.272-96.93,1304.257-96.894,1304.243-96.86Z" transform="translate(-1303.625 102.576)" fill="#134577"/><path d="M1345.208-105.1l-.064-.064-.062-.061c.2.217.346.367.458.489C1345.431-104.862,1345.313-105,1345.208-105.1Z" transform="translate(-1329.885 107.863)" fill="#134577"/><path d="M1342-107.8l-.1-.07-.081-.055c.251.186.418.31.551.415C1342.253-107.6,1342.121-107.709,1342-107.8Z" transform="translate(-1327.797 109.587)" fill="#134577"/><path d="M1335.194-83.914c.132-.353.228-.673.311-.953l.01-.039c.045-.171.084-.341.112-.491.008-.041.015-.084.023-.127.018-.107.035-.213.048-.317.052-.389.076-.75.093-1.026v-.017a5.988,5.988,0,0,1-.724,2.4,10.568,10.568,0,0,1-1.565,2.175,15.9,15.9,0,0,1-2.556,2.229,15.556,15.556,0,0,1-1.517.945l.015-.018a6.875,6.875,0,0,1-3.074.864v.064a.955.955,0,0,0,.278.028l.139,0-.024,0h.032c.071,0,.149,0,.228,0l.218,0h.054c.129-.006.3-.019.434-.031l.017,0,.074-.006c.1-.011.216-.026.307-.038l.051-.007.013,0h0c.1-.014.208-.032.326-.054l.041-.008.032-.006c.081-.016.161-.032.232-.048l.094-.022.01,0,.1-.026.208-.053c.084-.023.164-.046.243-.069l.063-.019.064-.02.174-.058.045-.016.023-.008c.085-.03.168-.06.247-.091l.006,0c.113-.044.156-.061.264-.107l.047-.019.177-.078.036-.017.185-.088a9.378,9.378,0,0,0,3.08-2.51c.046-.058.09-.114.132-.17l.026-.034.068-.093c.072-.1.13-.19.182-.267s.109-.171.161-.254l.055-.089c.089-.152.181-.323.332-.6A8.534,8.534,0,0,0,1335.194-83.914Z" transform="translate(-1317.91 96.122)" fill="url(#o)"/><path d="M1335.194-83.736c.132-.353.228-.672.311-.953l.01-.04c.045-.171.084-.341.112-.491.008-.041.015-.084.023-.126q.028-.161.048-.317c.052-.389.076-.749.093-1.026v-.017a5.987,5.987,0,0,1-.724,2.4,10.57,10.57,0,0,1-1.565,2.175,15.921,15.921,0,0,1-2.556,2.229,15.631,15.631,0,0,1-1.517.945l.015-.018a6.88,6.88,0,0,1-3.074.864.618.618,0,0,0,.278.093l.139,0-.024,0h.032c.071,0,.149,0,.228,0l.218,0h.054c.129-.006.3-.019.434-.031l.017,0,.074-.006c.1-.011.216-.025.307-.037l.051-.008.013,0h0c.1-.015.208-.033.326-.054l.041-.008.032-.006c.081-.016.161-.032.232-.048l.094-.022.01,0,.1-.026.208-.053c.084-.023.164-.045.243-.069l.063-.019.064-.02.174-.058.045-.016.023-.008c.085-.03.168-.06.247-.091l.006,0c.113-.044.156-.06.264-.107l.047-.019.177-.078.036-.017.185-.088a9.378,9.378,0,0,0,3.08-2.51c.046-.058.09-.114.132-.17l.026-.035.068-.093c.072-.1.13-.19.182-.267s.109-.17.161-.254l.055-.09c.089-.152.181-.323.332-.6A8.5,8.5,0,0,0,1335.194-83.736Z" transform="translate(-1317.91 96.008)" fill="url(#p)"/><path d="M1322.814-97.578a12.121,12.121,0,0,0,1.65-2.264,6.661,6.661,0,0,0,.869-2.737,4.7,4.7,0,0,0-.324-2.086l-.007-.014c-.1-.2-.237-.463-.359-.677-.03-.049-.063-.1-.1-.159-.087-.137-.2-.306-.351-.54h0c-.1-.131-.169-.231-.238-.32s-.143-.175-.211-.256l-.1-.114c-.111-.122-.253-.272-.458-.489l-.011-.011c-.116-.112-.206-.2-.29-.273s-.2-.168-.288-.244l-.033-.026c-.134-.1-.3-.229-.551-.415l-.042-.032-.039-.027.068.049a4.578,4.578,0,0,1,.4.325,3.362,3.362,0,0,1,.931,1.445,4.027,4.027,0,0,1-.009,2.261,9.438,9.438,0,0,1-1.555,3.047,19.02,19.02,0,0,1-2.632,2.874c-2.5,2.25-5.536,3.972-7.58,4.145a1.048,1.048,0,0,1-.687-.148l.109.1.022.019c.1.083.2.17.309.256.151.122.3.241.437.345l.037.028.221.15c.082.052.171.107.263.163s.2.122.308.182c.131.071.289.152.5.263l.066.034.105.046c.1.042.2.085.306.128l.249.1.146.056.034.013.025.006.058.024c1.092.154,3.753-1.036,6.215-2.918A19.01,19.01,0,0,0,1322.814-97.578Z" transform="translate(-1307.986 109.805)" fill="url(#q)"/><path d="M1322.814-97.4a12.121,12.121,0,0,0,1.65-2.264,6.66,6.66,0,0,0,.869-2.736,4.7,4.7,0,0,0-.324-2.087L1325-104.5c-.1-.2-.237-.464-.359-.677-.03-.049-.063-.1-.1-.159-.087-.137-.2-.305-.351-.54h0c-.1-.132-.169-.231-.238-.32s-.143-.175-.211-.256c-.031-.036-.065-.073-.1-.114-.111-.122-.253-.273-.458-.489l-.011-.012c-.116-.112-.206-.2-.29-.273s-.2-.168-.288-.244l-.033-.027c-.134-.1-.3-.229-.551-.415l-.042-.032-.039-.027.068.049a4.509,4.509,0,0,1,.4.325,3.358,3.358,0,0,1,.931,1.445,4.026,4.026,0,0,1-.009,2.26,9.435,9.435,0,0,1-1.555,3.047,19.04,19.04,0,0,1-2.632,2.874c-2.5,2.25-5.536,3.972-7.58,4.145a1.048,1.048,0,0,1-.687-.148l.109.1.022.019c.1.083.2.17.309.256.151.122.3.241.437.345l.037.028.221.15c.082.052.171.107.263.163s.2.122.308.182c.131.071.289.152.5.263l.066.034.105.046c.1.042.2.085.306.127l.249.1.146.056.034.013.025.006.058.024c1.092.154,3.753-1.036,6.215-2.918A19.012,19.012,0,0,0,1322.814-97.4Z" transform="translate(-1307.986 109.691)" fill="url(#r)"/><path d="M1307.5-103.8a4.4,4.4,0,0,1-1.144.368c-.272.035-.854.05-.382-.556-.081.1-.173.211-.264.327-.06.076-.119.152-.174.225l-.141.2-.047.067c-.124.182-.206.308-.289.45s-.158.279-.277.5l-.06.111c-.052.107-.093.191-.129.267s-.082.183-.122.279l-.03.076c-.057.149-.126.339-.237.647-.105.484.434.575,1.6.271,1.425-.375,2.449-.857,2.559-2.149C1308.4-103.077,1308.373-104.146,1307.5-103.8Z" transform="translate(-1303.716 107.07)" fill="url(#s)"/><path d="M1307.324-103.712a4.412,4.412,0,0,1-1.145.368c-.272.035-.854.05-.382-.556-.081.1-.173.211-.263.327-.06.076-.119.152-.174.224s-.1.131-.141.2l-.048.067c-.123.182-.205.309-.288.45s-.158.279-.277.5l-.059.111c-.052.107-.093.191-.129.267s-.081.183-.121.279l-.03.076c-.057.148-.126.339-.237.647-.1.484.434.575,1.6.27,1.425-.375,2.449-.857,2.559-2.149C1308.219-102.988,1308.195-104.057,1307.324-103.712Z" transform="translate(-1303.602 107.013)" fill="url(#t)"/><path d="M1315.309-107.5a4.437,4.437,0,0,0,.524-2.514,2.513,2.513,0,0,0-1.151-1.8,5.13,5.13,0,0,0-2.432-.733h-.033c-.126,0-.271-.005-.416-.006s-.307,0-.438,0h-.032l-.056,0-.178.011c-.118.009-.229.021-.442.048l-.126.014-.062.009h-.013c-.151.022-.223.034-.356.061l-.014,0c-.1.021-.224.045-.319.067h-.006l-.016,0h0l-.143.034-.136.036-.038.011-.051.013c-.069.019-.162.046-.26.077h0l-.207.067-.069.025-.024.008-.255.094h0l-.009,0c-.107.042-.152.06-.244.1l-.022.009c-.075.033-.168.073-.239.107h0l-.047.022-.084.04-.033.016a2.19,2.19,0,0,0-1.033.8.138.138,0,0,0,.059.177c.175.107.67.045,1.392-.321a.3.3,0,0,1,.043-.242,3.281,3.281,0,0,1,3.107-.677,2.034,2.034,0,0,1,.364.157,1.478,1.478,0,0,1,.767,1.628,6.354,6.354,0,0,1-1.7,3,14.15,14.15,0,0,1-6.5,4.151c-1.37.269-1.459-.109-1.5-.27.008.2.022.381.04.559l.009.082,0,.016c0,.04.009.08.014.121a9.63,9.63,0,0,0,.237,1.2q.045.164.094.317l.01.029c.047.145.1.285.147.419.1.273.21.524.313.767l.06.122c.21.286.66.243,1.137.2-.014-.039-.028-.078-.041-.116.014.037.027.076.041.116,2.385-.4,5.2-2.493,6.954-3.981q.288-.245.554-.489A12.554,12.554,0,0,0,1315.309-107.5Z" transform="translate(-1302.867 112.547)" fill="url(#u)"/><path d="M1315.309-107.318a4.436,4.436,0,0,0,.524-2.514,2.512,2.512,0,0,0-1.151-1.8,5.126,5.126,0,0,0-2.432-.733h-.033c-.126,0-.271-.006-.416-.006s-.307,0-.438,0h-.032l-.056,0-.178.011c-.118.009-.229.021-.442.048l-.126.014-.062.009h-.013c-.151.022-.223.034-.356.061l-.014,0c-.1.021-.224.045-.319.067h-.006l-.016,0h0l-.143.034-.136.036-.038.011-.051.013c-.069.019-.162.046-.26.077h0c-.07.022-.142.045-.207.067l-.069.024-.024.008-.255.094,0,0-.009,0c-.107.042-.152.06-.244.1l-.022.009c-.075.033-.168.073-.239.106h0l-.047.022-.084.041-.033.016a2.193,2.193,0,0,0-1.033.8.137.137,0,0,0,.059.177c.175.107.67.045,1.392-.321a.3.3,0,0,1,.043-.242,3.281,3.281,0,0,1,3.107-.677,2.06,2.06,0,0,1,.364.157,1.479,1.479,0,0,1,.767,1.628,6.355,6.355,0,0,1-1.7,3,14.152,14.152,0,0,1-6.5,4.151c-1.37.269-1.459-.109-1.5-.27.008.2.022.381.04.559l.009.082,0,.016c0,.04.009.08.014.122a9.643,9.643,0,0,0,.237,1.2c.03.109.062.214.094.316l.01.029c.047.146.1.285.147.419.1.272.21.524.313.766l.06.123c.21.285.66.242,1.137.2-.014-.039-.028-.077-.041-.116.014.037.027.076.041.116,2.385-.4,5.2-2.492,6.954-3.981q.288-.245.554-.489A12.55,12.55,0,0,0,1315.309-107.318Z" transform="translate(-1302.867 112.433)" fill="url(#v)"/></g></g></svg>