<svg xmlns="http://www.w3.org/2000/svg" width="86.23" height="18" viewBox="0 0 86.23 18"><g transform="translate(0 0)"><path d="M563.83-108.421a9,9,0,0,1,9,9,9,9,0,0,1-9,9Z" transform="translate(-563.83 108.421)" fill="#404da1"/><path d="M595.579-108.421a9,9,0,0,0-9,9,9,9,0,0,0,9,9Z" transform="translate(-576.771 108.421)" fill="#ef496b"/></g><g transform="translate(23.959 4.024)"><path d="M619.4-99.087h8.053l3.157,4.987-3.157,4.964H619.4Zm2.974,1.464V-90.6h3.02l2.265-3.5-2.265-3.523Z" transform="translate(-619.401 99.087)" fill="#404da1"/><path d="M651.558-99.087v9.951h-2.974v-9.951Z" transform="translate(-636.002 99.087)" fill="#404da1"/><path d="M670.188-89.136H661.22L659.939-90.6h8.007l.526-.618v-2.173h-8.144v-4.118l1.35-1.578h10.157l-1.259,1.464h-6.634l-.64.732v2.036h8.19v4.209Z" transform="translate(-642.461 99.087)" fill="#404da1"/><path d="M691.084-99.087l6.131,3.98,6.131-3.98v9.951H700.4v-5.7l-3.18,2.013-3.157-2.013v5.7h-2.974Z" transform="translate(-660.178 99.087)" fill="#404da1"/><path d="M727.858-99.087v9.951h-2.974v-9.951Z" transform="translate(-679.405 99.087)" fill="#404da1"/><path d="M746.488-89.136H737.52L736.239-90.6h8.007l.526-.618v-2.173h-8.144v-4.118l1.349-1.578h10.157l-1.258,1.464h-6.635l-.64.732v2.036h8.19v4.209Z" transform="translate(-685.865 99.087)" fill="#404da1"/></g></svg>