<svg xmlns="http://www.w3.org/2000/svg" width="70.222" height="18" viewBox="0 0 70.222 18"><g transform="translate(20.939 1.011)"><path d="M381.547-106.516v9.549q1,0,1.717-.047t1.874-.172c-.021.115-.04.235-.055.361a2.568,2.568,0,0,0-.023.313,2.494,2.494,0,0,0,.031.329c.021.147.036.261.047.345H379.2v-10.678c.178,0,.408.014.69.039s.444.039.486.039q.267,0,.439-.015Q381.484-106.516,381.547-106.516Z" transform="translate(-379.195 107.676)" fill="#2b246a"/><path d="M400.1-107.934a1.211,1.211,0,0,1,.361-.863,1.153,1.153,0,0,1,.863-.377,1.23,1.23,0,0,1,.878.361,1.171,1.171,0,0,1,.376.878,1.188,1.188,0,0,1-.369.87,1.206,1.206,0,0,1-.885.368,1.157,1.157,0,0,1-.87-.368A1.215,1.215,0,0,1,400.1-107.934Zm.157,10.474v-7.6q.267.031.6.055c.225.015.384.023.478.023a5.717,5.717,0,0,0,.627-.031q.282-.031.455-.047v7.6a3.761,3.761,0,0,0-.393-.031q-.548-.047-.689-.047a5.729,5.729,0,0,0-.627.031C400.525-97.486,400.373-97.47,400.258-97.46Z" transform="translate(-392.575 109.377)" fill="#2b246a"/><path d="M417.893-98.106l-.016.721-1.412-.047a2.211,2.211,0,0,1,.831,1.756,2.246,2.246,0,0,1-.941,1.944,4,4,0,0,1-2.368.627h-.266a.578.578,0,0,0-.423.118.745.745,0,0,0-.149.212.478.478,0,0,0-.04.188.675.675,0,0,0,.345.635,1.873,1.873,0,0,0,.926.2l1.348.047a2.445,2.445,0,0,1,1.788.564,1.975,1.975,0,0,1,.5,1.458,2.921,2.921,0,0,1-1.286,2.524,4.768,4.768,0,0,1-2.838.816,4.451,4.451,0,0,1-2.038-.424,1.77,1.77,0,0,1-1.082-1.662,1.738,1.738,0,0,1,.345-1.082,2.023,2.023,0,0,1,.94-.674l.235-.141-.109-.126a1.1,1.1,0,0,1-.768-1.16,1.522,1.522,0,0,1,.4-.98,1.658,1.658,0,0,1,.824-.588l.235-.063a2.341,2.341,0,0,1-1.992-2.509,1.984,1.984,0,0,1,.933-1.827,4.932,4.932,0,0,1,2.58-.572l1.6.047Zm-5.614,8.781a.892.892,0,0,0-.063.266,3.047,3.047,0,0,0-.016.314,1.554,1.554,0,0,0,.643,1.333,2.406,2.406,0,0,0,1.458.423,1.91,1.91,0,0,0,1.388-.525,1.647,1.647,0,0,0,.541-1.215,1.3,1.3,0,0,0-.721-1.317,4.338,4.338,0,0,0-1.6-.2,2.738,2.738,0,0,0-1.019.141A1.065,1.065,0,0,0,412.279-89.325Zm.831-6.162a2.628,2.628,0,0,0,.294,1.38.77.77,0,0,0,.694.408q.633,0,.865-.768a4.787,4.787,0,0,0,.138-1.317,3.464,3.464,0,0,0-.154-1.129.824.824,0,0,0-.787-.658q-.649,0-.9.768A4.393,4.393,0,0,0,413.11-95.487Z" transform="translate(-399.406 102.324)" fill="#2b246a"/><path d="M435.935-109.739v5.394a3.9,3.9,0,0,1,1.051-.846,2.561,2.561,0,0,1,1.27-.377,2.519,2.519,0,0,1,1.835.721,1.87,1.87,0,0,1,.533.847,4.364,4.364,0,0,1,.125,1.144v5.034a3.736,3.736,0,0,0-.392-.031q-.549-.047-.69-.047a5.706,5.706,0,0,0-.627.031c-.188.021-.34.037-.455.047v-3.9a5.206,5.206,0,0,0-.22-1.8,1.07,1.07,0,0,0-1.066-.721,1.206,1.206,0,0,0-1.223,1.035,7.611,7.611,0,0,0-.141,1.788v3.606a3.751,3.751,0,0,0-.392-.031q-.55-.047-.69-.047a5.727,5.727,0,0,0-.627.031q-.282.032-.455.047v-11.917q.267.031.6.055c.225.016.385.024.478.024a5.557,5.557,0,0,0,.627-.032Q435.762-109.723,435.935-109.739Z" transform="translate(-414.124 109.739)" fill="#2b246a"/><path d="M459.521-101.608v4.469a3.13,3.13,0,0,0,.134,1.09q.133.322.635.321a2.609,2.609,0,0,0,.69-.11v.611a4.775,4.775,0,0,1-1.63.361,1.764,1.764,0,0,1-1.6-.721,3.356,3.356,0,0,1-.392-1.819v-4.2h-1.066a1.3,1.3,0,0,0,.031-.283v-.721h1.035v-1.762q.393-.156,1.02-.437t1.144-.53v2.729h1.333c-.01.094-.019.19-.024.29s-.008.17-.008.212v.5Z" transform="translate(-428.536 106.924)" fill="#2b246a"/><path d="M475.346-90.266a3.782,3.782,0,0,1-2.775-1.019,3.7,3.7,0,0,1-1.035-2.76,4.286,4.286,0,0,1,1.011-2.995,3.61,3.61,0,0,1,2.814-1.113,3.885,3.885,0,0,1,2.823,1,3.664,3.664,0,0,1,1.034,2.76,4.239,4.239,0,0,1-1,2.948A3.684,3.684,0,0,1,475.346-90.266Zm.11-7.181a1.327,1.327,0,0,0-1.27.972,6.742,6.742,0,0,0-.329,2.383,6.734,6.734,0,0,0,.22,1.929q.361,1.192,1.27,1.192.831,0,1.223-1.176a7.9,7.9,0,0,0,.329-2.493,5.006,5.006,0,0,0-.313-1.976A1.209,1.209,0,0,0,475.456-97.447Z" transform="translate(-438.293 102.324)" fill="#2b246a"/><path d="M496.71-90.407v-7.6q.251.031.572.055t.478.023a5.1,5.1,0,0,0,.6-.031c.173-.021.316-.037.431-.047v1.16a4.5,4.5,0,0,1,1.066-.925,2.632,2.632,0,0,1,1.349-.377,2.206,2.206,0,0,1,1.976.862,4.131,4.131,0,0,1,.5,2.29v4.594a3.741,3.741,0,0,0-.392-.031q-.549-.047-.689-.047a5.715,5.715,0,0,0-.627.031c-.188.021-.34.037-.455.047v-3.9a5.207,5.207,0,0,0-.22-1.8,1.07,1.07,0,0,0-1.066-.721,1.205,1.205,0,0,0-1.192,1.035,6.891,6.891,0,0,0-.172,1.788v3.606a3.753,3.753,0,0,0-.392-.031q-.55-.047-.69-.047a5.739,5.739,0,0,0-.628.031Q496.883-90.422,496.71-90.407Z" transform="translate(-454.405 102.324)" fill="#2b246a"/></g><g transform="translate(0 0)"><path d="M321.032-102.394V-94.1a4.009,4.009,0,0,0,4.009-4.009V-106.4A4.009,4.009,0,0,0,321.032-102.394Z" transform="translate(-321.032 108.615)" fill="#20d3c2"/><path d="M338.311-108.538v11.987a2,2,0,0,0,2,2,2,2,0,0,0,2-2v-16A4.009,4.009,0,0,0,338.311-108.538Z" transform="translate(-332.091 112.547)" fill="#20d3c2"/><path d="M355.591-97.955V-92.7a4.009,4.009,0,0,0,4.009,4.009v-5.253A4.009,4.009,0,0,0,355.591-97.955Z" transform="translate(-343.15 103.208)" fill="#20d3c2"/></g></svg>