<svg xmlns="http://www.w3.org/2000/svg" xmlns:xlink="http://www.w3.org/1999/xlink" width="70" height="40" viewBox="0 0 70 40"><defs><radialGradient id="a" cx="0.5" cy="0.5" r="0.506" gradientTransform="translate(-0.004) scale(0.978 1)" gradientUnits="objectBoundingBox"><stop offset="0.006" stop-color="#ffeee0"/><stop offset="0.11" stop-color="#fee8d7"/><stop offset="0.279" stop-color="#fddbbe"/><stop offset="0.494" stop-color="#fac496"/><stop offset="0.744" stop-color="#f7a55f"/><stop offset="1" stop-color="#f48120"/></radialGradient></defs><g transform="translate(-502.469 -1022.692)"><rect width="70" height="40" rx="4.32" transform="translate(502.469 1022.692)" fill="#fff"/><path d="M572.469,1045.166s-17.157,12.1-48.58,17.526h44.58a4,4,0,0,0,4-4Z" fill="#f58220"/><path d="M562.607,1057.5" fill="#e73530"/><path d="M538.967,1032.733a4.586,4.586,0,0,0-4.668,4.5,4.665,4.665,0,1,0,4.668-4.5Z" fill="url(#a)"/><path d="M512.461,1032.9h-2.51v8.755h2.5a4.569,4.569,0,0,0,3.124-1.01,4.405,4.405,0,0,0,1.588-3.363C517.16,1034.694,515.229,1032.9,512.461,1032.9Zm2,6.575a3.236,3.236,0,0,1-2.339.7h-.459v-5.791h.459a3.173,3.173,0,0,1,2.339.709,2.94,2.94,0,0,1,.942,2.178A3,3,0,0,1,514.458,1039.472Z" fill="#001722"/><rect width="1.706" height="8.755" transform="translate(517.949 1032.897)" fill="#001722"/><path d="M523.831,1036.255c-1.026-.38-1.327-.63-1.327-1.1,0-.552.537-.972,1.273-.972a1.776,1.776,0,0,1,1.38.708l.891-1.167a3.827,3.827,0,0,0-2.573-.972,2.572,2.572,0,0,0-2.73,2.506c0,1.209.551,1.825,2.153,2.405a6.477,6.477,0,0,1,1.181.5,1.045,1.045,0,0,1,.513.9,1.248,1.248,0,0,1-1.327,1.234,2.02,2.02,0,0,1-1.864-1.167l-1.1,1.064a3.405,3.405,0,0,0,3.033,1.667,2.825,2.825,0,0,0,3.018-2.876C526.35,1037.6,525.774,1036.965,523.831,1036.255Z" fill="#001722"/><path d="M526.888,1037.279a4.535,4.535,0,0,0,4.623,4.57,4.712,4.712,0,0,0,2.14-.511v-2.01a2.731,2.731,0,0,1-2.062.958,2.862,2.862,0,0,1-2.941-3.02,2.911,2.911,0,0,1,2.863-3.006,2.856,2.856,0,0,1,2.14.985v-2.01a4.367,4.367,0,0,0-2.1-.536A4.6,4.6,0,0,0,526.888,1037.279Z" fill="#001722"/><path d="M547.487,1038.778l-2.337-5.881h-1.864l3.717,8.978h.918l3.782-8.978h-1.851Z" fill="#001722"/><path d="M552.479,1041.652h4.844v-1.482h-3.137v-2.365H557.2v-1.483h-3.017v-1.943h3.137V1032.9h-4.844Z" fill="#001722"/><path d="M564.082,1035.481c0-1.64-1.127-2.584-3.1-2.584H558.45v8.755h1.708v-3.519h.224l2.362,3.519h2.1l-2.758-3.688A2.33,2.33,0,0,0,564.082,1035.481Zm-3.427,1.445h-.5v-2.652h.525c1.065,0,1.643.447,1.643,1.3C562.326,1036.452,561.748,1036.926,560.655,1036.926Z" fill="#001722"/><path d="M565.286,1033.549c0-.153-.1-.237-.29-.237h-.248v.771h.182v-.3l.216.3h.229l-.256-.318A.213.213,0,0,0,565.286,1033.549Zm-.322.105h-.034v-.2h.036c.091,0,.137.033.137.1S565.055,1033.654,564.964,1033.654Z" fill="#231f20"/><path d="M565.033,1033.022a.674.674,0,1,0,.665.674A.671.671,0,0,0,565.033,1033.022Zm0,1.227a.552.552,0,1,1,.53-.551A.545.545,0,0,1,565.032,1034.249Z" fill="#231f20"/><path d="M525.256,1043.953l2.285,2.393v-2.268h.326v3.06l-2.284-2.388v2.257h-.327Z" fill="#231f20"/><path d="M525.226,1043.953v3.085h.387v-2.212l2.284,2.388v-3.167h-.387v2.223c-.1-.106-2.284-2.394-2.284-2.394Zm.061.076,2.286,2.394v-2.316h.263v2.956l-2.282-2.39v2.3h-.267Z" fill="#231f20"/><path d="M529.45,1044.078h1.517v.3h-1.192v.871h1.157v.3h-1.157v1.15h1.192v.3H529.45Z" fill="#231f20"/><path d="M530.967,1044.047h-1.549v2.991H531v-.365h-1.192v-1.09h1.157v-.361h-1.157v-.809H531v-.366Zm-.03.06v.242h-1.193v.932H530.9v.242h-1.158v1.211h1.193v.242H529.48v-2.869Z" fill="#231f20"/><path d="M533.272,1047.007h-.327v-2.627h-.706v-.3h1.748v.3h-.715Z" fill="#231f20"/><path d="M533.987,1044.047h-1.781v.366h.709v2.625h.387v-2.625h.715v-.366Zm-.031.06v.242h-.715v2.627h-.265v-2.627h-.707v-.242Z" fill="#231f20"/><path d="M536.17,1046.273l.948-2.348.947,2.348.77-2.195h.355l-1.125,3.08-.947-2.36-.948,2.36-1.122-3.08h.353Z" fill="#231f20"/><path d="M537.09,1043.914l-.919,2.272c-.049-.142-.749-2.139-.749-2.139H535l1.166,3.2s.9-2.229.948-2.364c.053.135.948,2.364.948,2.364l1.166-3.2h-.419s-.7,2-.749,2.139c-.058-.14-.946-2.342-.946-2.342Zm-.892,2.37.92-2.276.949,2.351.789-2.252h.289c-.028.078-1.029,2.824-1.081,2.966l-.946-2.355-.948,2.355c-.05-.142-1.05-2.888-1.079-2.966h.288l.789,2.252Z" fill="#231f20"/><path d="M543.408,1045.545a1.527,1.527,0,1,1-1.527-1.518A1.52,1.52,0,0,1,543.408,1045.545Zm-2.728,0a1.2,1.2,0,1,0,1.2-1.213A1.211,1.211,0,0,0,540.68,1045.542Z" fill="#231f20"/><path d="M540.324,1045.545a1.558,1.558,0,1,0,1.557-1.548A1.552,1.552,0,0,0,540.324,1045.545Zm.06,0a1.5,1.5,0,1,1,1.5,1.482A1.493,1.493,0,0,1,540.384,1045.545Z" fill="#231f20"/><path d="M540.649,1045.542a1.231,1.231,0,1,0,1.232-1.242A1.238,1.238,0,0,0,540.649,1045.542Zm.062,0a1.17,1.17,0,1,1,1.17,1.182A1.177,1.177,0,0,1,540.711,1045.542Z" fill="#231f20"/><path d="M545.149,1047.007h-.326v-2.929h.423c.555,0,1.071.148,1.071.808a.765.765,0,0,1-.733.808l.932,1.313h-.4l-.884-1.287h-.082Zm0-1.574h.1c.368,0,.742-.069.742-.524,0-.481-.354-.529-.746-.529h-.1Z" fill="#231f20"/><path d="M544.823,1044.047h-.031v2.991h.388v-1.287h.05c0,.022.861,1.273.861,1.273l.425.014h.06l-.941-1.326a.791.791,0,0,0,.713-.826c0-.566-.36-.839-1.1-.839Zm.423.06c.71,0,1.041.248,1.041.779a.738.738,0,0,1-.706.778l-.054.005.931,1.307h-.342c0-.022-.861-1.273-.861-1.273l-.106-.013h-.031v1.286h-.265v-2.869Z" fill="#231f20"/><path d="M545.149,1044.349h-.031v1.114h.132c.36,0,.772-.063.772-.554,0-.517-.4-.56-.776-.56Zm.1.064c.376,0,.715.036.715.5,0,.434-.359.492-.711.492h-.07v-.988Z" fill="#231f20"/><path d="M549.473,1044.078h.439l-1.375,1.365,1.421,1.564h-.45l-1.2-1.344-.082.079v1.265H547.9v-2.929h.326v1.254Z" fill="#231f20"/><path d="M549.912,1044.047h-.451s-1.11,1.115-1.2,1.212v-1.212h-.387v2.991h.387v-1.29a.365.365,0,0,0,.048-.041c.041.044,1.18,1.32,1.18,1.32l.473.011h.071s-1.411-1.553-1.452-1.595l1.408-1.4Zm-.075.06c-.1.1-1.343,1.334-1.343,1.334l1.4,1.535h-.382c0-.015-1.179-1.334-1.179-1.334l-.021-.025-.1.105s-.009,1.2-.009,1.254h-.265v-2.869h.265v1.3l1.29-1.3Z" fill="#231f20"/></g></svg>