<svg xmlns="http://www.w3.org/2000/svg" width="70" height="40" viewBox="0 0 70 40"><g transform="translate(-342.469 -1022.692)"><rect width="70" height="40" rx="4.32" transform="translate(342.469 1022.692)" fill="#fff"/><path d="M367.222,1055.137v-1.659a.973.973,0,0,0-1.051-1.051,1.09,1.09,0,0,0-.94.47.967.967,0,0,0-.885-.47.893.893,0,0,0-.774.387v-.332h-.581v2.655h.581v-1.466c0-.47.249-.691.636-.691s.581.249.581.691v1.466h.581v-1.466a.611.611,0,0,1,.636-.691c.387,0,.58.249.58.691v1.466Zm8.6-2.655h-.94v-.8H374.3v.8h-.525v.526h.525v1.216c0,.609.249.968.913.968a1.555,1.555,0,0,0,.719-.193l-.166-.5a.907.907,0,0,1-.5.138c-.277,0-.387-.166-.387-.442v-1.189h.94v-.526Zm4.923-.055a.782.782,0,0,0-.692.387v-.332h-.581v2.655h.581v-1.493c0-.443.194-.692.553-.692a1.6,1.6,0,0,1,.36.056l.166-.554a1.874,1.874,0,0,0-.387-.027Zm-7.44.276a1.9,1.9,0,0,0-1.078-.276c-.664,0-1.106.332-1.106.857,0,.443.332.691.912.774l.277.028c.3.055.47.138.47.277,0,.193-.221.332-.608.332a1.525,1.525,0,0,1-.885-.277l-.277.442a1.95,1.95,0,0,0,1.134.332c.774,0,1.217-.359,1.217-.857,0-.47-.36-.719-.913-.8l-.276-.028c-.249-.027-.443-.083-.443-.249,0-.193.194-.3.5-.3a1.994,1.994,0,0,1,.83.222l.248-.471Zm15.432-.276a.782.782,0,0,0-.692.387v-.332h-.58v2.655h.58v-1.493c0-.443.194-.692.554-.692a1.6,1.6,0,0,1,.359.056l.166-.554a1.874,1.874,0,0,0-.387-.027Zm-7.412,1.383a1.328,1.328,0,0,0,1.411,1.382,1.377,1.377,0,0,0,.94-.3l-.277-.47a1.116,1.116,0,0,1-.691.249.785.785,0,0,1-.8-.857.817.817,0,0,1,.8-.858,1.116,1.116,0,0,1,.691.249l.277-.47a1.378,1.378,0,0,0-.94-.3,1.329,1.329,0,0,0-1.411,1.383Zm5.365,0v-1.328h-.58v.332a1,1,0,0,0-.83-.387,1.384,1.384,0,0,0,0,2.765.932.932,0,0,0,.83-.387v.332h.58Zm-2.129,0a.8.8,0,1,1,1.6,0,.8.8,0,1,1-1.6,0Zm-6.941-1.383a1.383,1.383,0,0,0,.027,2.765,1.691,1.691,0,0,0,1.079-.359l-.277-.415a1.321,1.321,0,0,1-.774.277.746.746,0,0,1-.8-.637h1.963v-.221a1.221,1.221,0,0,0-1.216-1.41Zm0,.5a.646.646,0,0,1,.663.636H376.9a.7.7,0,0,1,.719-.636Zm14.408.885v-2.379h-.581v1.383a1,1,0,0,0-.83-.387,1.384,1.384,0,0,0,0,2.765.93.93,0,0,0,.83-.387v.332h.581Zm-2.13,0a.8.8,0,1,1,1.6,0,.8.8,0,1,1-1.6,0Zm-19.413,0v-1.328H369.9v.332a1,1,0,0,0-.83-.387,1.384,1.384,0,0,0,0,2.765.932.932,0,0,0,.83-.387v.332h.581Zm-2.157,0a.8.8,0,1,1,1.6,0,.8.8,0,1,1-1.6,0Z"/><rect width="8.711" height="15.653" transform="translate(373.113 1032.322)" fill="#ff5f00"/><path d="M373.666,1040.148a9.98,9.98,0,0,1,3.789-7.826,9.956,9.956,0,1,0,0,15.652A9.938,9.938,0,0,1,373.666,1040.148Z" fill="#eb001b"/><path d="M393.577,1040.148a9.945,9.945,0,0,1-16.1,7.826,9.977,9.977,0,0,0,0-15.652,9.945,9.945,0,0,1,16.1,7.826Z" fill="#f79e1b"/></g></svg>