<svg xmlns="http://www.w3.org/2000/svg" width="70" height="40" viewBox="0 0 70 40"><g transform="translate(-582.469 -1022.692)"><rect width="70" height="40" rx="4.32" transform="translate(582.469 1022.692)" fill="#fff"/><path d="M623.55,1034.645s1.455,1.011,0,1.2a18.555,18.555,0,0,0-9.481,4.425s-6.068,5.309-8.344,11.124c0,0-.757,0-.5-1.137s1.769-6.131,8.532-12.263c0,0,6.511-5.94,9.8-3.349m-17.255.758c.063,1.391,1.264,6.7,1.264,6.7.442,1.074.822,0,.822,0a6.41,6.41,0,0,0-1.517-6.889c-.759-.443-.569.189-.569.189" fill="#f64d25"/><path d="M596.612,1043.133a3.855,3.855,0,0,1-.81-.074l.549-2.933a5.413,5.413,0,0,1,.855-.059c.811,0,1.476.31,1.476,1.253a1.892,1.892,0,0,1-2.07,1.813m.436-4.121a9.328,9.328,0,0,0-2.112.209l-1.52,8.122h1.7l.555-2.973c.181.012.422.048.712.048a4.211,4.211,0,0,0,2.606-.774,2.893,2.893,0,0,0,1.1-2.322,1.994,1.994,0,0,0-.881-1.757,3.748,3.748,0,0,0-2.161-.553" fill="#363636"/><path d="M601.917,1046.343c-.559,0-.824-.459-.824-1.129,0-1.27.949-2.861,2.247-2.861a2.8,2.8,0,0,1,.53.056l-.279,1.577c-.308,1.674-1.074,2.357-1.674,2.357m1.937-5.177a4.177,4.177,0,0,0-4.421,4.306,1.916,1.916,0,0,0,1.869,2.148,2.376,2.376,0,0,0,2.1-1.364h.025c-.025.442-.063.872-.076,1.225h1.667a15.121,15.121,0,0,1,.253-2.779l.619-3.233a7.086,7.086,0,0,0-2.033-.3" fill="#363636"/><path d="M615.248,1046.393a1.149,1.149,0,0,1-1.15-1.307c0-1.044.62-2.694,1.843-2.694a1.125,1.125,0,0,1,1.135,1.279c0,1.141-.663,2.722-1.813,2.722h-.015m.885-5.227a3.712,3.712,0,0,0-3.689,3.9,2.448,2.448,0,0,0,2.627,2.552h.013a3.681,3.681,0,0,0,3.675-3.9,2.458,2.458,0,0,0-2.626-2.551" fill="#363636"/><path d="M623.6,1041.166a2.625,2.625,0,0,0-2.16,1.161h-.025l.113-1.023h-1.6c-.076.556-.177,1.226-.329,2.009l-.783,4.168h1.819l.506-2.741c.265-1.364.947-2.11,1.54-2.11.468,0,.62.3.62.746a4.009,4.009,0,0,1-.064.682l-.644,3.423h1.819l.682-3.588a7.445,7.445,0,0,0,.1-1.035,1.5,1.5,0,0,0-1.591-1.692" fill="#363636"/><path d="M627.365,1043.9h-.149a1.872,1.872,0,0,1,1.76-1.547c.505,0,.811.261.811.628V1043c0,.669-.807.9-2.422.9m1.756-2.737a3.709,3.709,0,0,0-3.6,3.839,2.4,2.4,0,0,0,2.678,2.615,5.337,5.337,0,0,0,2.3-.492l-.126-1.314a3.894,3.894,0,0,1-1.73.391,1.424,1.424,0,0,1-1.187-.48,1.212,1.212,0,0,1-.19-.631c.122,0,.241.005.358.005,2.264,0,3.645-.587,3.645-2.077a1.9,1.9,0,0,0-2.146-1.856" fill="#363636"/><path d="M633.151,1043.9H633a1.872,1.872,0,0,1,1.76-1.547c.505,0,.811.261.811.628V1043c0,.669-.808.9-2.422.9m1.756-2.737a3.71,3.71,0,0,0-3.6,3.839,2.4,2.4,0,0,0,2.677,2.615,5.339,5.339,0,0,0,2.3-.492l-.126-1.314a3.9,3.9,0,0,1-1.731.391,1.424,1.424,0,0,1-1.187-.48,1.211,1.211,0,0,1-.19-.631c.122,0,.242.005.359.005,2.264,0,3.646-.587,3.646-2.077a1.906,1.906,0,0,0-2.147-1.856" fill="#363636"/><path d="M641.179,1041.153c-.846,0-1.343.593-1.772,1.427h-.05c.05-.442.087-.859.113-1.276H637.9a15.926,15.926,0,0,1-.226,2.892l-.709,3.285h1.517l.395-2.3c.227-1.213.835-2.447,1.985-2.447a1.673,1.673,0,0,1,.277.014l.378-1.583c-.1,0-.215-.013-.342-.013" fill="#363636"/></g></svg>