<svg xmlns="http://www.w3.org/2000/svg" width="70" height="40" viewBox="0 0 70 40"><g transform="translate(-422.469 -1022.692)"><rect width="70" height="40" rx="4.32" transform="translate(422.469 1022.692)" fill="#fff"/><path d="M439.995,1036.44a2.49,2.49,0,0,1,2.753,2.9c-.229,2.457-1.553,3.825-3.635,3.83H437.3c-.262,0-.388.213-.457.651l-.35,2.236c-.053.338-.226.5-.482.5h-1.692c-.27,0-.364-.173-.3-.558l1.4-8.963c.068-.44.237-.6.536-.6Zm-2.755,4.8h1.378c.861-.032,1.434-.629,1.491-1.705a1.039,1.039,0,0,0-1.128-1.137l-1.3.005-.444,2.837Zm10.107,4.64c.154-.14.312-.213.289-.04l-.055.416c-.028.216.058.332.26.332h1.5c.252,0,.376-.1.438-.494l.926-5.813c.047-.292-.024-.435-.246-.435H448.81c-.149,0-.221.083-.26.311l-.061.358c-.032.187-.118.219-.2.031-.281-.664-1-.962-2-.941a4.135,4.135,0,0,0-4.048,4.063,2.793,2.793,0,0,0,2.769,3.115,2.985,2.985,0,0,0,2.333-.9Zm-1.258-.893a1.509,1.509,0,0,1-1.548-1.771,2.158,2.158,0,0,1,2.075-1.772,1.509,1.509,0,0,1,1.548,1.772,2.157,2.157,0,0,1-2.075,1.771Zm7.563-5.16h-1.519c-.315,0-.442.23-.342.523l1.892,5.541-1.865,2.636c-.155.22-.035.421.184.421h1.713a.525.525,0,0,0,.51-.25l5.819-8.348c.179-.257.1-.526-.2-.526l-1.62,0c-.278,0-.39.11-.549.341l-2.427,3.522-1.08-3.528A.468.468,0,0,0,453.652,1039.824Z" fill="#113984" fill-rule="evenodd"/><path d="M466.1,1036.44a2.49,2.49,0,0,1,2.753,2.9c-.229,2.457-1.553,3.825-3.635,3.83H463.4c-.262,0-.388.213-.456.651l-.351,2.236c-.053.338-.226.5-.482.5H460.42c-.27,0-.364-.173-.3-.558l1.4-8.963c.068-.44.237-.6.536-.6Zm-2.755,4.8h1.378c.861-.032,1.434-.629,1.492-1.705a1.041,1.041,0,0,0-1.129-1.137l-1.3.005-.444,2.837Zm10.107,4.64c.154-.14.312-.213.289-.04l-.055.416c-.028.216.058.332.26.332h1.5c.252,0,.376-.1.438-.494l.926-5.813c.047-.292-.024-.435-.246-.435h-1.652c-.149,0-.221.083-.26.311l-.061.358c-.032.187-.118.219-.2.031-.281-.664-1-.962-2-.941a4.135,4.135,0,0,0-4.048,4.063,2.794,2.794,0,0,0,2.769,3.115,2.985,2.985,0,0,0,2.333-.9Zm-1.258-.893a1.509,1.509,0,0,1-1.548-1.771,2.158,2.158,0,0,1,2.075-1.772,1.51,1.51,0,0,1,1.549,1.772,2.159,2.159,0,0,1-2.076,1.771Zm6.933,1.611h-1.735a.2.2,0,0,1-.213-.24l1.526-9.655a.3.3,0,0,1,.288-.24h1.735a.2.2,0,0,1,.212.24l-1.525,9.655A.3.3,0,0,1,479.127,1046.595Z" fill="#009de2" fill-rule="evenodd"/></g></svg>