<svg xmlns="http://www.w3.org/2000/svg" width="70" height="40" viewBox="0 0 70 40"><g transform="translate(-262.469 -1022.692)"><rect width="70" height="40" rx="4.32" transform="translate(262.469 1022.692)" fill="#fff"/><path d="M295.014,1048.48H292l1.882-11.567H296.9Z" fill="#0066b2"/><path d="M289.47,1036.913l-2.872,7.955-.339-1.713h0l-1.013-5.2a1.29,1.29,0,0,0-1.429-1.041h-4.746l-.055.2a11.247,11.247,0,0,1,3.149,1.323l2.617,10.049h3.137l4.792-11.567Z" fill="#0066b2"/><path d="M313.156,1048.48h2.765l-2.41-11.567h-2.422a1.383,1.383,0,0,0-1.39.862l-4.491,10.7h3.139l.628-1.718H312.8Zm-3.313-4.092,1.582-4.329.89,4.329Z" fill="#0066b2"/><path d="M305.444,1039.694l.429-2.484a8.7,8.7,0,0,0-2.708-.5c-1.495,0-5.044.653-5.044,3.829,0,2.989,4.166,3.026,4.166,4.595s-3.736,1.288-4.969.3l-.448,2.6a8.432,8.432,0,0,0,3.4.654c2.055,0,5.156-1.065,5.156-3.96,0-3.008-4.2-3.288-4.2-4.595S304.155,1038.984,305.444,1039.694Z" fill="#0066b2"/><path d="M286.259,1043.156l-1.013-5.2a1.29,1.29,0,0,0-1.429-1.041h-4.746l-.055.2a11.666,11.666,0,0,1,4.469,2.245A9.018,9.018,0,0,1,286.259,1043.156Z" fill="#f9a533"/></g></svg>