<svg xmlns="http://www.w3.org/2000/svg" width="50" height="49.564" viewBox="0 0 50 49.564">
  <g id="Group_1159" data-name="Group 1159" transform="translate(-577.5 -2040)">
    <g id="_24_icon" data-name="24 icon" transform="translate(459.72 1560.249)">
      <path id="Path_30" data-name="Path 30" d="M162.728,524.3h.007a.742.742,0,0,0,.742-.736c0-.34.009-1.037.015-1.89h.4a.742.742,0,1,0,0-1.484h-.39c.013-2.2.021-4.65-.005-4.973a1.378,1.378,0,0,0-.9-1.247,1.286,1.286,0,0,0-1.416.533c-.505.619-3.022,5.165-3.521,6.07a.743.743,0,0,0,.65,1.1h3.7c0,.665-.01,1.306-.015,1.877A.742.742,0,0,0,162.728,524.3Zm-3.162-4.11c.976-1.752,1.959-3.478,2.462-4.3.006.857,0,2.547-.011,4.3Z" fill="#20d3c2"/>
      <path id="Path_31" data-name="Path 31" d="M154.263,518.916c-1.412,2.017-2.255,3.121-2.708,3.714-.545.714-.728.954-.6,1.382a.787.787,0,0,0,.512.517c.359.119,3.725.065,4.778.052a.742.742,0,0,0-.019-1.484c-1.117.014-2.313.022-3.179.02.5-.659,1.278-1.706,2.429-3.35a5.575,5.575,0,0,0,1.124-2.7,3.018,3.018,0,0,0-5.98-.584.742.742,0,0,0,1.457.286,1.534,1.534,0,0,1,3.039.255,3.662,3.662,0,0,1-.856,1.893Z" fill="#20d3c2"/>
      <path id="Path_32" data-name="Path 32" d="M152,492a.742.742,0,0,0,1.05,0l.859-.859a17.444,17.444,0,0,1,4.624,11.845c0,.372-.012.745-.036,1.117l-.733-.839a.742.742,0,0,0-1.117.978l1.783,2.039a.755.755,0,0,0,1.064.194l2.285-1.647a.744.744,0,0,0,.168-1.037h0a.742.742,0,0,0-1.036-.167l-.94.677q.045-.657.046-1.315a18.982,18.982,0,1,0-15.063,18.593.742.742,0,1,0-.307-1.452,17.664,17.664,0,0,1-2.89.36v-1.224a.742.742,0,1,0-1.484,0v1.224a17.45,17.45,0,0,1-11.1-4.607l.859-.86a.742.742,0,0,0-1.049-1.049l-.86.859a17.453,17.453,0,0,1-4.607-11.1h1.224a.742.742,0,0,0,0-1.484h-1.223a17.451,17.451,0,0,1,4.606-11.1l.86.86a.742.742,0,0,0,1.049-1.05l-.859-.859a17.45,17.45,0,0,1,11.1-4.607v1.223a.742.742,0,0,0,1.484,0v-1.223a17.45,17.45,0,0,1,11.1,4.607l-.86.86A.743.743,0,0,0,152,492Z" fill="#20d3c2"/>
      <path id="Path_33" data-name="Path 33" d="M149.46,502.245h-5.535a3.012,3.012,0,0,0-2.166-2.166v-8.6a.742.742,0,1,0-1.484,0v8.6a3,3,0,1,0,3.65,3.651h5.535a.743.743,0,0,0,0-1.485Zm-8.443,2.26a1.518,1.518,0,1,1,1.517-1.518A1.519,1.519,0,0,1,141.017,504.505Z" fill="#20d3c2"/>
      <path id="Path_34" data-name="Path 34" d="M167.038,518.332Z" fill="#20d3c2"/>
      <path id="Path_35" data-name="Path 35" d="M167.038,520.317a.742.742,0,0,0-.742.742v3.7a3.073,3.073,0,0,1-3.07,3.07H151.92a3.073,3.073,0,0,1-3.069-3.07v-11.3a3.073,3.073,0,0,1,3.069-3.07h11.306a3.073,3.073,0,0,1,3.07,3.07v4.134a.742.742,0,0,0,1.484,0v-4.134a4.56,4.56,0,0,0-4.289-4.546A23.216,23.216,0,1,0,147.4,525.334a4.559,4.559,0,0,0,4.517,3.981h11.3a4.559,4.559,0,0,0,4.554-4.554v-3.7A.742.742,0,0,0,167.038,520.317Zm-19.672-6.861h0V523.8A21.733,21.733,0,1,1,161.955,508.9H151.92A4.559,4.559,0,0,0,147.366,513.456Z" fill="#20d3c2"/>
    </g>
  </g>
</svg>
