<svg id="Group_642" data-name="Group 642" xmlns="http://www.w3.org/2000/svg" width="16.765" height="15.999" viewBox="0 0 16.765 15.999">
  <g id="Group_42" data-name="Group 42">
    <g id="Path_59" data-name="Path 59" transform="translate(-202.364 -654.259)" fill="#fff">
      <path d="M 215.2094116210938 669.7579956054688 C 215.1047210693359 669.7579956054688 214.9998779296875 669.73193359375 214.90625 669.6826782226563 L 210.9734039306641 667.6146850585938 L 210.7403869628906 667.4921875 L 210.5075073242188 667.6149291992188 L 206.5851898193359 669.682861328125 C 206.4923400878906 669.7318115234375 206.3873596191406 669.7576904296875 206.28173828125 669.7576904296875 C 206.1425628662109 669.7576904296875 206.0093536376953 669.7146606445313 205.8965301513672 669.6332397460938 C 205.6987915039063 669.4895629882813 205.5969696044922 669.238525390625 205.6385040283203 668.9947509765625 L 206.3880157470703 664.6168212890625 L 206.4324340820313 664.357421875 L 206.2436981201172 664.1739501953125 L 203.0621490478516 661.0811767578125 C 202.8822937011719 660.9067993164063 202.8189544677734 660.65087890625 202.8963623046875 660.4127197265625 C 202.9719848632813 660.17822265625 203.1783142089844 660.0044555664063 203.4223785400391 659.968994140625 L 207.8120727539063 659.3289794921875 L 208.0719299316406 659.2911376953125 L 208.188232421875 659.0556640625 L 210.1562042236328 655.0716552734375 C 210.2696990966797 654.8411865234375 210.5325012207031 654.75927734375 210.7407073974609 654.75927734375 C 210.9488983154297 654.75927734375 211.2117004394531 654.8411865234375 211.3249206542969 655.0711059570313 L 213.2931518554688 659.0556640625 L 213.4095306396484 659.291259765625 L 213.6695709228516 659.3290405273438 L 218.0694885253906 659.9681396484375 C 218.3172607421875 660.004638671875 218.5197906494141 660.175048828125 218.5970306396484 660.4127197265625 C 218.6736297607422 660.64794921875 218.6090850830078 660.90966796875 218.4326782226563 661.0797729492188 L 215.2496490478516 664.1748046875 L 215.0609588623047 664.3582763671875 L 215.1053771972656 664.61767578125 L 215.8549652099609 668.9951782226563 C 215.8969116210938 669.24169921875 215.7971954345703 669.487060546875 215.5946502685547 669.6348876953125 C 215.4834442138672 669.7145385742188 215.3490295410156 669.7579956054688 215.2094116210938 669.7579956054688 Z" stroke="none"/>
      <path d="M 210.7406921386719 655.25927734375 C 210.6620941162109 655.25927734375 210.6120452880859 655.2857055664063 210.6044921875 655.2930908203125 L 208.6365203857422 659.277099609375 L 208.4039306640625 659.7479858398438 L 207.8842163085938 659.8237915039063 L 203.4943389892578 660.4637451171875 C 203.4375610351563 660.4720458984375 203.3897857666016 660.5117797851563 203.3718719482422 660.5673217773438 C 203.3539276123047 660.62255859375 203.368408203125 660.6817016601563 203.4106597900391 660.72265625 L 206.5922088623047 663.8154296875 L 206.9696807861328 664.182373046875 L 206.8808441162109 664.7012329101563 L 206.1313934326172 669.0787353515625 C 206.1215209960938 669.1366577148438 206.1452789306641 669.1959228515625 206.1890716552734 669.227783203125 C 206.2233276367188 669.2525024414063 206.2583770751953 669.2576904296875 206.28173828125 669.2576904296875 C 206.3068084716797 669.2576904296875 206.3305511474609 669.2518920898438 206.3520050048828 669.2406005859375 L 210.2743377685547 667.1726684570313 L 210.7400817871094 666.9271240234375 L 211.2061157226563 667.172119140625 L 215.1390686035156 669.2401733398438 C 215.1615142822266 669.2520141601563 215.1851806640625 669.2579956054688 215.2094116210938 669.2579956054688 C 215.2326965332031 669.2579956054688 215.2675476074219 669.2528076171875 215.3032684326172 669.2284545898438 C 215.3492889404297 669.1929931640625 215.3717346191406 669.1359252929688 215.3621368408203 669.0795288085938 L 214.612548828125 664.7020263671875 L 214.5237121582031 664.1832275390625 L 214.9010772705078 663.8163452148438 L 218.0856170654297 660.7198486328125 C 218.1245727539063 660.6823120117188 218.1390686035156 660.6212158203125 218.1215057373047 660.5672607421875 C 218.1033782958984 660.5115356445313 218.0551300048828 660.471435546875 217.9976196289063 660.4629516601563 L 213.5977020263672 659.8238525390625 L 213.0776214599609 659.748291015625 L 212.8448638916016 659.277099609375 L 210.8786926269531 655.2953491210938 C 210.8693542480469 655.2857055664063 210.8193054199219 655.25927734375 210.7406921386719 655.25927734375 M 210.7406921386719 654.25927734375 C 211.1600952148438 654.25927734375 211.5794830322266 654.4562377929688 211.7734832763672 654.8502197265625 L 213.7414398193359 658.834228515625 L 218.141357421875 659.4733276367188 C 218.5757446289063 659.537353515625 218.9365539550781 659.8397216796875 219.0725402832031 660.2581787109375 C 219.2085418701172 660.67578125 219.0941314697266 661.1365356445313 218.7797546386719 661.439697265625 L 215.5982055664063 664.5332641601563 L 216.3477935791016 668.9107666015625 C 216.4214019775391 669.3435668945313 216.2445983886719 669.779541015625 215.889404296875 670.0387573242188 C 215.6862030029297 670.1843872070313 215.4477996826172 670.2579956054688 215.2094116210938 670.2579956054688 C 215.0262145996094 670.2579956054688 214.8422241210938 670.2139892578125 214.6734313964844 670.1251831054688 L 210.7407073974609 668.0572509765625 L 206.8183746337891 670.1251831054688 C 206.6499176025391 670.2139282226563 206.4655914306641 670.2576904296875 206.28173828125 670.2576904296875 C 206.0430145263672 670.2576904296875 205.8050994873047 670.183837890625 205.6039886474609 670.0387573242188 C 205.2495880126953 669.7811889648438 205.0719909667969 669.3427734375 205.1455993652344 668.9107666015625 L 205.8951873779297 664.532470703125 L 202.7136383056641 661.439697265625 C 202.3984527587891 661.1341552734375 202.2848510742188 660.6765747070313 202.4208526611328 660.2581787109375 C 202.5552368164063 659.8413696289063 202.9160461425781 659.537353515625 203.3504333496094 659.4741821289063 L 207.7399444580078 658.834228515625 L 209.7079162597656 654.8502197265625 C 209.9019165039063 654.4562377929688 210.3213043212891 654.25927734375 210.7406921386719 654.25927734375 Z" stroke="none" fill="#aaa"/>
    </g>
  </g>
</svg>
