<svg xmlns="http://www.w3.org/2000/svg" width="25" height="25" viewBox="0 0 25 25">
  <path id="Facebook" d="M111.633,149H93.371A3.369,3.369,0,0,0,90,152.369v18.262A3.369,3.369,0,0,0,93.371,174h9.007l.015-8.934h-2.321a.548.548,0,0,1-.548-.546l-.011-2.88a.548.548,0,0,1,.548-.55h2.317v-2.783c0-3.229,1.972-4.987,4.853-4.987h2.364a.548.548,0,0,1,.548.548V156.3a.548.548,0,0,1-.547.548h-1.451c-1.567,0-1.87.744-1.87,1.837v2.409h3.442a.548.548,0,0,1,.544.612l-.341,2.88a.548.548,0,0,1-.544.483h-3.086L106.274,174h5.359A3.369,3.369,0,0,0,115,170.631V152.369A3.369,3.369,0,0,0,111.633,149Z" transform="translate(-90.002 -149)" fill="#fff"/>
</svg>
