<svg xmlns="http://www.w3.org/2000/svg" width="90.501" height="16" viewBox="0 0 90.501 16">
  <g id="Group_1160" data-name="Group 1160" transform="translate(-865 -1106)">
    <g id="Group_37" data-name="Group 37" transform="translate(865 1106.001)">
      <g id="Group_1159" data-name="Group 1159">
        <g id="Group_36" data-name="Group 36">
          <path id="Path_56" data-name="Path 56" d="M149.944,660.26a1.153,1.153,0,0,0-.931-.785l-4.4-.64-1.968-3.984a1.2,1.2,0,0,0-2.066,0l-1.968,3.984-4.39.64a1.152,1.152,0,0,0-.637,1.966l3.182,3.094-.75,4.378a1.152,1.152,0,0,0,1.673,1.214l3.922-2.069,3.934,2.069a1.159,1.159,0,0,0,.536.132,1.172,1.172,0,0,0,.68-.218,1.157,1.157,0,0,0,.458-1.128l-.75-4.378,3.182-3.094A1.15,1.15,0,0,0,149.944,660.26Z" transform="translate(-133.235 -654.26)" fill="#20d3c2"/>
        </g>
      </g>
    </g>
    <g id="Group_39" data-name="Group 39" transform="translate(883.434 1106.001)">
      <g id="Group_38" data-name="Group 38" transform="translate(0)">
        <path id="Path_57" data-name="Path 57" d="M172.987,660.26a1.153,1.153,0,0,0-.931-.785l-4.4-.64-1.968-3.984a1.2,1.2,0,0,0-2.066,0l-1.968,3.984-4.39.64a1.152,1.152,0,0,0-.638,1.966l3.182,3.094-.75,4.378a1.152,1.152,0,0,0,1.673,1.214l3.922-2.069,3.934,2.069a1.157,1.157,0,0,0,.536.132,1.172,1.172,0,0,0,.68-.218,1.157,1.157,0,0,0,.458-1.128l-.75-4.378,3.182-3.094A1.15,1.15,0,0,0,172.987,660.26Z" transform="translate(-156.278 -654.26)" fill="#20d3c2"/>
      </g>
    </g>
    <g id="Group_41" data-name="Group 41" transform="translate(901.868 1106.001)">
      <g id="Group_40" data-name="Group 40">
        <path id="Path_58" data-name="Path 58" d="M196.029,660.26a1.153,1.153,0,0,0-.931-.785l-4.4-.64-1.968-3.984a1.2,1.2,0,0,0-2.066,0l-1.968,3.984-4.39.64a1.152,1.152,0,0,0-.638,1.966l3.182,3.094-.75,4.378a1.152,1.152,0,0,0,1.673,1.214l3.922-2.069,3.934,2.069a1.159,1.159,0,0,0,.536.132,1.172,1.172,0,0,0,.68-.218,1.157,1.157,0,0,0,.458-1.128l-.75-4.378,3.182-3.094A1.15,1.15,0,0,0,196.029,660.26Z" transform="translate(-179.321 -654.26)" fill="#20d3c2"/>
      </g>
    </g>
    <g id="Group_43" data-name="Group 43" transform="translate(920.302 1106)">
      <g id="Group_42" data-name="Group 42">
        <path id="Path_59" data-name="Path 59" d="M219.073,660.258a1.154,1.154,0,0,0-.931-.785l-4.4-.639-1.968-3.984a1.2,1.2,0,0,0-2.066,0l-1.968,3.984-4.39.64a1.152,1.152,0,0,0-.637,1.966l3.182,3.093-.75,4.378a1.152,1.152,0,0,0,1.673,1.214l3.922-2.068,3.933,2.068a1.15,1.15,0,0,0,.536.133,1.167,1.167,0,0,0,.68-.219,1.155,1.155,0,0,0,.458-1.128l-.75-4.378,3.182-3.094A1.15,1.15,0,0,0,219.073,660.258Z" transform="translate(-202.364 -654.259)" fill="#20d3c2"/>
      </g>
    </g>
    <g id="Group_45" data-name="Group 45" transform="translate(938.736 1106.002)">
      <g id="Group_44" data-name="Group 44">
        <path id="Path_60" data-name="Path 60" d="M242.116,660.26a1.153,1.153,0,0,0-.931-.785l-4.4-.639-1.968-3.984a1.2,1.2,0,0,0-2.066,0l-1.968,3.984-4.39.639a1.152,1.152,0,0,0-.637,1.966l3.182,3.094-.75,4.378a1.152,1.152,0,0,0,1.673,1.214l3.922-2.069,3.934,2.069a1.153,1.153,0,0,0,.535.132,1.172,1.172,0,0,0,.68-.218,1.156,1.156,0,0,0,.458-1.128l-.75-4.378,3.182-3.094A1.151,1.151,0,0,0,242.116,660.26ZM236.6,663.3a1.154,1.154,0,0,0-.333,1.021l.458,2.675-2.4-1.264a1.154,1.154,0,0,0-1.072,0L230.854,667l.459-2.672a1.153,1.153,0,0,0-.334-1.021l-1.94-1.886,2.674-.39a1.152,1.152,0,0,0,.866-.63l1.2-2.434,1.2,2.434a1.15,1.15,0,0,0,.867.63l2.685.39Z" transform="translate(-225.407 -654.261)" fill="#20d3c2"/>
      </g>
    </g>
  </g>
</svg>
