<svg xmlns="http://www.w3.org/2000/svg" width="160" height="23.025" viewBox="0 0 160 23.025">
  <g id="Logo" transform="translate(-97.04 -125.434)">
    <path id="Path_1" data-name="Path 1" d="M97.04,125.434h2.347v8.641l9.2-8.641h3.091l-11.058,10.331,11.919,12.694h-3.065L99.387,137.735v10.724H97.04Z" fill="#0e153d"/>
    <path id="Path_2" data-name="Path 2" d="M116,125.434H129.19v2.254H118.3V134.9h10.8v2.254H118.3v9.047h10.8v2.254H116Z" fill="#0e153d"/>
    <path id="Path_3" data-name="Path 3" d="M133.181,148.459V125.434h.5l15.324,17.65v-17.65h2.27v23.025h-.517l-15.2-17.434v17.434Z" fill="#0e153d"/>
    <path id="Path_4" data-name="Path 4" d="M180.593,125.434h2.348v8.641l9.2-8.641h3.092l-11.059,10.331L196.1,148.459h-3.065l-10.09-10.724v10.724h-2.348Z" fill="#0e153d"/>
    <path id="Path_5" data-name="Path 5" d="M208.939,125.434l10.738,23.025h-2.485l-3.622-7.576h-9.919l-3.587,7.576H197.5l10.879-23.025Zm-.291,4.892-3.945,8.335h7.872Z" fill="#0e153d"/>
    <path id="Path_6" data-name="Path 6" d="M220.961,127.688v-2.254h12.615v2.254h-5.134v20.771H226.1V127.688Z" fill="#0e153d"/>
    <path id="Path_7" data-name="Path 7" d="M246.3,125.434l10.738,23.025h-2.485l-3.623-7.576h-9.918l-3.587,7.576H234.86l10.878-23.025Zm-.291,4.892-3.946,8.335h7.872Z" fill="#0e153d"/>
    <path id="Path_8" data-name="Path 8" d="M166.286,125.434h-.563l-10.879,23.025h22.18Zm-.291,4.892,3.927,8.335H162.05Z" fill="#20d3c2"/>
  </g>
</svg>
