<svg xmlns="http://www.w3.org/2000/svg" width="1110.46" height="44.865" viewBox="0 0 1110.46 44.865">
  <g id="Brand" transform="translate(-405 -7532)">
    <g id="Bexim" transform="translate(405 7532)">
      <g id="Group_77" data-name="Group 77" transform="translate(55.991 7.68)">
        <path id="Path_100" data-name="Path 100" d="M217.434,250.358a3.015,3.015,0,0,1,.9-2.146,2.87,2.87,0,0,1,2.147-.937,3.058,3.058,0,0,1,2.185.9,2.911,2.911,0,0,1,.937,2.186,2.955,2.955,0,0,1-.918,2.166,3,3,0,0,1-2.2.917,2.876,2.876,0,0,1-2.166-.917A3.025,3.025,0,0,1,217.434,250.358Z" transform="translate(-155.3 -247.275)" fill="#ff7f62"/>
        <g id="Group_76" data-name="Group 76" transform="translate(0 2.381)">
          <path id="Path_101" data-name="Path 101" d="M148.188,276.507V249.928h10.07a10.109,10.109,0,0,1,5.346,1.21,5.089,5.089,0,0,1,2.42,4.683,5.527,5.527,0,0,1-1.951,4.332,8.305,8.305,0,0,1-4.451,1.913v.351a9.579,9.579,0,0,1,4.567,1.483,5.674,5.674,0,0,1,2.46,4.957,6.718,6.718,0,0,1-2.967,5.854,11.061,11.061,0,0,1-6.478,1.8Zm5.854-24.277V261.4h1.211a7.609,7.609,0,0,0,1.853-.194,3.436,3.436,0,0,0,1.425-.777,4.472,4.472,0,0,0,1.269-1.789,6.145,6.145,0,0,0,.41-2.254,4.394,4.394,0,0,0-1.093-3.186,4.1,4.1,0,0,0-3.085-1.127A13.749,13.749,0,0,0,154.042,252.23Zm0,11.437v10.576h1.952a4.457,4.457,0,0,0,3.181-1.385,4.959,4.959,0,0,0,1.425-3.726q0-3.046-1.717-4.333A8.189,8.189,0,0,0,154.042,263.667Z" transform="translate(-148.188 -249.928)" fill="#0e153d"/>
          <path id="Path_102" data-name="Path 102" d="M189.789,268.115H178.627a9.567,9.567,0,0,0,1.132,5.151,4.687,4.687,0,0,0,4.293,2.108,6.384,6.384,0,0,0,2.381-.468,8.491,8.491,0,0,0,2.186-1.289l.467.352-.858,2.185a9.478,9.478,0,0,1-5.581,1.757q-4.8,0-7.3-2.694t-2.5-7.57a9.585,9.585,0,0,1,2.4-6.772,8.471,8.471,0,0,1,6.539-2.6q4.333,0,6.283,2.81Q189.791,263.548,189.789,268.115Zm-11.162-1.874H184.4a15.336,15.336,0,0,0-.391-3.864q-.625-2.343-2.186-2.342-1.872,0-2.654,2.3A12.172,12.172,0,0,0,178.627,266.242Z" transform="translate(-150.721 -250.786)" fill="#0e153d"/>
          <path id="Path_103" data-name="Path 103" d="M205.365,277.6l-3.747-6.791q-.507.79-2.145,3.317-1.446,2.249-2.187,3.473l-1.56-.195-1.562.195,6.207-8.665q-1.6-2.863-3.669-6.312-.117-.2-2.381-3.961.664,0,1.8.1t1.367.1q.7,0,1.833-.1c.755-.069,1.211-.1,1.367-.1q.818,1.525,1.7,3.147t1.658,2.991q.976-1.407,2.07-3.01.9-1.327,1.99-3.127l1.755.126,1.757-.126q-1.716,2.07-3.317,4.1-1.405,1.8-3.044,3.945l2.146,3.671q2.145,3.631,4.331,7.223-.664,0-1.794-.1c-.756-.066-1.224-.1-1.406-.1q-.664,0-1.8.1T205.365,277.6Z" transform="translate(-152.91 -250.825)" fill="#0e153d"/>
          <path id="Path_104" data-name="Path 104" d="M217.87,277.6V258.671q.664.078,1.5.136c.559.039.955.058,1.191.058a13.977,13.977,0,0,0,1.56-.078q.7-.078,1.133-.117V277.6a9.349,9.349,0,0,0-.977-.078q-1.365-.116-1.716-.117a14.225,14.225,0,0,0-1.562.078C218.534,277.535,218.155,277.574,217.87,277.6Z" transform="translate(-155.345 -250.826)" fill="#0e153d"/>
          <path id="Path_105" data-name="Path 105" d="M229.221,277.559V258.631c.443.052.943.1,1.5.136s.957.058,1.191.058a14.014,14.014,0,0,0,1.561-.078q.7-.078,1.132-.117v2.927a6.647,6.647,0,0,1,2.439-2.361,6.482,6.482,0,0,1,3.3-.918,5.611,5.611,0,0,1,3.2.918,5.21,5.21,0,0,1,1.99,2.634,8.619,8.619,0,0,1,2.5-2.537,6.3,6.3,0,0,1,3.436-1.015,5.716,5.716,0,0,1,4.721,1.835,7.776,7.776,0,0,1,1.367,5v12.45a9.325,9.325,0,0,0-.975-.078q-1.368-.116-1.717-.117a14.255,14.255,0,0,0-1.562.078q-.7.078-1.132.117V266.983q0-3.24-.721-4.332a2.389,2.389,0,0,0-2.128-1.093,2.892,2.892,0,0,0-2.654,1.171,5.882,5.882,0,0,0-.585,3.006v11.825a9.325,9.325,0,0,0-.975-.078q-1.367-.116-1.717-.117a14.256,14.256,0,0,0-1.562.078q-.7.078-1.131.117V266.983q0-3.24-.721-4.332a2.389,2.389,0,0,0-2.127-1.093,2.723,2.723,0,0,0-2.616,1.483,6.666,6.666,0,0,0-.623,3.123v11.4a9.356,9.356,0,0,0-.976-.078q-1.367-.116-1.717-.117a14.239,14.239,0,0,0-1.561.078Q229.651,277.521,229.221,277.559Z" transform="translate(-156.51 -250.786)" fill="#0e153d"/>
        </g>
      </g>
      <g id="Group_78" data-name="Group 78" transform="translate(0 0)">
        <path id="Path_106" data-name="Path 106" d="M111.952,239.052a22.426,22.426,0,0,0-24.4,30.833q.821-.583,1.673-1.123A37.892,37.892,0,0,1,111.952,239.052Z" transform="translate(-85.788 -238.716)" fill="#ff7f62"/>
        <path id="Path_107" data-name="Path 107" d="M123.818,249.448a38.21,38.21,0,0,1,4.225.24,22.466,22.466,0,0,0-12.36-9.785,36.208,36.208,0,0,0-23.674,26.888A37.816,37.816,0,0,1,123.818,249.448Z" transform="translate(-86.427 -238.838)" fill="#ff7f62"/>
        <path id="Path_108" data-name="Path 108" d="M94.685,267.723a37.84,37.84,0,0,1,35.59,2.285,22.168,22.168,0,0,0-.921-17.108,36.019,36.019,0,0,0-34.67,14.822Z" transform="translate(-86.702 -240.133)" fill="#ff7f62"/>
        <path id="Path_109" data-name="Path 109" d="M91.193,276.888c0,.395.017.786.031,1.177a22.4,22.4,0,0,0,38.027-4.81,35.97,35.97,0,0,0-36.815-1.028c-.4.7-.788,1.412-1.145,2.141C91.233,275.2,91.193,276.041,91.193,276.888Z" transform="translate(-86.343 -241.688)" fill="#0e153d"/>
      </g>
    </g>
    <g id="Lighton" transform="translate(629 7532)">
      <g id="Group_80" data-name="Group 80" transform="translate(52.189 2.52)">
        <path id="Path_110" data-name="Path 110" d="M385.057,244.747v23.8q2.5,0,4.28-.117t4.671-.43c-.053.287-.1.586-.137.9a6.423,6.423,0,0,0-.058.782,6.2,6.2,0,0,0,.078.821c.052.365.091.651.118.86H379.2V244.747q.665,0,1.72.1c.7.066,1.106.1,1.211.1q.665,0,1.094-.039Q384.9,244.748,385.057,244.747Z" transform="translate(-379.195 -241.855)" fill="#2b246a"/>
        <path id="Path_111" data-name="Path 111" d="M400.1,245.178a3.019,3.019,0,0,1,.9-2.15,2.875,2.875,0,0,1,2.151-.939,3.065,3.065,0,0,1,2.189.9,2.919,2.919,0,0,1,.938,2.189,2.958,2.958,0,0,1-.92,2.168,3,3,0,0,1-2.206.919,2.881,2.881,0,0,1-2.17-.919A3.026,3.026,0,0,1,400.1,245.178Zm.392,26.107V252.33q.665.079,1.5.137c.561.039.957.058,1.193.058a14.249,14.249,0,0,0,1.563-.078q.7-.078,1.134-.118v18.955a9.366,9.366,0,0,0-.979-.078q-1.366-.117-1.718-.118a14.271,14.271,0,0,0-1.564.078C401.158,271.221,400.778,271.259,400.493,271.285Z" transform="translate(-381.342 -241.582)" fill="#2b246a"/>
        <path id="Path_112" data-name="Path 112" d="M428.519,253.228l-.039,1.8-3.518-.117a5.511,5.511,0,0,1,2.072,4.377,5.6,5.6,0,0,1-2.345,4.846,9.967,9.967,0,0,1-5.9,1.563h-.664a1.44,1.44,0,0,0-1.055.293,1.856,1.856,0,0,0-.371.528,1.191,1.191,0,0,0-.1.469,1.683,1.683,0,0,0,.86,1.583,4.667,4.667,0,0,0,2.307.488l3.36.118a6.1,6.1,0,0,1,4.456,1.407,4.923,4.923,0,0,1,1.25,3.635,7.28,7.28,0,0,1-3.2,6.292,11.884,11.884,0,0,1-7.074,2.033,11.105,11.105,0,0,1-5.08-1.056,4.411,4.411,0,0,1-2.7-4.142,4.334,4.334,0,0,1,.861-2.7,5.043,5.043,0,0,1,2.344-1.681l.587-.352-.273-.313a2.75,2.75,0,0,1-1.915-2.892,3.793,3.793,0,0,1,1-2.442,4.132,4.132,0,0,1,2.053-1.465l.587-.156q-4.967-1.174-4.965-6.254a4.944,4.944,0,0,1,2.325-4.553,12.294,12.294,0,0,1,6.431-1.427l3.986.118Zm-13.992,21.887a2.222,2.222,0,0,0-.156.664,7.6,7.6,0,0,0-.039.782,3.87,3.87,0,0,0,1.6,3.322,5.991,5.991,0,0,0,3.633,1.055,4.76,4.76,0,0,0,3.459-1.308,4.1,4.1,0,0,0,1.348-3.029,3.242,3.242,0,0,0-1.8-3.283,10.812,10.812,0,0,0-3.987-.508,6.824,6.824,0,0,0-2.539.352A2.654,2.654,0,0,0,414.526,275.114Zm2.071-15.36a6.551,6.551,0,0,0,.732,3.439,1.918,1.918,0,0,0,1.731,1.016q1.577,0,2.155-1.915a11.933,11.933,0,0,0,.345-3.283,8.633,8.633,0,0,0-.384-2.814,2.052,2.052,0,0,0-1.961-1.641q-1.618,0-2.232,1.915A10.95,10.95,0,0,0,416.6,259.755Z" transform="translate(-382.438 -242.714)" fill="#2b246a"/>
        <path id="Path_113" data-name="Path 113" d="M439.165,241.524v13.444a9.724,9.724,0,0,1,2.619-2.11,6.382,6.382,0,0,1,3.166-.939,6.28,6.28,0,0,1,4.573,1.8,4.661,4.661,0,0,1,1.328,2.11,10.876,10.876,0,0,1,.312,2.852v12.546a9.312,9.312,0,0,0-.976-.078q-1.367-.117-1.719-.118a14.218,14.218,0,0,0-1.563.078c-.468.053-.848.091-1.133.118V261.5a12.977,12.977,0,0,0-.548-4.495,2.666,2.666,0,0,0-2.658-1.8,3.007,3.007,0,0,0-3.048,2.579,18.985,18.985,0,0,0-.352,4.457v8.988a9.348,9.348,0,0,0-.976-.078q-1.37-.117-1.72-.118a14.27,14.27,0,0,0-1.564.078q-.7.079-1.133.118v-29.7c.443.052.944.1,1.5.136s.958.059,1.193.059a13.853,13.853,0,0,0,1.564-.079Q438.733,241.564,439.165,241.524Z" transform="translate(-384.8 -241.524)" fill="#2b246a"/>
        <path id="Path_114" data-name="Path 114" d="M464.342,255.225v11.138a7.8,7.8,0,0,0,.333,2.717q.332.8,1.582.8a6.5,6.5,0,0,0,1.72-.274v1.524a11.9,11.9,0,0,1-4.064.9,4.4,4.4,0,0,1-3.988-1.8,8.366,8.366,0,0,1-.977-4.533V255.225h-2.657a3.245,3.245,0,0,0,.078-.7v-1.8h2.579v-4.39q.978-.389,2.541-1.088t2.853-1.322v6.8h3.323c-.026.234-.047.476-.059.723s-.02.424-.02.528v1.251Z" transform="translate(-387.113 -241.976)" fill="#2b246a"/>
        <path id="Path_115" data-name="Path 115" d="M481.033,272.769a9.427,9.427,0,0,1-6.917-2.54,9.214,9.214,0,0,1-2.58-6.879,10.683,10.683,0,0,1,2.521-7.465,9,9,0,0,1,7.015-2.775,9.682,9.682,0,0,1,7.037,2.5,9.133,9.133,0,0,1,2.578,6.879,10.56,10.56,0,0,1-2.5,7.347A9.181,9.181,0,0,1,481.033,272.769Zm.275-17.9a3.308,3.308,0,0,0-3.167,2.423,21.668,21.668,0,0,0-.274,10.748q.9,2.971,3.166,2.97,2.071,0,3.048-2.931a19.676,19.676,0,0,0,.821-6.214,12.478,12.478,0,0,0-.781-4.924A3.013,3.013,0,0,0,481.308,254.87Z" transform="translate(-388.679 -242.714)" fill="#2b246a"/>
        <path id="Path_116" data-name="Path 116" d="M496.71,272.417V253.462c.417.053.893.1,1.427.137s.931.058,1.193.058a12.7,12.7,0,0,0,1.5-.078c.431-.052.788-.092,1.075-.118v2.893a11.219,11.219,0,0,1,2.657-2.306,6.559,6.559,0,0,1,3.361-.939q3.479,0,4.924,2.149,1.25,1.839,1.251,5.707v11.451a9.326,9.326,0,0,0-.977-.078q-1.368-.117-1.718-.118a14.234,14.234,0,0,0-1.564.078c-.468.053-.848.091-1.133.118v-9.731a12.978,12.978,0,0,0-.548-4.495,2.666,2.666,0,0,0-2.658-1.8q-2.226,0-2.97,2.579a17.185,17.185,0,0,0-.429,4.457v8.988a9.36,9.36,0,0,0-.977-.078q-1.37-.117-1.72-.118a14.293,14.293,0,0,0-1.564.078Q497.141,272.379,496.71,272.417Z" transform="translate(-391.264 -242.714)" fill="#2b246a"/>
      </g>
      <g id="Group_81" data-name="Group 81" transform="translate(0 0)">
        <path id="Path_117" data-name="Path 117" d="M321.032,254.852v20.673a9.992,9.992,0,0,0,9.992-9.991V244.86A9.992,9.992,0,0,0,321.032,254.852Z" transform="translate(-321.032 -239.347)" fill="#20d3c2"/>
        <path id="Path_118" data-name="Path 118" d="M338.311,248.708v29.876a5,5,0,0,0,9.992,0V238.716A9.993,9.993,0,0,0,338.311,248.708Z" transform="translate(-322.807 -238.716)" fill="#20d3c2"/>
        <path id="Path_119" data-name="Path 119" d="M355.591,253.308V266.4a9.992,9.992,0,0,0,9.992,9.991V263.3A9.993,9.993,0,0,0,355.591,253.308Z" transform="translate(-324.581 -240.215)" fill="#20d3c2"/>
      </g>
    </g>
    <g id="Dismis" transform="translate(872 7536)">
      <g id="Group_83" data-name="Group 83" transform="translate(0 0)">
        <path id="Path_120" data-name="Path 120" d="M563.83,242.842a18.73,18.73,0,0,1,0,37.46Z" transform="translate(-563.83 -242.842)" fill="#404da1"/>
        <path id="Path_121" data-name="Path 121" d="M605.309,242.842a18.73,18.73,0,1,0,0,37.46Z" transform="translate(-566.166 -242.842)" fill="#ef496b"/>
      </g>
      <g id="Group_84" data-name="Group 84" transform="translate(49.864 8.375)">
        <path id="Path_122" data-name="Path 122" d="M619.4,252.176H636.16l6.571,10.379-6.571,10.331H619.4Zm6.19,3.047v14.616h6.285l4.714-7.284-4.714-7.332Z" transform="translate(-619.401 -252.176)" fill="#404da1"/>
        <path id="Path_123" data-name="Path 123" d="M654.774,252.176v20.711h-6.19V252.176Z" transform="translate(-622.398 -252.176)" fill="#404da1"/>
        <path id="Path_124" data-name="Path 124" d="M681.269,272.887H662.6l-2.666-3.047H676.6l1.095-1.286v-4.522h-16.95v-8.57l2.809-3.285H684.7l-2.619,3.047H668.27l-1.333,1.523v4.238h17.044v8.76Z" transform="translate(-623.564 -252.176)" fill="#404da1"/>
        <path id="Path_125" data-name="Path 125" d="M691.084,252.176l12.76,8.284,12.76-8.284v20.711h-6.142V261.031l-6.618,4.189-6.57-4.189v11.855h-6.19Z" transform="translate(-626.763 -252.176)" fill="#404da1"/>
        <path id="Path_126" data-name="Path 126" d="M731.074,252.176v20.711h-6.19V252.176Z" transform="translate(-630.234 -252.176)" fill="#404da1"/>
        <path id="Path_127" data-name="Path 127" d="M757.569,272.887H738.9l-2.666-3.047H752.9L754,268.553v-4.522H737.048v-8.57l2.809-3.285H761l-2.618,3.047H744.57l-1.332,1.523v4.238h17.044v8.76Z" transform="translate(-631.401 -252.176)" fill="#404da1"/>
      </g>
    </g>
    <g id="Rosimo" transform="translate(1118 7532)">
      <g id="Group_86" data-name="Group 86" transform="translate(55.125 11.653)">
        <path id="Path_128" data-name="Path 128" d="M1081.72,547.848V526.436h9.36a7.52,7.52,0,0,1,2.341.336,4.941,4.941,0,0,1,1.828,1.083,4.819,4.819,0,0,1,1.244,2.076,10.187,10.187,0,0,1,.438,3.174,11.921,11.921,0,0,1-.263,2.662,7.277,7.277,0,0,1-.585,1.741,3.486,3.486,0,0,1-.877,1.053,3.833,3.833,0,0,1-.849.571q-.294.117-.848.292l4.066,8.425h-4.622l-3.54-8.1-3.6-.409v8.513Zm4.124-11.73h4.855a3.461,3.461,0,0,0,.937-.1,1.306,1.306,0,0,0,.628-.424,2.071,2.071,0,0,0,.41-.922,7.517,7.517,0,0,0,.132-1.565,3.963,3.963,0,0,0-.527-2.384,1.9,1.9,0,0,0-1.58-.658h-4.855Z" transform="translate(-1081.72 -526.436)" fill="#1d1753"/>
        <path id="Path_129" data-name="Path 129" d="M1101.051,540.957a18.358,18.358,0,0,1,.351-3.949,5.257,5.257,0,0,1,1.228-2.486,4.754,4.754,0,0,1,2.18-1.316,12.114,12.114,0,0,1,3.321-.38q4.007,0,5.543,1.755t1.535,6.377q0,4.358-1.506,6.026t-5.571,1.667a12.385,12.385,0,0,1-2.8-.278,6.125,6.125,0,0,1-2.017-.833,4.053,4.053,0,0,1-1.331-1.477,7.119,7.119,0,0,1-.717-2.165A17.033,17.033,0,0,1,1101.051,540.957Zm4.1,0a14.929,14.929,0,0,0,.147,2.369,2.648,2.648,0,0,0,.54,1.332,1.694,1.694,0,0,0,.893.571,6.48,6.48,0,0,0,1.4.117,9.585,9.585,0,0,0,1.213-.058,2.162,2.162,0,0,0,.818-.293,1.4,1.4,0,0,0,.586-.731,5.347,5.347,0,0,0,.278-1.272,18.865,18.865,0,0,0,.088-2.033q0-1.345-.074-2.18a6.917,6.917,0,0,0-.249-1.4,1.432,1.432,0,0,0-.556-.818,2.532,2.532,0,0,0-.848-.352,6.136,6.136,0,0,0-1.257-.1,7.779,7.779,0,0,0-1.054.058,2.58,2.58,0,0,0-.789.249,1.373,1.373,0,0,0-.572.5,3.266,3.266,0,0,0-.336.862,6.848,6.848,0,0,0-.189,1.317Q1105.147,539.846,1105.146,540.957Z" transform="translate(-1083.705 -527.092)" fill="#1d1753"/>
        <path id="Path_130" data-name="Path 130" d="M1119.079,538.354v-1.346q0-4.183,4.036-4.183,6.934,0,8.307.79v2.573h-7.049a2.84,2.84,0,0,0-.629.058.645.645,0,0,0-.366.205.846.846,0,0,0-.161.321,2.13,2.13,0,0,0-.044.5v.7q0,.673.293.834a1.951,1.951,0,0,0,.907.161h3.685a5.281,5.281,0,0,1,1.887.307,3.151,3.151,0,0,1,1.287.863,3.66,3.66,0,0,1,.718,1.272,5.015,5.015,0,0,1,.234,1.565v1.609q0,3.51-2.955,4.008a6.065,6.065,0,0,1-.849.058q-7.372,0-8.658-.849v-2.545h7.342a.892.892,0,0,0,1.024-.994v-.731a1.685,1.685,0,0,0-.074-.556.579.579,0,0,0-.306-.321,1.463,1.463,0,0,0-.644-.117h-3.627a4.724,4.724,0,0,1-3.247-.994A4.079,4.079,0,0,1,1119.079,538.354Z" transform="translate(-1085.557 -527.092)" fill="#1d1753"/>
        <path id="Path_131" data-name="Path 131" d="M1135.868,530.031v-2.574q0-.76.7-.761h3.071c.428,0,.643.254.643.761v2.574a.71.71,0,0,1-.161.5.625.625,0,0,1-.483.175h-3.071a.883.883,0,0,1-.366-.073.523.523,0,0,1-.248-.234A.741.741,0,0,1,1135.868,530.031Zm.146,17.844V532.342h4.1v15.533Z" transform="translate(-1087.281 -526.463)" fill="#1d1753"/>
        <path id="Path_132" data-name="Path 132" d="M1143.528,548.494V532.961h3.276l.819,1.667c.059-.039.136-.1.234-.176q.643-.437.98-.658a8.843,8.843,0,0,1,.936-.511,5.222,5.222,0,0,1,1.244-.424,7.152,7.152,0,0,1,1.433-.132q3.014,0,4.037,2.019a9.368,9.368,0,0,1,5.588-2.019q4.621,0,4.622,5.471v10.3h-4.1V538.139a2.366,2.366,0,0,0-.453-1.579,1.591,1.591,0,0,0-1.273-.527q-.38,0-.73.029c-.234.021-.464.049-.688.088a6.441,6.441,0,0,0-.642.146,4.512,4.512,0,0,0-.6.22,3.776,3.776,0,0,0-.571.321q-.277.191-.57.424c0,.02,0,.074.014.161a2.7,2.7,0,0,1,.015.277v10.794h-4.1V538.139a3.412,3.412,0,0,0-.117-.936,1.577,1.577,0,0,0-.351-.658,1.559,1.559,0,0,0-.555-.38,1.839,1.839,0,0,0-.7-.132,6.134,6.134,0,0,0-1.4.146,4.343,4.343,0,0,0-1.112.424,11.912,11.912,0,0,0-1.141.746v11.145Z" transform="translate(-1088.068 -527.082)" fill="#1d1753"/>
        <path id="Path_133" data-name="Path 133" d="M1171.792,540.957a18.358,18.358,0,0,1,.351-3.949,5.257,5.257,0,0,1,1.228-2.486,4.755,4.755,0,0,1,2.18-1.316,12.114,12.114,0,0,1,3.321-.38q4.007,0,5.543,1.755t1.535,6.377q0,4.358-1.508,6.026t-5.571,1.667a12.373,12.373,0,0,1-2.794-.278,6.129,6.129,0,0,1-2.018-.833,4.052,4.052,0,0,1-1.331-1.477,7.115,7.115,0,0,1-.717-2.165A17.045,17.045,0,0,1,1171.792,540.957Zm4.1,0a14.943,14.943,0,0,0,.147,2.369,2.656,2.656,0,0,0,.54,1.332,1.694,1.694,0,0,0,.893.571,6.481,6.481,0,0,0,1.4.117,9.578,9.578,0,0,0,1.213-.058,2.172,2.172,0,0,0,.819-.293,1.389,1.389,0,0,0,.585-.731,5.352,5.352,0,0,0,.278-1.272,18.9,18.9,0,0,0,.088-2.033q0-1.345-.074-2.18a6.917,6.917,0,0,0-.249-1.4,1.435,1.435,0,0,0-.555-.818,2.536,2.536,0,0,0-.849-.352,6.13,6.13,0,0,0-1.257-.1,7.753,7.753,0,0,0-1.053.058,2.576,2.576,0,0,0-.79.249,1.372,1.372,0,0,0-.572.5,3.239,3.239,0,0,0-.336.862,6.778,6.778,0,0,0-.19,1.317Q1175.888,539.846,1175.887,540.957Z" transform="translate(-1090.971 -527.092)" fill="#1d1753"/>
      </g>
      <g id="Group_87" data-name="Group 87" transform="translate(0 0)">
        <path id="Path_134" data-name="Path 134" d="M1050.152,554.612c-7.5,12.132,1.463-12.627-21.764,1.363a22.429,22.429,0,0,0,35.64-7.374C1059.706,547.511,1054.25,547.983,1050.152,554.612Z" transform="translate(-1021.117 -517.013)" fill="#1d1753"/>
        <path id="Path_135" data-name="Path 135" d="M1041.865,544.331c6.3,5.368,5.55,6.173,9.41.5,2.127-3.126,7.683-1.2,12.247,1.163a22.433,22.433,0,0,0,.474-15.57c-5.123-1.334-11.643-.838-16.526,7.062-9,14.551,2.074-15.86-27.045,2.445a22.344,22.344,0,0,0,5.9,12.922C1030.408,547.9,1037.554,540.659,1041.865,544.331Z" transform="translate(-1020.299 -515.133)" fill="#31419a"/>
        <path id="Path_136" data-name="Path 136" d="M1038.64,525.881c7.438,6.337,6.55,7.287,11.107.589,2.4-3.536,8.53-1.594,13.777,1.027a22.432,22.432,0,0,0-43.239,8.384c0,.021,0,.041,0,.063C1025.112,530.1,1033.552,521.546,1038.64,525.881Z" transform="translate(-1020.285 -513.449)" fill="#68cce7"/>
      </g>
    </g>
    <g id="Dallas" transform="translate(1336 7534)">
      <g id="Group_89" data-name="Group 89" transform="translate(40.92 0.715)">
        <path id="Path_137" data-name="Path 137" d="M1120.417,279.5a15.487,15.487,0,0,1-6.291,1.289,13.557,13.557,0,0,1-10-4.2,13.893,13.893,0,0,1-4.152-10.13A14.135,14.135,0,0,1,1104.1,256.2a13.38,13.38,0,0,1,9.93-4.227,13.615,13.615,0,0,1,6.028,1.338,14.86,14.86,0,0,1,4.977,4.065V242.072h3.5v25.987a18.891,18.891,0,0,1-2.7,7.378A15.779,15.779,0,0,1,1120.417,279.5Zm1.713-5.29a10.922,10.922,0,0,0,3.152-7.979,11.335,11.335,0,0,0-1.4-5.615,10.2,10.2,0,0,0-4-3.977,11.053,11.053,0,0,0-5.5-1.463,10.492,10.492,0,0,0-5.365,1.463,10.7,10.7,0,0,0-4,4.127,11.252,11.252,0,0,0-1.488,5.565,11.075,11.075,0,0,0,1.475,5.552,10.8,10.8,0,0,0,3.964,4.065,10.587,10.587,0,0,0,5.465,1.463A10.394,10.394,0,0,0,1122.13,274.212Z" transform="translate(-1099.969 -242.072)" fill="#ee3665"/>
        <path id="Path_138" data-name="Path 138" d="M1152.662,253.11a13.624,13.624,0,0,1,10.506,4.577,14.154,14.154,0,0,1,3.851,9.93q.05,14.208,0,14.432h-3.727v-6.228q-2.926,5.454-10.629,6.1a13.421,13.421,0,0,1-10.293-4.29,14.719,14.719,0,0,1-.212-19.922A13.583,13.583,0,0,1,1152.662,253.11Zm0,3.452a10.119,10.119,0,0,0-7.528,3.252,10.871,10.871,0,0,0-3.152,7.853,11.271,11.271,0,0,0,1.439,5.565,10.085,10.085,0,0,0,3.889,3.977,10.678,10.678,0,0,0,5.352,1.388q9.38-.949,10.53-10.93a11.015,11.015,0,0,0-3.076-7.853A9.885,9.885,0,0,0,1152.662,256.562Z" transform="translate(-1103.914 -243.206)" fill="#ee3665"/>
        <path id="Path_139" data-name="Path 139" d="M1177.321,242.8h3.552V280.84h-3.552Z" transform="translate(-1107.913 -242.146)" fill="#ee3665"/>
        <path id="Path_140" data-name="Path 140" d="M1188.806,242.8h3.55V280.84h-3.55Z" transform="translate(-1109.093 -242.146)" fill="#ee3665"/>
        <path id="Path_141" data-name="Path 141" d="M1213.706,253.11a13.621,13.621,0,0,1,10.505,4.577,14.151,14.151,0,0,1,3.852,9.93q.05,14.208,0,14.432h-3.727v-6.228q-2.926,5.454-10.63,6.1a13.421,13.421,0,0,1-10.292-4.29,14.72,14.72,0,0,1-.213-19.922A13.586,13.586,0,0,1,1213.706,253.11Zm0,3.452a10.118,10.118,0,0,0-7.527,3.252,10.871,10.871,0,0,0-3.152,7.853,11.262,11.262,0,0,0,1.439,5.565,10.085,10.085,0,0,0,3.889,3.977,10.676,10.676,0,0,0,5.352,1.388q9.381-.949,10.531-10.93a11.016,11.016,0,0,0-3.076-7.853A9.886,9.886,0,0,0,1213.706,256.562Z" transform="translate(-1110.183 -243.206)" fill="#ee3665"/>
        <path id="Path_142" data-name="Path 142" d="M1252.466,256.812l-2.251,2.351q-2.851-2.751-5.527-2.751a4.209,4.209,0,0,0-2.951,1.125,3.513,3.513,0,0,0-1.225,2.677,3.814,3.814,0,0,0,1.025,2.5,13.36,13.36,0,0,0,4.227,2.926,15.445,15.445,0,0,1,5.352,3.927,7.266,7.266,0,0,1,1.375,4.327,7.7,7.7,0,0,1-2.363,5.69,8.071,8.071,0,0,1-5.916,2.339,10.581,10.581,0,0,1-4.538-1.013,9.483,9.483,0,0,1-3.565-2.839l2.226-2.526q2.7,3.051,5.728,3.051a5.124,5.124,0,0,0,3.589-1.363,4.2,4.2,0,0,0,1.489-3.189,4.106,4.106,0,0,0-.975-2.7,15.474,15.474,0,0,0-4.427-2.951,13.533,13.533,0,0,1-5.053-3.777,7.029,7.029,0,0,1-1.35-4.252,6.908,6.908,0,0,1,2.138-5.19,7.419,7.419,0,0,1,5.366-2.064Q1248.613,253.11,1252.466,256.812Z" transform="translate(-1113.951 -243.206)" fill="#ee3665"/>
      </g>
      <g id="Group_90" data-name="Group 90" transform="translate(0 0)">
        <path id="Path_143" data-name="Path 143" d="M1058.222,265.861l-3.55,10.226a5.454,5.454,0,0,0,5.151,7.243l8.578-24.711A10.776,10.776,0,0,0,1058.222,265.861Z" transform="translate(-1054.366 -243.056)" fill="#ee3665"/>
        <path id="Path_144" data-name="Path 144" d="M1073.544,258.619l-8.578,24.71h7.666l8.578-24.71Z" transform="translate(-1055.454 -243.056)" fill="#361c5c"/>
        <path id="Path_145" data-name="Path 145" d="M1088.6,248.532l-11.1,33.016a10.711,10.711,0,0,0,10.138-7.257l11.1-33.016A10.71,10.71,0,0,0,1088.6,248.532Z" transform="translate(-1056.742 -241.275)" fill="#361c5c"/>
      </g>
    </g>
  </g>
</svg>
