<svg xmlns="http://www.w3.org/2000/svg" width="1920" height="196" viewBox="0 0 1920 196"><rect width="1920" height="156" transform="translate(0 40)" fill="#fff"/><g transform="translate(307.96 -44.434)"><path d="M97.04,125.434h2.347v8.641l9.2-8.641h3.091l-11.058,10.331,11.919,12.694h-3.065L99.387,137.735v10.724H97.04Z" fill="#0e153d"/><path d="M116,125.434H129.19v2.254H118.3V134.9h10.8v2.254H118.3v9.047h10.8v2.254H116Z" fill="#0e153d"/><path d="M133.181,148.459V125.434h.5l15.324,17.65v-17.65h2.27v23.025h-.517l-15.2-17.434v17.434Z" fill="#0e153d"/><path d="M180.593,125.434h2.348v8.641l9.2-8.641h3.092l-11.059,10.331L196.1,148.459h-3.065l-10.09-10.724v10.724h-2.348Z" fill="#0e153d"/><path d="M208.939,125.434l10.738,23.025h-2.485l-3.622-7.576h-9.919l-3.587,7.576H197.5l10.879-23.025Zm-.291,4.892-3.945,8.335h7.872Z" fill="#0e153d"/><path d="M220.961,127.688v-2.254h12.615v2.254h-5.134v20.771H226.1V127.688Z" fill="#0e153d"/><path d="M246.3,125.434l10.738,23.025h-2.485l-3.623-7.576h-9.918l-3.587,7.576H234.86l10.878-23.025Zm-.291,4.892-3.946,8.335h7.872Z" fill="#0e153d"/><path d="M166.286,125.434h-.563l-10.879,23.025h22.18Zm-.291,4.892,3.927,8.335H162.05Z" fill="#20d3c2"/></g><rect width="1920" height="40" fill="#20d3c2"/><text transform="translate(405 26)" fill="#fff" font-size="16" font-family="Roboto-Regular, Roboto"><tspan x="0" y="0">ENG</tspan></text><path d="M169.674,304.457l5,5,5-5" transform="translate(272.326 -286.957)" fill="none" stroke="#fff" stroke-linecap="round" stroke-miterlimit="10" stroke-width="1.5"/><text transform="translate(467 26)" fill="#fff" font-size="16" font-family="Roboto-Regular, Roboto"><tspan x="0" y="0">USD</tspan></text><path d="M169.674,304.457l5,5,5-5" transform="translate(333.326 -286.957)" fill="none" stroke="#fff" stroke-linecap="round" stroke-miterlimit="10" stroke-width="1.5"/><line y2="40" transform="translate(528)" fill="none" stroke="#fff" stroke-width="1"/><text transform="translate(1131 26)" fill="#fff" font-size="16" font-family="Roboto-Regular, Roboto"><tspan x="0" y="0">Newsletter</tspan></text><text transform="translate(1278 26)" fill="#fff" font-size="16" font-family="Roboto-Regular, Roboto"><tspan x="-38.465" y="0">Contact us</tspan></text><text transform="translate(1366 26)" fill="#fff" font-size="16" font-family="Roboto-Regular, Roboto"><tspan x="-18.559" y="0">FAQs</tspan></text><text transform="translate(1415 25)" fill="#fff" font-size="14" font-family="SegoeUI, Segoe UI"><tspan x="0" y="0"></tspan></text><text transform="translate(1433 25)" fill="#fff" font-size="14" font-family="SegoeUI, Segoe UI"><tspan x="0" y="0"></tspan></text><text transform="translate(1457 25)" fill="#fff" font-size="14" font-family="SegoeUI, Segoe UI"><tspan x="0" y="0"></tspan></text><text transform="translate(1479 25)" fill="#fff" font-size="14" font-family="SegoeUI, Segoe UI"><tspan x="0" y="0"></tspan></text><text transform="translate(1499 25)" fill="#fff" font-size="14" font-family="SegoeUI, Segoe UI"><tspan x="0" y="0"></tspan></text><line y2="40" transform="translate(1224)" fill="none" stroke="#fff" stroke-width="1"/><line y2="40" transform="translate(1332)" fill="none" stroke="#fff" stroke-width="1"/><line y2="40" transform="translate(1400)" fill="none" stroke="#fff" stroke-width="1"/><text transform="translate(1255.999 99)" fill="#0e153d" font-size="16" font-family="Roboto-Regular, Roboto"><tspan x="0" y="0">My account</tspan></text><g transform="translate(1020.19 -222.457)"><path d="M209.81,330.463v-2.806A5.187,5.187,0,0,1,215,322.472h7.62a5.182,5.182,0,0,1,5.179,5.185v2.806" transform="translate(0 -6.007)" fill="none" stroke="#0e153d" stroke-linecap="round" stroke-width="1.5"/><g transform="translate(213.807 304.457)" fill="none" stroke="#0e153d" stroke-linecap="round" stroke-width="1.5"><circle cx="4.998" cy="4.998" r="4.998" stroke="none"/><circle cx="4.998" cy="4.998" r="4.248" fill="none"/></g></g><text transform="translate(1475 99)" fill="#0e153d" font-size="16" font-family="Roboto-Regular, Roboto"><tspan x="0" y="0">$0.00</tspan></text><path d="M295.565,309.457a5,5,0,0,1,10,0v2.753c0,4.509-10,12.247-10,12.247s-10-7.738-10-12.247v-2.753a5,5,0,0,1,10,0" transform="translate(1085.434 -221.457)" fill="none" stroke="#0e153d" stroke-linecap="round" stroke-linejoin="round" stroke-width="1.5"/><g transform="translate(1164.066 -222.012)"><g transform="translate(246.935 306.012)"><path d="M266.935,309.9h-4.022a2.452,2.452,0,0,0-2.027,1.071l-6.363,9.335a2.451,2.451,0,0,1-2.027,1.071h-5.561" transform="translate(-246.935 -307.31)" fill="none" stroke="#0e153d" stroke-linecap="round" stroke-linejoin="round" stroke-width="1.5"/><path d="M273.043,306.012l2.594,2.594-2.594,2.594" transform="translate(-255.638 -306.012)" fill="none" stroke="#0e153d" stroke-linecap="round" stroke-linejoin="round" stroke-width="1.5"/></g><g transform="translate(246.935 309.867)"><path d="M266.935,323.274h-4.022a2.454,2.454,0,0,1-2.027-1.071l-6.363-9.336A2.453,2.453,0,0,0,252.5,311.8h-5.561" transform="translate(-246.935 -311.795)" fill="none" stroke="#0e153d" stroke-linecap="round" stroke-linejoin="round" stroke-width="1.5"/><path d="M273.043,325.121l2.594,2.594-2.594,2.594" transform="translate(-255.638 -316.237)" fill="none" stroke="#0e153d" stroke-linecap="round" stroke-linejoin="round" stroke-width="1.5"/></g></g><g transform="translate(23.002)"><circle cx="8.5" cy="8.5" r="8.5" transform="translate(1396 73)" fill="#20d3c2"/><text transform="translate(1405 86)" fill="#fff" font-size="12" font-family="Roboto-Regular, Roboto"><tspan x="-3.369" y="0">0</tspan></text></g><g transform="translate(1433.024 -327.119)"><path d="M33.053,432.528H19.135a1.158,1.158,0,0,1-1.154-1.259L19.107,418.4a1.159,1.159,0,0,1,1.154-1.057H31.925a1.159,1.159,0,0,1,1.154,1.057l1.127,12.865A1.158,1.158,0,0,1,33.053,432.528Z" transform="translate(0 -2.409)" fill="none" stroke="#0e153d" stroke-linecap="round" stroke-linejoin="round" stroke-width="1.5"/><path d="M22.925,414.937a4.818,4.818,0,0,1,9.636,0" transform="translate(-1.65 0)" fill="none" stroke="#0e153d" stroke-linecap="round" stroke-linejoin="round" stroke-width="1.5"/></g><g transform="translate(14)"><circle cx="8.5" cy="8.5" r="8.5" transform="translate(1447 73)" fill="#20d3c2"/><text transform="translate(1456 86)" fill="#fff" font-size="12" font-family="Roboto-Regular, Roboto"><tspan x="-3.369" y="0">0</tspan></text></g><line x2="1920" transform="translate(0 146)" fill="none" stroke="#e3e3e3" stroke-width="1"/><rect width="60" height="4" transform="translate(768 192)" fill="#20d3c2"/><text transform="translate(690 177)" fill="#0e153d" font-size="18" font-family="Roboto-Regular, Roboto"><tspan x="0" y="0">Home</tspan></text><text transform="translate(1212 177)" fill="#0e153d" font-size="18" font-family="Roboto-Regular, Roboto"><tspan x="0" y="0">Blog</tspan></text><g transform="translate(-3)"><text transform="translate(771 177)" fill="#0e153d" font-size="18" font-family="Roboto-Regular, Roboto"><tspan x="0" y="0">Shop</tspan></text><path d="M169.674,304.457l5,5,5-5" transform="translate(651.326 -135.457)" fill="none" stroke="#20d3c2" stroke-linecap="round" stroke-miterlimit="10" stroke-width="1.5"/></g><g transform="translate(-3)"><text transform="translate(861 177)" fill="#0e153d" font-size="18" font-family="Roboto-Regular, Roboto"><tspan x="0" y="0">Products</tspan></text><path d="M169.674,304.457l5,5,5-5" transform="translate(772.326 -135.457)" fill="none" stroke="#20d3c2" stroke-linecap="round" stroke-miterlimit="10" stroke-width="1.5"/></g><g transform="translate(-3)"><text transform="translate(982 177)" fill="#0e153d" font-size="18" font-family="Roboto-Regular, Roboto"><tspan x="0" y="0">Categories</tspan></text><path d="M169.674,304.457l5,5,5-5" transform="translate(907.326 -135.457)" fill="none" stroke="#20d3c2" stroke-linecap="round" stroke-miterlimit="10" stroke-width="1.5"/></g><g transform="translate(-3)"><text transform="translate(1117 177)" fill="#0e153d" font-size="18" font-family="Roboto-Regular, Roboto"><tspan x="0" y="0">Pages</tspan></text><path d="M169.674,304.457l5,5,5-5" transform="translate(1005.326 -135.457)" fill="none" stroke="#20d3c2" stroke-linecap="round" stroke-miterlimit="10" stroke-width="1.5"/></g><g transform="translate(660 70)" fill="none" stroke="#e3e3e3" stroke-width="1"><rect width="540" height="46" rx="23" stroke="none"/><rect x="0.5" y="0.5" width="539" height="45" rx="22.5" fill="none"/></g><line y2="45" transform="translate(1006.415 70.5)" fill="none" stroke="#e3e3e3" stroke-width="1"/><text transform="translate(685 98)" fill="#aaa" font-size="14" font-family="Roboto-Regular, Roboto" letter-spacing="0.05em"><tspan x="0" y="0">Search products...</tspan></text><path d="M0,0H23A23,23,0,0,1,46,23v0A23,23,0,0,1,23,46H0a0,0,0,0,1,0,0V0A0,0,0,0,1,0,0Z" transform="translate(1154 70)" fill="#20d3c2"/><g transform="translate(1152.848 -220.457)"><g transform="translate(15.152 304.457)" fill="none" stroke="#fff" stroke-linecap="round" stroke-miterlimit="10" stroke-width="2"><circle cx="7.644" cy="7.644" r="7.644" stroke="none"/><circle cx="7.644" cy="7.644" r="6.644" fill="none"/></g><line x1="4.952" y1="4.952" transform="translate(28.201 317.505)" fill="none" stroke="#fff" stroke-linecap="round" stroke-miterlimit="10" stroke-width="2"/></g><path d="M169.674,304.457l5,5,5-5" transform="translate(959.326 -213.457)" fill="none" stroke="#20d3c2" stroke-linecap="round" stroke-miterlimit="10" stroke-width="1.5"/><text transform="translate(1021 98)" fill="#0e153d" font-size="16" font-family="Roboto-Regular, Roboto"><tspan x="0" y="0">Categories</tspan></text><rect width="255" height="50" transform="translate(405 146)" fill="#20d3c2"/><g transform="translate(366.217 -141.457)"><line x2="12.266" transform="translate(53.783 304.457)" fill="none" stroke="#fff" stroke-linecap="round" stroke-linejoin="round" stroke-width="2"/><line x2="16" transform="translate(53.783 312.457)" fill="none" stroke="#fff" stroke-linecap="round" stroke-linejoin="round" stroke-width="2"/><line x2="16" transform="translate(53.783 320.457)" fill="none" stroke="#fff" stroke-linecap="round" stroke-linejoin="round" stroke-width="2"/></g><text transform="translate(444 177)" fill="#fff" font-size="18" font-family="Roboto-Regular, Roboto"><tspan x="0" y="0">Browse Categories</tspan></text><path d="M169.674,304.457l5,5,5-5" transform="translate(465.326 -135.457)" fill="none" stroke="#fff" stroke-linecap="round" stroke-miterlimit="10" stroke-width="1.5"/><g transform="translate(1359 153)"><rect width="156" height="37" rx="18.5" fill="#20d3c2"/><text transform="translate(78 25)" fill="#fff" font-size="16" font-family="Roboto-Medium, Roboto" font-weight="500"><tspan x="-57.488" y="0">SPECIAL OFFER</tspan></text></g></svg>