<svg id="Bulb_icon" data-name="Bulb icon" xmlns="http://www.w3.org/2000/svg" width="75" height="75" viewBox="0 0 75 75">
  <path id="Path_553" data-name="Path 553" d="M143.854,112.917a21.963,21.963,0,0,0-15.625-6.25,22.239,22.239,0,0,0-21.563,21.563,21.6,21.6,0,0,0,8.438,17.5,10.852,10.852,0,0,1,4.062,8.125v6.563c0,3.75,2.5,5.625,4.688,5.625h9.375a4.806,4.806,0,0,0,4.688-4.687v-7.188a11.41,11.41,0,0,1,4.375-8.75,21.017,21.017,0,0,0,8.125-16.875A22.247,22.247,0,0,0,143.854,112.917Zm-10.625,50h-9.375c-1.563,0-1.563-1.875-1.563-2.5v-3.75h12.5v4.688A1.476,1.476,0,0,1,133.229,162.917Zm7.188-20a15.34,15.34,0,0,0-5.607,10.625H122.288a13.655,13.655,0,0,0-5.308-10.312,18.369,18.369,0,0,1-7.188-15c.312-10,8.75-18.438,18.75-18.438a18.421,18.421,0,0,1,13.125,5.313,18.68,18.68,0,0,1,5.625,13.437A18.222,18.222,0,0,1,140.417,142.917Z" transform="translate(-91.042 -91.042)" fill="#20d3c2"/>
  <path id="Path_554" data-name="Path 554" d="M246.9,9.375a1.476,1.476,0,0,0,1.563-1.563V1.563a1.563,1.563,0,0,0-3.125,0v6.25A1.476,1.476,0,0,0,246.9,9.375Z" transform="translate(-209.396)" fill="#20d3c2"/>
  <path id="Path_555" data-name="Path 555" d="M392.044,74.069l-4.375,4.375a1.51,1.51,0,0,0,0,2.187,1.879,1.879,0,0,0,1.25.312h0a3.147,3.147,0,0,0,.938-.312l4.375-4.375a1.547,1.547,0,0,0-2.187-2.187Z" transform="translate(-330.481 -62.819)" fill="#20d3c2"/>
  <path id="Path_556" data-name="Path 556" d="M455.812,245.333h-6.25a1.563,1.563,0,1,0,0,3.125h6.25a1.563,1.563,0,1,0,0-3.125Z" transform="translate(-382.375 -209.396)" fill="#20d3c2"/>
  <path id="Path_557" data-name="Path 557" d="M389.856,389.8a1.547,1.547,0,1,0-2.187,2.188l4.375,4.375a1.878,1.878,0,0,0,1.25.313c.625,0,.938,0,.938-.313a1.51,1.51,0,0,0,0-2.187Z" transform="translate(-330.481 -332.302)" fill="#20d3c2"/>
  <path id="Path_558" data-name="Path 558" d="M76.31,389.8l-4.375,4.375a1.51,1.51,0,0,0,0,2.187,1.878,1.878,0,0,0,1.25.313,1.148,1.148,0,0,0,.938-.313L78.5,391.99A1.547,1.547,0,1,0,76.31,389.8Z" transform="translate(-60.998 -332.302)" fill="#20d3c2"/>
  <path id="Path_559" data-name="Path 559" d="M7.812,245.333H1.563a1.563,1.563,0,0,0,0,3.125h6.25a1.563,1.563,0,0,0,0-3.125Z" transform="translate(0 -209.396)" fill="#20d3c2"/>
  <path id="Path_560" data-name="Path 560" d="M76.31,78.81a1.879,1.879,0,0,0,1.25.312h0c.312,0,.625-.312.938-.625a1.511,1.511,0,0,0,0-2.188l-4.375-4.375a1.547,1.547,0,0,0-2.187,2.187Z" transform="translate(-60.998 -60.998)" fill="#20d3c2"/>
  <path id="Path_561" data-name="Path 561" d="M246.9,160a1.562,1.562,0,1,0,0,3.125,11.072,11.072,0,0,1,10.938,10.938,1.562,1.562,0,1,0,3.125,0A14,14,0,0,0,246.9,160Z" transform="translate(-209.396 -136.563)" fill="#20d3c2"/>
</svg>
