<svg xmlns="http://www.w3.org/2000/svg" width="80" height="80" viewBox="0 0 80 80">
  <g id="Team_icon" data-name="Team icon" transform="translate(-1823.939 -466.964)">
    <g id="Group_1073" data-name="Group 1073">
      <path id="Path_551" data-name="Path 551" d="M1888.758,508.136h3.484a5.907,5.907,0,1,0,0-2.344h-3.484a24.753,24.753,0,0,0-6.449-15.541l6.276-6.276a7.5,7.5,0,1,0-1.657-1.657l-6.276,6.275a24.754,24.754,0,0,0-15.542-6.448v-3.484a5.906,5.906,0,1,0-2.343,0v3.484a24.754,24.754,0,0,0-15.542,6.448l-6.275-6.275a7.479,7.479,0,0,0-1.87-10.6,1.172,1.172,0,1,0-1.311,1.943,5.141,5.141,0,1,1-4.278-.683,1.172,1.172,0,0,0-.639-2.255,7.486,7.486,0,1,0,6.441,13.258l6.275,6.275a24.752,24.752,0,0,0-6.449,15.541h-3.484a5.907,5.907,0,1,0,0,2.344h3.485a24.751,24.751,0,0,0,6.448,15.542l-6.276,6.275a7.492,7.492,0,1,0,1.658,1.657l6.275-6.275a24.749,24.749,0,0,0,15.542,6.448v3.484a5.907,5.907,0,1,0,2.343,0v-3.484a24.749,24.749,0,0,0,15.542-6.448l6.275,6.275a7.482,7.482,0,1,0,13.156,2.024,1.172,1.172,0,0,0-2.223.741,5.143,5.143,0,1,1-4.879-3.511,5.11,5.11,0,0,1,1.881.355,1.172,1.172,0,0,0,.857-2.182,7.478,7.478,0,0,0-7.134.916l-6.275-6.275a24.763,24.763,0,0,0,6.448-15.542Zm9.274-4.735a3.563,3.563,0,1,1-3.564,3.563A3.567,3.567,0,0,1,1898.032,503.4Zm-5.051-30.621a5.142,5.142,0,1,1-5.142,5.142A5.147,5.147,0,0,1,1892.981,472.78Zm-32.606.091a3.563,3.563,0,1,1,3.564,3.564,3.567,3.567,0,0,1-3.564-3.564Zm-30.529,37.656a3.563,3.563,0,1,1,3.563-3.563A3.567,3.567,0,0,1,1829.846,510.527Zm34.093-26.067a22.5,22.5,0,1,1-22.5,22.5,22.53,22.53,0,0,1,22.5-22.5ZM1834.9,541.148a5.142,5.142,0,1,1,5.142-5.142A5.147,5.147,0,0,1,1834.9,541.148Zm32.606-.091a3.563,3.563,0,1,1-3.563-3.563A3.567,3.567,0,0,1,1867.5,541.057Z" fill="#20d3c2"/>
      <path id="Path_552" data-name="Path 552" d="M1850.681,521.394H1861.2a1.172,1.172,0,1,0,0-2.344h-2.723v-1.984a1.172,1.172,0,0,0-2.344,0v1.984h-4.284v-5.772a5.147,5.147,0,0,1,5.14-5.142h13.891a5.147,5.147,0,0,1,5.14,5.142v5.772h-4.285v-1.984a1.172,1.172,0,1,0-2.343,0v1.984h-2.723a1.172,1.172,0,1,0,0,2.344H1877.2a1.172,1.172,0,0,0,1.172-1.172v-6.944a7.493,7.493,0,0,0-7.484-7.486h-.87a9.064,9.064,0,1,0-12.151,0h-.87a7.494,7.494,0,0,0-7.484,7.486v6.944a1.172,1.172,0,0,0,1.172,1.172Zm6.538-22.322a6.72,6.72,0,1,1,6.72,6.72,6.728,6.728,0,0,1-6.72-6.72Z" fill="#20d3c2"/>
    </g>
  </g>
</svg>
