<svg xmlns="http://www.w3.org/2000/svg" width="63.004" height="18" viewBox="0 0 63.004 18"><g transform="translate(22.464 3.081)"><path d="M217.434-102.751a1.21,1.21,0,0,1,.36-.861,1.151,1.151,0,0,1,.861-.376,1.227,1.227,0,0,1,.877.36,1.168,1.168,0,0,1,.376.877,1.186,1.186,0,0,1-.368.869,1.2,1.2,0,0,1-.884.368,1.154,1.154,0,0,1-.869-.368A1.213,1.213,0,0,1,217.434-102.751Z" transform="translate(-192.505 103.988)" fill="#ff7f62"/><g transform="translate(0 0.955)"><path d="M148.188-90.671v-10.664h4.04a4.056,4.056,0,0,1,2.145.486,2.042,2.042,0,0,1,.971,1.879,2.218,2.218,0,0,1-.783,1.738,3.334,3.334,0,0,1-1.786.767v.141a3.843,3.843,0,0,1,1.832.6,2.276,2.276,0,0,1,.987,1.989,2.7,2.7,0,0,1-1.191,2.349,4.437,4.437,0,0,1-2.6.72Zm2.349-9.74v3.68h.486a3.053,3.053,0,0,0,.743-.078,1.378,1.378,0,0,0,.572-.312,1.8,1.8,0,0,0,.509-.717,2.469,2.469,0,0,0,.165-.9,1.763,1.763,0,0,0-.438-1.278,1.645,1.645,0,0,0-1.238-.452A5.469,5.469,0,0,0,150.537-100.411Zm0,4.588v4.243h.783a1.788,1.788,0,0,0,1.276-.556,1.99,1.99,0,0,0,.572-1.5,2.034,2.034,0,0,0-.689-1.738A3.286,3.286,0,0,0,150.537-95.823Z" transform="translate(-148.188 101.335)" fill="#0e153d"/><path d="M179.646-89.037h-4.478a3.838,3.838,0,0,0,.454,2.067,1.881,1.881,0,0,0,1.722.846,2.554,2.554,0,0,0,.955-.188,3.415,3.415,0,0,0,.877-.517l.188.141-.344.877a3.8,3.8,0,0,1-2.239.7,3.8,3.8,0,0,1-2.928-1.08,4.3,4.3,0,0,1-1-3.038,3.845,3.845,0,0,1,.963-2.717,3.4,3.4,0,0,1,2.623-1.041,2.851,2.851,0,0,1,2.521,1.127A4.885,4.885,0,0,1,179.646-89.037Zm-4.478-.752h2.318a6.152,6.152,0,0,0-.157-1.55q-.251-.94-.877-.94-.751,0-1.065.924A4.884,4.884,0,0,0,175.168-89.789Z" transform="translate(-163.972 95.99)" fill="#0e153d"/><path d="M198.657-85l-1.5-2.724q-.2.317-.861,1.331-.58.9-.877,1.394l-.626-.078-.627.078,2.49-3.477q-.643-1.148-1.472-2.533l-.955-1.589q.266,0,.72.041t.548.041q.281,0,.735-.041c.3-.028.486-.041.548-.041q.328.612.681,1.263t.665,1.2q.391-.564.831-1.208.359-.532.8-1.255l.7.051.7-.051q-.689.831-1.331,1.645-.564.721-1.221,1.583l.861,1.472q.861,1.457,1.738,2.9-.266,0-.72-.039c-.3-.026-.491-.039-.564-.039q-.266,0-.72.039T198.657-85Z" transform="translate(-177.612 95.747)" fill="#0e153d"/><path d="M217.87-85v-7.594q.266.031.6.055c.224.016.383.023.478.023a5.7,5.7,0,0,0,.626-.031q.282-.032.455-.047V-85a3.724,3.724,0,0,0-.392-.031q-.548-.047-.688-.047a5.708,5.708,0,0,0-.627.031C218.136-85.024,217.984-85.008,217.87-85Z" transform="translate(-192.785 95.739)" fill="#0e153d"/><path d="M229.221-85.248v-7.594c.178.021.378.039.6.055s.384.023.478.023a5.718,5.718,0,0,0,.626-.031q.282-.032.454-.047v1.174a2.669,2.669,0,0,1,.978-.947,2.6,2.6,0,0,1,1.323-.368,2.251,2.251,0,0,1,1.284.368,2.092,2.092,0,0,1,.8,1.057,3.458,3.458,0,0,1,1-1.018,2.526,2.526,0,0,1,1.378-.407,2.293,2.293,0,0,1,1.894.736,3.12,3.12,0,0,1,.548,2v4.995a3.719,3.719,0,0,0-.391-.031q-.549-.047-.689-.047a5.716,5.716,0,0,0-.627.031q-.281.031-.454.047v-4.243a3.5,3.5,0,0,0-.289-1.738.959.959,0,0,0-.854-.438,1.16,1.16,0,0,0-1.065.47,2.36,2.36,0,0,0-.235,1.206v4.744a3.719,3.719,0,0,0-.391-.031q-.549-.047-.689-.047a5.716,5.716,0,0,0-.627.031q-.281.031-.454.047v-4.243a3.5,3.5,0,0,0-.289-1.738.959.959,0,0,0-.854-.438,1.092,1.092,0,0,0-1.049.6,2.675,2.675,0,0,0-.25,1.253v4.572a3.732,3.732,0,0,0-.392-.031q-.549-.047-.689-.047a5.709,5.709,0,0,0-.626.031Q229.393-85.264,229.221-85.248Z" transform="translate(-200.049 95.99)" fill="#0e153d"/></g></g><g transform="translate(0 0)"><path d="M96.285-112.412a9.042,9.042,0,0,0-1.5-.135,9,9,0,0,0-9,9,8.973,8.973,0,0,0,.708,3.5q.329-.234.671-.45A15.2,15.2,0,0,1,96.285-112.412Z" transform="translate(-85.788 112.547)" fill="#ff7f62"/><path d="M104.771-107.531a15.331,15.331,0,0,1,1.7.1,9.013,9.013,0,0,0-4.959-3.926,14.527,14.527,0,0,0-9.5,10.787A15.172,15.172,0,0,1,104.771-107.531Z" transform="translate(-89.769 111.787)" fill="#ff7f62"/><path d="M94.685-92.647a15.121,15.121,0,0,1,6.281-1.361,15.113,15.113,0,0,1,8,2.277,8.959,8.959,0,0,0,.518-2.986,8.947,8.947,0,0,0-.887-3.878,14.537,14.537,0,0,0-2.111-.156A14.466,14.466,0,0,0,94.685-92.647Z" transform="translate(-91.482 103.717)" fill="#ff7f62"/><path d="M91.193-79.9c0,.158.007.315.012.472a8.976,8.976,0,0,0,7.042,3.405,9,9,0,0,0,8.215-5.335,14.387,14.387,0,0,0-7.731-2.246,14.385,14.385,0,0,0-7.04,1.833c-.162.281-.316.567-.459.859C91.209-80.578,91.193-80.242,91.193-79.9Z" transform="translate(-89.247 94.024)" fill="#0e153d"/></g></svg>