<svg xmlns="http://www.w3.org/2000/svg" width="80.209" height="18" viewBox="0 0 80.209 18"><g transform="translate(18.289 0.32)"><path d="M1109.108-92.462a6.921,6.921,0,0,1-2.812.576,6.059,6.059,0,0,1-4.472-1.878,6.21,6.21,0,0,1-1.856-4.527,6.318,6.318,0,0,1,1.845-4.584,5.98,5.98,0,0,1,4.438-1.889,6.085,6.085,0,0,1,2.694.6,6.642,6.642,0,0,1,2.225,1.817v-6.841h1.565v11.615a8.442,8.442,0,0,1-1.207,3.3A7.052,7.052,0,0,1,1109.108-92.462Zm.766-2.364a4.882,4.882,0,0,0,1.409-3.566,5.067,5.067,0,0,0-.626-2.51,4.557,4.557,0,0,0-1.789-1.777,4.94,4.94,0,0,0-2.459-.654,4.69,4.69,0,0,0-2.4.654,4.782,4.782,0,0,0-1.789,1.844,5.03,5.03,0,0,0-.665,2.487,4.95,4.95,0,0,0,.659,2.482,4.824,4.824,0,0,0,1.772,1.817,4.732,4.732,0,0,0,2.443.654A4.646,4.646,0,0,0,1109.874-94.826Z" transform="translate(-1099.969 109.191)" fill="#ee3665"/><path d="M1144.763-98.153a6.089,6.089,0,0,1,4.7,2.046,6.327,6.327,0,0,1,1.721,4.438q.022,6.35,0,6.45h-1.666V-88a5.473,5.473,0,0,1-4.751,2.727,6,6,0,0,1-4.6-1.917,6.366,6.366,0,0,1-1.783-4.477,6.408,6.408,0,0,1,1.688-4.427A6.071,6.071,0,0,1,1144.763-98.153Zm0,1.543a4.523,4.523,0,0,0-3.365,1.453,4.86,4.86,0,0,0-1.409,3.51,5.038,5.038,0,0,0,.643,2.487,4.512,4.512,0,0,0,1.738,1.778,4.772,4.772,0,0,0,2.392.62q4.192-.424,4.706-4.885a4.923,4.923,0,0,0-1.375-3.51A4.418,4.418,0,0,0,1144.763-96.61Z" transform="translate(-1122.976 102.58)" fill="#ee3665"/><path d="M1177.321-108.466h1.587v17h-1.587Z" transform="translate(-1146.3 108.757)" fill="#ee3665"/><path d="M1188.806-108.466h1.587v17h-1.587Z" transform="translate(-1153.179 108.757)" fill="#ee3665"/><path d="M1205.808-98.153a6.088,6.088,0,0,1,4.7,2.046,6.325,6.325,0,0,1,1.722,4.438q.022,6.35,0,6.45h-1.666V-88a5.474,5.474,0,0,1-4.751,2.727,6,6,0,0,1-4.6-1.917,6.366,6.366,0,0,1-1.783-4.477,6.407,6.407,0,0,1,1.688-4.427A6.072,6.072,0,0,1,1205.808-98.153Zm0,1.543a4.523,4.523,0,0,0-3.365,1.453,4.86,4.86,0,0,0-1.409,3.51,5.034,5.034,0,0,0,.643,2.487,4.51,4.51,0,0,0,1.738,1.778,4.771,4.771,0,0,0,2.392.62q4.193-.424,4.707-4.885a4.924,4.924,0,0,0-1.375-3.51A4.418,4.418,0,0,0,1205.808-96.61Z" transform="translate(-1159.539 102.58)" fill="#ee3665"/><path d="M1243.419-96.5l-1.006,1.051a3.663,3.663,0,0,0-2.47-1.23,1.881,1.881,0,0,0-1.319.5,1.57,1.57,0,0,0-.547,1.2,1.7,1.7,0,0,0,.458,1.118,5.972,5.972,0,0,0,1.889,1.308,6.9,6.9,0,0,1,2.392,1.755,3.247,3.247,0,0,1,.615,1.934,3.443,3.443,0,0,1-1.056,2.543,3.607,3.607,0,0,1-2.644,1.046,4.723,4.723,0,0,1-2.028-.453A4.239,4.239,0,0,1,1236.108-87l.995-1.129a3.442,3.442,0,0,0,2.56,1.364,2.29,2.29,0,0,0,1.6-.609,1.877,1.877,0,0,0,.665-1.425A1.835,1.835,0,0,0,1241.5-90a6.917,6.917,0,0,0-1.979-1.319,6.046,6.046,0,0,1-2.258-1.688,3.14,3.14,0,0,1-.6-1.9,3.088,3.088,0,0,1,.956-2.32,3.316,3.316,0,0,1,2.4-.922A5.014,5.014,0,0,1,1243.419-96.5Z" transform="translate(-1181.51 102.58)" fill="#ee3665"/></g><g transform="translate(0)"><path d="M1056.089-89.407l-1.586,4.571a2.437,2.437,0,0,0,2.3,3.237l3.834-11.044A4.816,4.816,0,0,0,1056.089-89.407Z" transform="translate(-1054.366 99.6)" fill="#ee3665"/><path d="M1068.8-92.644,1064.966-81.6h3.426l3.834-11.044Z" transform="translate(-1060.715 99.6)" fill="#361c5c"/><path d="M1082.463-106.744,1077.5-91.988a4.787,4.787,0,0,0,4.531-3.244l4.959-14.756A4.787,4.787,0,0,0,1082.463-106.744Z" transform="translate(-1068.225 109.988)" fill="#361c5c"/></g></svg>