<svg xmlns="http://www.w3.org/2000/svg" width="60.222" height="18" viewBox="0 0 60.222 18"><g transform="translate(22.117 4.675)"><path d="M886.89-90.969V-99.56h3.755a3.008,3.008,0,0,1,.939.135,1.973,1.973,0,0,1,.733.434,1.935,1.935,0,0,1,.5.833,4.1,4.1,0,0,1,.176,1.273,4.781,4.781,0,0,1-.106,1.068,2.916,2.916,0,0,1-.234.7,1.4,1.4,0,0,1-.352.423,1.54,1.54,0,0,1-.34.229q-.118.047-.341.117l1.632,3.38H891.4l-1.42-3.251-1.444-.164v3.415Zm1.655-4.706h1.948a1.389,1.389,0,0,0,.376-.041.526.526,0,0,0,.252-.17.831.831,0,0,0,.165-.37,3.02,3.02,0,0,0,.053-.628,1.589,1.589,0,0,0-.211-.957.763.763,0,0,0-.634-.264h-1.948Z" transform="translate(-886.89 99.56)" fill="#1d1753"/><path d="M906.221-89.907a7.36,7.36,0,0,1,.141-1.584,2.1,2.1,0,0,1,.493-1,1.9,1.9,0,0,1,.874-.528,4.843,4.843,0,0,1,1.332-.153,2.861,2.861,0,0,1,2.224.7,3.97,3.97,0,0,1,.616,2.559,3.654,3.654,0,0,1-.6,2.417,2.951,2.951,0,0,1-2.235.669,4.973,4.973,0,0,1-1.121-.111,2.456,2.456,0,0,1-.809-.334,1.63,1.63,0,0,1-.534-.593,2.868,2.868,0,0,1-.287-.869A6.835,6.835,0,0,1,906.221-89.907Zm1.643,0a6.027,6.027,0,0,0,.059.95,1.063,1.063,0,0,0,.217.534.678.678,0,0,0,.358.229,2.631,2.631,0,0,0,.564.046,3.777,3.777,0,0,0,.487-.023.868.868,0,0,0,.328-.117.559.559,0,0,0,.235-.293,2.167,2.167,0,0,0,.112-.511,7.546,7.546,0,0,0,.035-.815q0-.54-.03-.874a2.8,2.8,0,0,0-.1-.563.577.577,0,0,0-.223-.329,1.022,1.022,0,0,0-.34-.141,2.465,2.465,0,0,0-.5-.041,3.125,3.125,0,0,0-.423.023,1.024,1.024,0,0,0-.316.1.546.546,0,0,0-.229.2,1.3,1.3,0,0,0-.135.346,2.747,2.747,0,0,0-.076.528Q907.864-90.353,907.864-89.907Z" transform="translate(-899.262 95.47)" fill="#1d1753"/><path d="M924.249-90.952v-.54q0-1.678,1.619-1.678a9.586,9.586,0,0,1,3.333.317v1.033h-2.828a1.137,1.137,0,0,0-.252.023.258.258,0,0,0-.147.082.337.337,0,0,0-.064.129.861.861,0,0,0-.018.2v.282q0,.269.117.334a.788.788,0,0,0,.364.064h1.479a2.12,2.12,0,0,1,.757.123,1.268,1.268,0,0,1,.516.346,1.468,1.468,0,0,1,.288.51,2.022,2.022,0,0,1,.094.628v.645q0,1.408-1.186,1.608a2.374,2.374,0,0,1-.34.023,9.407,9.407,0,0,1-3.474-.34v-1.021h2.946a.358.358,0,0,0,.411-.4v-.293a.676.676,0,0,0-.03-.223.23.23,0,0,0-.123-.129.585.585,0,0,0-.258-.047H926a1.894,1.894,0,0,1-1.3-.4A1.638,1.638,0,0,1,924.249-90.952Z" transform="translate(-910.8 95.47)" fill="#1d1753"/><path d="M941.037-97.961v-1.033q0-.305.282-.305h1.232c.172,0,.258.1.258.305v1.033a.286.286,0,0,1-.065.2.251.251,0,0,1-.194.07h-1.232a.354.354,0,0,1-.147-.029.21.21,0,0,1-.1-.094A.3.3,0,0,1,941.037-97.961ZM941.1-90.8v-6.232h1.643V-90.8Z" transform="translate(-921.544 99.393)" fill="#1d1753"/><path d="M948.7-86.942v-6.232h1.314l.329.669c.024-.015.055-.039.094-.071q.258-.176.393-.264a3.614,3.614,0,0,1,.375-.206,2.093,2.093,0,0,1,.5-.17,2.872,2.872,0,0,1,.575-.053,1.64,1.64,0,0,1,1.62.81,3.758,3.758,0,0,1,2.242-.81q1.854,0,1.854,2.195v4.131H956.35V-91.1a.949.949,0,0,0-.182-.634.638.638,0,0,0-.511-.211q-.152,0-.293.012c-.094.008-.186.02-.276.035a2.542,2.542,0,0,0-.258.059,1.8,1.8,0,0,0-.241.088,1.48,1.48,0,0,0-.229.129c-.074.051-.151.108-.229.17,0,.008,0,.029.006.064a1.115,1.115,0,0,1,.006.112v4.33H952.5V-91.1a1.385,1.385,0,0,0-.047-.375.632.632,0,0,0-.141-.264.627.627,0,0,0-.222-.152.738.738,0,0,0-.282-.053,2.46,2.46,0,0,0-.563.059,1.735,1.735,0,0,0-.446.17,4.68,4.68,0,0,0-.458.3v4.471Z" transform="translate(-926.447 95.533)" fill="#1d1753"/><path d="M976.962-89.907a7.361,7.361,0,0,1,.141-1.584,2.108,2.108,0,0,1,.493-1,1.9,1.9,0,0,1,.874-.528,4.846,4.846,0,0,1,1.332-.153,2.861,2.861,0,0,1,2.224.7,3.967,3.967,0,0,1,.616,2.559,3.654,3.654,0,0,1-.6,2.417,2.95,2.95,0,0,1-2.235.669,4.967,4.967,0,0,1-1.121-.111,2.456,2.456,0,0,1-.81-.334,1.627,1.627,0,0,1-.534-.593,2.859,2.859,0,0,1-.288-.869A6.841,6.841,0,0,1,976.962-89.907Zm1.643,0a6,6,0,0,0,.059.95,1.061,1.061,0,0,0,.217.534.678.678,0,0,0,.358.229,2.626,2.626,0,0,0,.563.046,3.773,3.773,0,0,0,.487-.023.871.871,0,0,0,.329-.117.559.559,0,0,0,.235-.293,2.146,2.146,0,0,0,.112-.511,7.567,7.567,0,0,0,.035-.815q0-.54-.03-.874a2.766,2.766,0,0,0-.1-.563.576.576,0,0,0-.223-.329,1.023,1.023,0,0,0-.34-.141,2.46,2.46,0,0,0-.5-.041,3.129,3.129,0,0,0-.423.023,1.025,1.025,0,0,0-.316.1.548.548,0,0,0-.229.2,1.3,1.3,0,0,0-.135.346,2.727,2.727,0,0,0-.076.528Q978.605-90.353,978.605-89.907Z" transform="translate(-944.536 95.47)" fill="#1d1753"/></g><g transform="translate(0 0)"><path d="M842.29-75.254c-3.009,4.868.587-5.066-8.732.546a8.966,8.966,0,0,0,6.083,2.368,9,9,0,0,0,8.216-5.326A4.736,4.736,0,0,0,842.29-75.254Z" transform="translate(-830.641 90.339)" fill="#1d1753"/><path d="M834.2-90.336c2.529,2.154,2.227,2.477,3.776.2.853-1.254,3.082-.481,4.914.467a8.976,8.976,0,0,0,.659-3.381,8.986,8.986,0,0,0-.469-2.866c-2.056-.535-4.671-.337-6.63,2.833-3.609,5.838.832-6.363-10.851.981a8.966,8.966,0,0,0,2.365,5.184C829.6-88.9,832.467-91.809,834.2-90.336Z" transform="translate(-825.544 102.05)" fill="#31419a"/><path d="M832.819-107.559c2.984,2.542,2.628,2.923,4.456.236.965-1.419,3.422-.64,5.528.412a9,9,0,0,0-8.348-5.636,9,9,0,0,0-9,9c0,.009,0,.017,0,.025C827.391-105.864,830.777-109.3,832.819-107.559Z" transform="translate(-825.455 112.547)" fill="#68cce7"/></g></svg>