<svg id="Award_icon" data-name="Award icon" xmlns="http://www.w3.org/2000/svg" width="75" height="75" viewBox="0 0 75 75">
  <path id="Path_562" data-name="Path 562" d="M72.73,31.548h-4.2V28.965a2.273,2.273,0,0,0-2.271-2.271H66.1V24.111a2.273,2.273,0,0,0-2.271-2.271h-.156V18.412a8.4,8.4,0,0,0,4.78-6.507h1.4a3.529,3.529,0,0,0,3.525-3.525V3.525A2.315,2.315,0,0,0,71.07,1.213h-2.82A2.314,2.314,0,0,0,66.217,0H54.083a2.314,2.314,0,0,0-2.034,1.213h-2.82a2.315,2.315,0,0,0-2.312,2.312V8.379A3.529,3.529,0,0,0,50.443,11.9h1.416a8.554,8.554,0,0,0,4.765,6.482v3.455h-.156A2.273,2.273,0,0,0,54.2,24.111v2.583h-.156a2.273,2.273,0,0,0-2.271,2.271v2.583h-4.2A2.273,2.273,0,0,0,45.3,33.818v2.51A2.273,2.273,0,0,0,47.57,38.6h.156v5.083H34.109a1.1,1.1,0,0,0,0,2.2H47.726v2.656H24.92a.073.073,0,0,1-.073-.073v-2.51a.073.073,0,0,1,.073-.073h4.794a1.1,1.1,0,1,0,0-2.2H24.92a2.273,2.273,0,0,0-2.271,2.271v2.51a2.273,2.273,0,0,0,2.271,2.271h.156v5.083H2.271A2.273,2.273,0,0,0,0,58.086V60.6a2.273,2.273,0,0,0,2.271,2.271h.156v9.822A2.315,2.315,0,0,0,4.739,75H8.492a1.1,1.1,0,0,0,0-2.2H4.739a.115.115,0,0,1-.115-.115V70.147H70.376v2.542a.115.115,0,0,1-.115.115H12.887a1.1,1.1,0,0,0,0,2.2H70.261a2.315,2.315,0,0,0,2.312-2.312V38.6h.156A2.273,2.273,0,0,0,75,36.328v-2.51A2.273,2.273,0,0,0,72.73,31.548Zm-4.2-28.137H71.07a.115.115,0,0,1,.115.115V8.379a1.33,1.33,0,0,1-1.328,1.328H68.529Zm-16.758,6.3H50.443a1.329,1.329,0,0,1-1.328-1.328V3.525a.115.115,0,0,1,.115-.115h2.542Zm2.2.979V2.312a.115.115,0,0,1,.115-.115H66.217a.115.115,0,0,1,.115.115v8.494a6.182,6.182,0,0,1-6.288,6.181A6.271,6.271,0,0,1,53.968,10.686Zm7.51,8.393v2.762H58.822V19.076a8.155,8.155,0,0,0,1.185.108h.144A8.479,8.479,0,0,0,61.478,19.079Zm-5.083,5.032a.073.073,0,0,1,.073-.073h7.363a.073.073,0,0,1,.073.073v2.583h-7.51Zm-2.427,4.853a.073.073,0,0,1,.073-.073H66.258a.073.073,0,0,1,.073.073v2.583H53.968Zm-51.7,31.7A.073.073,0,0,1,2.2,60.6v-2.51a.073.073,0,0,1,.073-.073H25.077v2.656H2.271Zm2.353,7.28V62.866H26.175a1.1,1.1,0,0,0,1.1-1.1V50.733H48.825a1.1,1.1,0,0,0,1.1-1.1V38.6H70.376V67.949ZM72.73,36.4H47.57a.073.073,0,0,1-.073-.073v-2.51a.073.073,0,0,1,.073-.073H72.73a.073.073,0,0,1,.073.073v2.51A.073.073,0,0,1,72.73,36.4Z" fill="#20d3c2"/>
  <path id="Path_563" data-name="Path 563" d="M393.607,34.232a1.1,1.1,0,0,0-1.1-1.1h-4.853a1.1,1.1,0,1,0,0,2.2h4.853A1.1,1.1,0,0,0,393.607,34.232Z" transform="translate(-329.931 -28.28)" fill="#20d3c2"/>
  <path id="Path_564" data-name="Path 564" d="M55.531,98.832a2.312,2.312,0,0,0,3.27,0L80.353,77.28a.109.109,0,0,1,.145-.014,3.508,3.508,0,0,0,2.475.9,3.589,3.589,0,0,0,3.407-3.592V69.792a3.529,3.529,0,0,0-3.525-3.525H78.07A3.583,3.583,0,0,0,74.477,69.7a3.506,3.506,0,0,0,.9,2.446.139.139,0,0,1-.014.145L53.815,93.847a2.315,2.315,0,0,0,0,3.27ZM55.369,95.4,76.921,73.848a2.331,2.331,0,0,0,.092-3.171,1.317,1.317,0,0,1-.339-.919,1.372,1.372,0,0,1,1.4-1.294h4.785a1.33,1.33,0,0,1,1.328,1.328v4.785a1.375,1.375,0,0,1-1.282,1.4,1.314,1.314,0,0,1-.931-.339,2.3,2.3,0,0,0-3.171.092L57.247,97.279a.115.115,0,0,1-.162,0l-1.716-1.716a.115.115,0,0,1,0-.162Z" transform="translate(-45.355 -56.56)" fill="#20d3c2"/>
</svg>
