<svg xmlns="http://www.w3.org/2000/svg" width="81.147" height="80" viewBox="0 0 81.147 80">
  <g id="Cart_download_icon" data-name="Cart download icon" transform="translate(-1727.553 -466.964)">
    <path id="Path_545" data-name="Path 545" d="M1753.44,530.02a8.472,8.472,0,1,0,8.472,8.472A8.467,8.467,0,0,0,1753.44,530.02Zm0,13.179a4.707,4.707,0,1,1,4.707-4.707A4.705,4.705,0,0,1,1753.44,543.2Z" fill="#20d3c2"/>
    <path id="Path_546" data-name="Path 546" d="M1789.212,530.02a8.472,8.472,0,1,0,8.473,8.472A8.467,8.467,0,0,0,1789.212,530.02Zm0,13.179a4.707,4.707,0,1,1,4.707-4.707A4.705,4.705,0,0,1,1789.212,543.2Z" fill="#20d3c2"/>
    <path id="Path_547" data-name="Path 547" d="M1808.315,480.6a2.333,2.333,0,0,0-1.5-.755l-24.362-.341v3.782l22.009.325-4.05,16.66a6.4,6.4,0,0,1-5.745,4.991l-39.156,4.05-8.757-26.554,25.482.374v-3.766l-26.707-.373-1.7-5.178a8.66,8.66,0,0,0-8.091-5.834h-6.306a1.882,1.882,0,0,0,0,3.765h6.306a4.914,4.914,0,0,1,4.52,3.3l11.954,36.056-.942,2.167a9.022,9.022,0,0,0,.844,8.188,8.738,8.738,0,0,0,7.061,3.952H1795.8a1.882,1.882,0,1,0,0-3.765h-36.624a4.789,4.789,0,0,1-3.952-2.256,5.2,5.2,0,0,1-.471-4.521l.755-1.7,39.626-4.139a10.34,10.34,0,0,0,8.943-7.912l4.52-18.917A1.589,1.589,0,0,0,1808.315,480.6Z" fill="#20d3c2"/>
    <path id="Path_548" data-name="Path 548" d="M1767.116,489.776a2.028,2.028,0,0,0,0,2.868l8.792,8.792a2.076,2.076,0,0,0,.312.255c.047.032.1.053.146.08a1.967,1.967,0,0,0,.2.106,2.024,2.024,0,0,0,.2.063c.06.017.117.04.178.052a1.994,1.994,0,0,0,.795,0,1.769,1.769,0,0,0,.176-.052,1.749,1.749,0,0,0,.2-.063,1.854,1.854,0,0,0,.2-.1,1.708,1.708,0,0,0,.152-.083,2.043,2.043,0,0,0,.306-.249l0,0,8.794-8.793a2.029,2.029,0,0,0-2.868-2.87l-5.332,5.331V468.993a2.029,2.029,0,1,0-4.057,0v26.113l-5.331-5.33A2.027,2.027,0,0,0,1767.116,489.776Z" fill="#20d3c2"/>
  </g>
</svg>
