<svg xmlns="http://www.w3.org/2000/svg" width="75" height="75.791" viewBox="0 0 75 75.791">
  <g id="Diary_icon" data-name="Diary icon" transform="translate(-2.671)">
    <path id="Path_570" data-name="Path 570" d="M453,64.906V62.2a2.879,2.879,0,0,0-2.875-2.875h-1.967a2.879,2.879,0,0,0-2.875,2.875v2.711a1.758,1.758,0,0,0-.952,1.56v47.573a1.147,1.147,0,0,0,.136.533l3.234,5.935a1.64,1.64,0,0,0,2.881,0l3.234-5.935a1.136,1.136,0,0,0,.136-.533V87.917h0V80.87a1.11,1.11,0,0,0-2.22,0v5.936h-5.181V71.026h5.181v4.663a1.11,1.11,0,0,0,2.22,0V66.466a1.756,1.756,0,0,0-.952-1.56Zm-3.859,53.6-1.831-3.36h3.663Zm2.591-29.483v23.9h-5.181v-23.9ZM447.5,62.2a.656.656,0,0,1,.655-.655h1.967a.656.656,0,0,1,.655.655v2.514H447.5Zm4.229,6.61h-5.181V66.93h5.181Z" transform="translate(-376.278 -50.539)" fill="#20d3c2"/>
    <path id="Path_571" data-name="Path 571" d="M178.048,101.152h22.14a1.11,1.11,0,1,0,0-2.22h-22.14a1.11,1.11,0,1,0,0,2.22Z" transform="translate(-148.47 -84.287)" fill="#20d3c2"/>
    <path id="Path_572" data-name="Path 572" d="M177.159,158.616H145.332a1.11,1.11,0,0,0,0,2.22h31.826a1.11,1.11,0,0,0,0-2.22Z" transform="translate(-120.597 -135.136)" fill="#20d3c2"/>
    <path id="Path_573" data-name="Path 573" d="M177.159,214.241H145.332a1.11,1.11,0,1,0,0,2.22h31.826a1.11,1.11,0,1,0,0-2.22Z" transform="translate(-120.597 -182.527)" fill="#20d3c2"/>
    <path id="Path_574" data-name="Path 574" d="M177.159,273.138H145.332a1.11,1.11,0,0,0,0,2.22h31.826a1.11,1.11,0,0,0,0-2.22Z" transform="translate(-120.597 -232.705)" fill="#20d3c2"/>
    <path id="Path_575" data-name="Path 575" d="M177.159,332.035H145.332a1.11,1.11,0,0,0,0,2.22h31.826a1.11,1.11,0,0,0,0-2.22Z" transform="translate(-120.597 -282.884)" fill="#20d3c2"/>
    <path id="Path_576" data-name="Path 576" d="M177.159,390.932H145.332a1.11,1.11,0,1,0,0,2.22h31.826a1.11,1.11,0,1,0,0-2.22Z" transform="translate(-120.597 -333.062)" fill="#20d3c2"/>
    <path id="Path_577" data-name="Path 577" d="M62.249,6.414H17.638A7.524,7.524,0,0,0,2.671,7.525V46.443a1.11,1.11,0,0,0,2.22,0V7.525a5.3,5.3,0,1,1,10.608,0v55.41l-.054-.051a7.51,7.51,0,0,0-10.554.051V51.624a1.11,1.11,0,0,0-2.22,0V68.267A7.533,7.533,0,0,0,10.2,75.791H56.5A2.89,2.89,0,0,0,59.387,72.9V69.377h2.863a2.89,2.89,0,0,0,2.887-2.887V9.3A2.89,2.89,0,0,0,62.249,6.414ZM57.166,72.9a.667.667,0,0,1-.666.666H10.2a5.3,5.3,0,1,1,5.3-5.3,1.11,1.11,0,0,0,1.11,1.11H57.166Zm5.749-6.414a.667.667,0,0,1-.666.666H17.72V8.635H62.249a.667.667,0,0,1,.666.666Z" fill="#20d3c2"/>
  </g>
</svg>
