<svg xmlns="http://www.w3.org/2000/svg" width="90.324" height="80" viewBox="0 0 90.324 80">
  <g id="Thumbsup_icon" data-name="Thumbsup icon" transform="translate(-1628.486 -466.964)">
    <path id="Path_549" data-name="Path 549" d="M1641.686,529.468a5.148,5.148,0,1,0,5.149,5.148A5.153,5.153,0,0,0,1641.686,529.468Zm0,6.9a1.753,1.753,0,1,1,1.753-1.752A1.754,1.754,0,0,1,1641.686,536.369Z" fill="#20d3c2"/>
    <path id="Path_550" data-name="Path 550" d="M1718.81,515.287a7.682,7.682,0,0,0-2.878-6,7.691,7.691,0,0,0-4.815-13.69h-27.311a31.156,31.156,0,0,0,2.389-8.589c1.3-9.108-.665-13.942-2.543-16.393a9.058,9.058,0,0,0-6.176-3.629,3.619,3.619,0,0,0-4.011,3.466c-.318,3.265-1.481,12.224-3.146,15.556-4.279,8.558-14.481,13.66-17.632,15.072a6.267,6.267,0,0,0-4.1-1.522h-13.8a6.306,6.306,0,0,0-6.3,6.3v34.507a6.306,6.306,0,0,0,6.3,6.3h13.8a6.282,6.282,0,0,0,4.684-2.093,16.079,16.079,0,0,0,8.678,2.391h44.37a7.69,7.69,0,0,0,5.774-12.773,7.689,7.689,0,0,0,2.4-11.992A7.7,7.7,0,0,0,1718.81,515.287Zm-70.222,27.984h-13.8a2.907,2.907,0,0,1-2.9-2.9V505.86a2.907,2.907,0,0,1,2.9-2.9h13.8a2.893,2.893,0,0,1,2.071.873v37.862a1.676,1.676,0,0,0,.106.589A2.9,2.9,0,0,1,1648.588,543.271Zm62.529-23.687h-7.134a1.7,1.7,0,0,0,0,3.4h4.736a4.3,4.3,0,0,1,0,8.6h-6.037a1.7,1.7,0,0,0,0,3.4h3.638a4.3,4.3,0,1,1,0,8.6h-44.37a12.557,12.557,0,0,1-7.169-2.055,6.37,6.37,0,0,0,.106-1.146V505.86a6.276,6.276,0,0,0-.295-1.9c3.978-1.826,14.163-7.224,18.764-16.425,2.3-4.6,3.448-16.322,3.5-16.818.005-.054.008-.109.008-.163a.188.188,0,0,1,.065-.145.166.166,0,0,1,.14-.044,5.706,5.706,0,0,1,3.892,2.323c1.482,1.935,3.011,5.908,1.877,13.848-.962,6.729-3.241,9.674-3.255,9.692a1.713,1.713,0,0,0,1.314,2.773h30.224a4.3,4.3,0,1,1,0,8.6h-7.134a1.7,1.7,0,0,0,0,3.4h7.134a4.3,4.3,0,1,1,0,8.595Z" fill="#20d3c2"/>
  </g>
</svg>
