<svg xmlns="http://www.w3.org/2000/svg" width="94.308" height="80" viewBox="0 0 94.308 80">
  <g id="User_icon" data-name="User icon" transform="translate(-1524.589 -466.964)">
    <path id="Path_539" data-name="Path 539" d="M1605.284,513.155a10.628,10.628,0,0,1,10.613,10.613v15.027a5.174,5.174,0,0,1-5.168,5.169h-8.589V516.676a22.071,22.071,0,0,0-.281-3.521h3.425m0-3h-7.294a18.957,18.957,0,0,1,1.15,6.521v27.565a8.11,8.11,0,0,1-.469,2.723h12.058a8.178,8.178,0,0,0,8.168-8.169V523.768a13.628,13.628,0,0,0-13.613-13.613Z" fill="#20d3c2"/>
    <path id="Path_540" data-name="Path 540" d="M1541.627,513.155a22.208,22.208,0,0,0-.28,3.521v27.288h-8.59a5.173,5.173,0,0,1-5.168-5.168V523.769a10.625,10.625,0,0,1,10.614-10.614h3.424m3.869-3h0Zm0,0H1538.2a13.629,13.629,0,0,0-13.614,13.614V538.8a8.177,8.177,0,0,0,8.168,8.168h12.058a8.133,8.133,0,0,1-.468-2.723V516.676a18.982,18.982,0,0,1,1.149-6.521Z" fill="#20d3c2"/>
    <path id="Path_541" data-name="Path 541" d="M1580.08,506.062a10.626,10.626,0,0,1,10.614,10.614v27.288h-37.9V516.676a10.627,10.627,0,0,1,10.614-10.614h16.674m0-3h-16.674a13.629,13.629,0,0,0-13.614,13.614v27.565a2.723,2.723,0,0,0,2.723,2.723h38.456a2.723,2.723,0,0,0,2.723-2.723V516.676a13.629,13.629,0,0,0-13.614-13.614Z" fill="#20d3c2"/>
    <path id="Path_542" data-name="Path 542" d="M1571.743,469.964a13.37,13.37,0,1,1-13.372,13.373,13.388,13.388,0,0,1,13.372-13.373m0-3a16.37,16.37,0,1,0,16.373,16.373,16.391,16.391,0,0,0-16.373-16.373Z" fill="#20d3c2"/>
    <path id="Path_543" data-name="Path 543" d="M1542.993,485.225a9.255,9.255,0,0,1,9.245,9.244,9.1,9.1,0,0,1-1.085,4.338,9.331,9.331,0,0,1-4.521,4.159,9.155,9.155,0,0,1-3.639.748,9.244,9.244,0,0,1,0-18.489m0-3a12.238,12.238,0,1,0,12.245,12.244,12.258,12.258,0,0,0-12.245-12.244Z" fill="#20d3c2"/>
    <path id="Path_544" data-name="Path 544" d="M1600.493,485.225a9.244,9.244,0,0,1,0,18.489,9.155,9.155,0,0,1-3.639-.748,9.335,9.335,0,0,1-4.521-4.159,9.116,9.116,0,0,1-1.084-4.338,9.255,9.255,0,0,1,9.244-9.244m0-3a12.244,12.244,0,1,0,12.244,12.244,12.257,12.257,0,0,0-12.244-12.244Z" fill="#20d3c2"/>
  </g>
</svg>
