<svg xmlns="http://www.w3.org/2000/svg" width="50" height="53.34" viewBox="0 0 50 53.34">
  <g id="Group_1155" data-name="Group 1155" transform="translate(-482.5 -163.206)">
    <path id="Path_593" data-name="Path 593" d="M532.058,174.975,507.84,163.284a.78.78,0,0,0-.68,0l-24.218,11.691a.783.783,0,0,0-.442.7v28.394a.782.782,0,0,0,.442.7l24.218,11.692a.789.789,0,0,0,.68,0l24.218-11.692a.782.782,0,0,0,.442-.7V175.679A.783.783,0,0,0,532.058,174.975ZM507.5,164.855l22.421,10.824-6.5,3.138a.757.757,0,0,0-.132-.084l-22.27-10.75Zm-8.244,4.011,22.389,10.809-4.586,2.214-22.379-10.8Zm22.913,12.291v8.183l-4.284,2.068v-8.183Zm8.768,22.426h0L508.281,214.52V187.861l5.4-2.609a.781.781,0,0,0-.68-1.407L507.5,186.5l-2.167-1.046a.781.781,0,0,0-.679,1.407l2.065,1V214.52l-22.656-10.937V176.924l17.252,8.329a.782.782,0,0,0,.679-1.408l-16.915-8.166,7.762-3.747,23.471,11.331.011.014v9.376a.781.781,0,0,0,1.121.7l5.846-2.822a.779.779,0,0,0,.441-.7V180.4l7.206-3.479Z" fill="#20d3c2"/>
    <path id="Path_594" data-name="Path 594" d="M490.511,200.553l-3.554-1.716a.781.781,0,1,0-.68,1.407l3.554,1.716a.781.781,0,1,0,.68-1.407Z" fill="#20d3c2"/>
    <path id="Path_595" data-name="Path 595" d="M493.782,198.423l-6.82-3.292a.781.781,0,1,0-.68,1.407l6.82,3.293a.782.782,0,0,0,.68-1.408Z" fill="#20d3c2"/>
  </g>
</svg>
