<svg xmlns="http://www.w3.org/2000/svg" width="50" height="50" viewBox="0 0 50 50">
  <g id="payment_icon" data-name="payment icon" transform="translate(-150.439 -539.461)">
    <path id="Path_36" data-name="Path 36" d="M197.4,565.616a3.145,3.145,0,0,0-1.088.194,2.984,2.984,0,0,0-3.033-2.981,3.145,3.145,0,0,0-1.262.263,2.963,2.963,0,0,0-2.86-2.018,3.172,3.172,0,0,0-1.085.192V542.138a2.679,2.679,0,0,0-2.676-2.677H162.945a2.679,2.679,0,0,0-2.676,2.677v8.479h-8.853a.976.976,0,0,0-.977.977V566.1a.976.976,0,0,0,.977.977h8.853v13.335a2.679,2.679,0,0,0,2.676,2.676h18.523c1.2,1.48,1.2,2.766,1.2,4.371a2,2,0,0,0,2,2h1.719a.977.977,0,1,0,0-1.953h-1.719a.048.048,0,0,1-.045-.045,7.707,7.707,0,0,0-1.923-5.936,9.851,9.851,0,0,0-1.572-1.323c-1.037-.757-1.667-1.265-1.667-1.924l0-3.071v-4.052a.727.727,0,0,1,.165-.549,1.171,1.171,0,0,1,.916.081A2.267,2.267,0,0,1,182,572.822v3.109a.977.977,0,1,0,1.953,0V559.142a1.065,1.065,0,0,1,1.084-1.2,1.1,1.1,0,0,1,.748.28,1.215,1.215,0,0,1,.337.924v11.283a.977.977,0,1,0,1.953,0v-6.2a1.064,1.064,0,0,1,1.084-1.2,1.1,1.1,0,0,1,.748.28,1.212,1.212,0,0,1,.336.923v7.231a.977.977,0,0,0,1.954,0v-5.476a1.064,1.064,0,0,1,1.084-1.2,1.1,1.1,0,0,1,.748.28,1.212,1.212,0,0,1,.336.923v6.508a.977.977,0,1,0,1.953,0v-3.72a1.065,1.065,0,0,1,1.085-1.2,1.1,1.1,0,0,1,.748.28,1.214,1.214,0,0,1,.336.924v9.842a6.511,6.511,0,0,1-.795,2.626,5.777,5.777,0,0,0-.766,3.064v3.158a.05.05,0,0,1-.045.045h-1.719a.977.977,0,1,0,0,1.953h1.719a2,2,0,0,0,2-2V584.3a3.884,3.884,0,0,1,.55-2.17,8.424,8.424,0,0,0,1.005-3.361.924.924,0,0,0,.006-.1v-9.9A3,3,0,0,0,197.4,565.616Zm-28.9-24.2h11.342v1.044a1.048,1.048,0,0,1-1.047,1.049h-9.248a1.049,1.049,0,0,1-1.047-1.049ZM152.392,552.57h2.731a3.864,3.864,0,0,1-2.731,2.764Zm0,12.558v-2.764a3.862,3.862,0,0,1,2.731,2.764Zm4.725,0a5.814,5.814,0,0,0-4.725-4.76V557.33a5.814,5.814,0,0,0,4.725-4.76h14.1v12.558Zm5.828,16.011h0a.724.724,0,0,1-.723-.723v-2.249h15.287v.114a3.707,3.707,0,0,0,1.624,2.858Zm23.175-24.962a3.168,3.168,0,0,0-1.085-.192,3.026,3.026,0,0,0-2.085.81,3.108,3.108,0,0,0-.951,2.347v10.1a4.393,4.393,0,0,0-.757-.381,2.9,2.9,0,0,0-2.71.123,2.462,2.462,0,0,0-1.026,2.143v5.082H162.222v-9.133h8.992V568.5a.977.977,0,0,0,1.953,0V549.2a.977.977,0,0,0-1.953,0v1.421h-8.992v-8.479a.723.723,0,0,1,.723-.723h3.6v1.044a3,3,0,0,0,3,3h9.248a3,3,0,0,0,3-3v-1.044h3.6a.723.723,0,0,1,.723.723Z" fill="#20d3c2"/>
    <path id="Path_37" data-name="Path 37" d="M163.933,554.6a4.251,4.251,0,1,0,4.226,4.251A4.243,4.243,0,0,0,163.933,554.6Zm0,6.549a2.3,2.3,0,1,1,2.273-2.3A2.288,2.288,0,0,1,163.933,561.147Z" fill="#20d3c2"/>
    <path id="Path_38" data-name="Path 38" d="M190.776,587.508a.977.977,0,1,0,0,1.953h0a.977.977,0,0,0,0-1.953Z" fill="#20d3c2"/>
  </g>
</svg>
