<svg xmlns="http://www.w3.org/2000/svg" width="135" height="40.35" viewBox="0 0 135 40.35">
  <g id="Rosimo" transform="translate(-929.022 -67.126)">
    <g id="Group_67" data-name="Group 67" transform="translate(978.6 77.607)">
      <path id="Path_86" data-name="Path 86" d="M990.457,99.37V80.113h8.418a6.735,6.735,0,0,1,2.105.3,4.433,4.433,0,0,1,1.644.973,4.34,4.34,0,0,1,1.119,1.868,9.16,9.16,0,0,1,.395,2.854,10.711,10.711,0,0,1-.237,2.394,6.53,6.53,0,0,1-.526,1.566,3.129,3.129,0,0,1-.788.947,3.458,3.458,0,0,1-.764.513q-.264.1-.763.263l3.656,7.576h-4.157l-3.184-7.287-3.235-.368V99.37Zm3.71-10.549h4.367a3.11,3.11,0,0,0,.842-.092,1.186,1.186,0,0,0,.566-.382,1.87,1.87,0,0,0,.368-.829,6.769,6.769,0,0,0,.119-1.407,3.569,3.569,0,0,0-.473-2.144,1.712,1.712,0,0,0-1.421-.592h-4.367Z" transform="translate(-990.457 -80.113)" fill="#1d1753"/>
      <path id="Path_87" data-name="Path 87" d="M1009.788,93.816a16.515,16.515,0,0,1,.315-3.552,4.731,4.731,0,0,1,1.1-2.236,4.283,4.283,0,0,1,1.96-1.184,10.9,10.9,0,0,1,2.987-.341q3.6,0,4.985,1.578t1.381,5.735q0,3.921-1.355,5.42t-5.011,1.5a11.084,11.084,0,0,1-2.513-.25,5.512,5.512,0,0,1-1.815-.75,3.632,3.632,0,0,1-1.2-1.328,6.391,6.391,0,0,1-.645-1.946A15.331,15.331,0,0,1,1009.788,93.816Zm3.683,0a13.441,13.441,0,0,0,.132,2.131,2.378,2.378,0,0,0,.486,1.2,1.514,1.514,0,0,0,.8.513,5.824,5.824,0,0,0,1.263.1,8.461,8.461,0,0,0,1.091-.052,1.939,1.939,0,0,0,.737-.263,1.25,1.25,0,0,0,.526-.658,4.8,4.8,0,0,0,.25-1.144,16.99,16.99,0,0,0,.079-1.829q0-1.209-.066-1.959a6.205,6.205,0,0,0-.224-1.263,1.3,1.3,0,0,0-.5-.737,2.287,2.287,0,0,0-.763-.316,5.516,5.516,0,0,0-1.131-.092,6.991,6.991,0,0,0-.947.052,2.317,2.317,0,0,0-.71.224,1.235,1.235,0,0,0-.514.448,2.888,2.888,0,0,0-.3.776,6.084,6.084,0,0,0-.171,1.184Q1013.472,92.818,1013.471,93.816Z" transform="translate(-994.188 -81.346)" fill="#1d1753"/>
      <path id="Path_88" data-name="Path 88" d="M1027.816,91.475v-1.21q0-3.761,3.631-3.761,6.235,0,7.47.71v2.314h-6.34a2.547,2.547,0,0,0-.566.053.584.584,0,0,0-.329.184.762.762,0,0,0-.144.29,1.927,1.927,0,0,0-.04.447v.631q0,.605.262.75a1.757,1.757,0,0,0,.816.145h3.315a4.75,4.75,0,0,1,1.7.276,2.839,2.839,0,0,1,1.158.776,3.293,3.293,0,0,1,.645,1.145,4.512,4.512,0,0,1,.211,1.407v1.447q0,3.157-2.657,3.6a5.462,5.462,0,0,1-.763.052q-6.63,0-7.787-.763V97.684h6.6a.8.8,0,0,0,.922-.895v-.658a1.537,1.537,0,0,0-.066-.5.526.526,0,0,0-.276-.29,1.327,1.327,0,0,0-.579-.1h-3.262a4.248,4.248,0,0,1-2.921-.894A3.671,3.671,0,0,1,1027.816,91.475Z" transform="translate(-997.667 -81.346)" fill="#1d1753"/>
      <path id="Path_89" data-name="Path 89" d="M1044.6,83.373V81.058q0-.684.631-.684H1048c.385,0,.579.228.579.684v2.314a.643.643,0,0,1-.144.448.562.562,0,0,1-.434.157h-2.762a.788.788,0,0,1-.328-.065.471.471,0,0,1-.224-.211A.668.668,0,0,1,1044.6,83.373Zm.131,16.048V85.451h3.683v13.97Z" transform="translate(-1000.907 -80.163)" fill="#1d1753"/>
      <path id="Path_90" data-name="Path 90" d="M1052.265,100.585V86.615h2.946l.737,1.5c.053-.035.123-.088.211-.158q.579-.395.881-.592a8.034,8.034,0,0,1,.842-.461,4.657,4.657,0,0,1,1.118-.381,6.434,6.434,0,0,1,1.289-.119q2.71,0,3.631,1.815a8.429,8.429,0,0,1,5.025-1.815q4.157,0,4.157,4.919v9.26h-3.683V91.272a2.13,2.13,0,0,0-.408-1.421,1.428,1.428,0,0,0-1.144-.473c-.228,0-.447.009-.658.026s-.416.044-.619.079a5.779,5.779,0,0,0-.578.132,3.944,3.944,0,0,0-.54.2,3.275,3.275,0,0,0-.512.289c-.167.115-.338.241-.513.382,0,.018,0,.065.013.144a2.23,2.23,0,0,1,.014.25v9.707h-3.684V91.272a3.093,3.093,0,0,0-.1-.842,1.433,1.433,0,0,0-.316-.592,1.413,1.413,0,0,0-.5-.342,1.663,1.663,0,0,0-.631-.118,5.52,5.52,0,0,0-1.264.131,3.947,3.947,0,0,0-1,.382,10.576,10.576,0,0,0-1.026.671v10.023Z" transform="translate(-1002.386 -81.327)" fill="#1d1753"/>
      <path id="Path_91" data-name="Path 91" d="M1080.53,93.816a16.521,16.521,0,0,1,.315-3.552,4.724,4.724,0,0,1,1.106-2.236,4.277,4.277,0,0,1,1.959-1.184,10.9,10.9,0,0,1,2.987-.341q3.6,0,4.986,1.578t1.381,5.735q0,3.921-1.355,5.42t-5.012,1.5a11.082,11.082,0,0,1-2.513-.25,5.512,5.512,0,0,1-1.815-.75,3.639,3.639,0,0,1-1.2-1.328,6.387,6.387,0,0,1-.645-1.946A15.332,15.332,0,0,1,1080.53,93.816Zm3.682,0a13.426,13.426,0,0,0,.132,2.131,2.378,2.378,0,0,0,.487,1.2,1.512,1.512,0,0,0,.8.513,5.822,5.822,0,0,0,1.263.1,8.462,8.462,0,0,0,1.091-.052,1.934,1.934,0,0,0,.737-.263,1.251,1.251,0,0,0,.527-.658,4.842,4.842,0,0,0,.249-1.144,16.955,16.955,0,0,0,.079-1.829q0-1.209-.066-1.959a6.2,6.2,0,0,0-.223-1.263,1.292,1.292,0,0,0-.5-.737,2.28,2.28,0,0,0-.764-.316,5.516,5.516,0,0,0-1.131-.092,6.991,6.991,0,0,0-.947.052,2.318,2.318,0,0,0-.71.224,1.228,1.228,0,0,0-.513.448,2.862,2.862,0,0,0-.3.776,6.084,6.084,0,0,0-.171,1.184Q1084.213,92.818,1084.212,93.816Z" transform="translate(-1007.841 -81.346)" fill="#1d1753"/>
    </g>
    <g id="Group_68" data-name="Group 68" transform="translate(929.022 67.126)">
      <path id="Path_92" data-name="Path 92" d="M956.7,107.64c-6.746,10.911,1.315-11.357-19.574,1.225a20.172,20.172,0,0,0,32.053-6.632C965.292,101.253,960.384,101.677,956.7,107.64Z" transform="translate(-930.586 -73.823)" fill="#1d1753"/>
      <path id="Path_93" data-name="Path 93" d="M948.444,96.551c5.668,4.828,4.991,5.552,8.463.449,1.913-2.812,6.909-1.078,11.015,1.046a20.176,20.176,0,0,0,.426-14c-4.607-1.2-10.471-.755-14.863,6.35-8.089,13.086,1.865-14.263-24.324,2.2a20.1,20.1,0,0,0,5.3,11.622C938.141,99.764,944.567,93.248,948.444,96.551Z" transform="translate(-929.049 -70.292)" fill="#31419a"/>
      <path id="Path_94" data-name="Path 94" d="M945.53,78.308c6.689,5.7,5.891,6.553,9.989.529,2.163-3.18,7.671-1.433,12.391.924A20.175,20.175,0,0,0,929.022,87.3c0,.019,0,.038,0,.056C933.363,82.106,940.953,74.409,945.53,78.308Z" transform="translate(-929.022 -67.126)" fill="#68cce7"/>
    </g>
  </g>
</svg>
