<svg xmlns="http://www.w3.org/2000/svg" width="56.306" height="13.642" viewBox="0 0 56.306 13.642">
  <g id="PayPal_logo" data-name="PayPal logo" transform="translate(-395.779 -991.743)">
    <path id="Path_330" data-name="Path 330" d="M400.692,994.954h3.848c2.066,0,2.844,1.045,2.724,2.584-.2,2.537-1.732,3.94-3.767,3.94H402.47c-.278,0-.466.184-.542.685l-.441,2.908c-.028.189-.128.3-.277.314H398.8c-.227,0-.307-.174-.248-.55l1.473-9.33A.588.588,0,0,1,400.692,994.954Z" fill="#009de2" fill-rule="evenodd"/>
    <path id="Path_331" data-name="Path 331" d="M417.4,994.781a2.11,2.11,0,0,1,2.333,2.46c-.2,2.081-1.316,3.24-3.08,3.245H415.11c-.222,0-.329.18-.387.551l-.3,1.894c-.045.286-.191.427-.408.427h-1.434c-.228,0-.308-.146-.257-.472l1.185-7.593c.058-.373.2-.512.454-.512Zm-2.334,4.064h1.167c.73-.027,1.215-.532,1.264-1.444a.882.882,0,0,0-.955-.964l-1.1.005-.377,2.4Zm8.562,3.931c.131-.118.265-.181.245-.034l-.046.352c-.024.183.049.281.22.281h1.273c.214,0,.319-.086.372-.418l.784-4.924c.039-.248-.02-.369-.208-.369h-1.4c-.126,0-.187.071-.221.264l-.051.3c-.028.158-.1.185-.167.026-.238-.562-.844-.814-1.693-.8a3.5,3.5,0,0,0-3.43,3.442,2.367,2.367,0,0,0,2.346,2.639,2.53,2.53,0,0,0,1.976-.765Zm-1.065-.756a1.279,1.279,0,0,1-1.312-1.5,1.828,1.828,0,0,1,1.758-1.5,1.279,1.279,0,0,1,1.312,1.5,1.828,1.828,0,0,1-1.758,1.5Zm6.406-4.372h-1.286c-.267,0-.375.2-.29.443l1.6,4.7-1.58,2.232c-.131.186-.03.357.156.357h1.451a.444.444,0,0,0,.432-.212l4.93-7.072c.151-.217.08-.445-.169-.446H432.84c-.236,0-.33.093-.465.289l-2.057,2.983-.915-2.988A.4.4,0,0,0,428.965,997.648Z" fill="#113984" fill-rule="evenodd"/>
    <path id="Path_332" data-name="Path 332" d="M439.511,994.781a2.109,2.109,0,0,1,2.332,2.46c-.194,2.081-1.316,3.24-3.08,3.245h-1.538c-.222,0-.329.18-.387.551l-.3,1.894c-.045.286-.191.427-.409.427H434.7c-.228,0-.308-.146-.257-.472l1.184-7.593c.059-.373.2-.512.455-.512Zm-2.334,4.064h1.167c.73-.027,1.215-.532,1.264-1.444a.882.882,0,0,0-.956-.964l-1.1.005-.376,2.4Zm8.562,3.931c.131-.118.265-.181.245-.034l-.046.352c-.025.183.048.281.219.281h1.274c.214,0,.318-.086.371-.418l.785-4.924c.039-.248-.021-.369-.209-.369h-1.4c-.127,0-.188.071-.221.264l-.052.3c-.027.158-.1.185-.166.026-.238-.562-.844-.814-1.693-.8a3.5,3.5,0,0,0-3.43,3.442,2.367,2.367,0,0,0,2.346,2.639,2.53,2.53,0,0,0,1.976-.765Zm-1.065-.756a1.279,1.279,0,0,1-1.312-1.5,1.828,1.828,0,0,1,1.758-1.5,1.279,1.279,0,0,1,1.312,1.5,1.828,1.828,0,0,1-1.758,1.5Zm5.872,1.364h-1.469a.173.173,0,0,1-.18-.2L450.189,995a.255.255,0,0,1,.244-.2h1.47a.174.174,0,0,1,.18.2l-1.292,8.179A.254.254,0,0,1,450.546,1003.384Z" fill="#009de2" fill-rule="evenodd"/>
    <path id="Path_333" data-name="Path 333" d="M398.287,991.743h3.851a4.821,4.821,0,0,1,3.233.794,2.61,2.61,0,0,1,.807,2.183c-.236,2.941-2,4.588-4.355,4.588h-1.9c-.323,0-.537.215-.629.8l-.53,3.372c-.034.219-.129.348-.3.363h-2.373c-.263,0-.357-.2-.288-.637l1.709-10.818A.681.681,0,0,1,398.287,991.743Z" fill="#113984" fill-rule="evenodd"/>
    <path id="Path_334" data-name="Path 334" d="M399.35,999.763l.672-4.258a.588.588,0,0,1,.67-.551h3.848a3.762,3.762,0,0,1,1.555.282c-.386,2.618-2.079,4.072-4.3,4.072h-1.9C399.649,999.308,399.462,999.436,399.35,999.763Z" fill="#172c70" fill-rule="evenodd"/>
  </g>
</svg>
