<svg xmlns="http://www.w3.org/2000/svg" width="25" height="25" viewBox="0 0 25 25">
  <g id="Google_icon" data-name="Google icon" transform="translate(-702 -889)">
    <rect id="Rectangle_635" data-name="Rectangle 635" width="25" height="25" rx="2" transform="translate(702 889)" fill="#fff"/>
    <g id="G" transform="translate(657.369 762.86)">
      <path id="Fill-8" d="M115.646,180.54a9.274,9.274,0,0,0-.134-1.585h-7.358v3h4.214a3.606,3.606,0,0,1-1.558,2.368v1.949h2.515a7.62,7.62,0,0,0,2.321-5.734" transform="translate(-51.062 -41.796)" fill="#4285f4"/>
      <path id="Fill-10" d="M62.53,207.131a7.469,7.469,0,0,0,5.171-1.882L65.186,203.3a4.732,4.732,0,0,1-7.036-2.471H55.559v2.008a7.8,7.8,0,0,0,6.971,4.3" transform="translate(-5.438 -60.77)" fill="#34a853"/>
      <path id="Fill-12" d="M52.712,168.161a4.672,4.672,0,0,1,0-2.983V163.17H50.121a7.784,7.784,0,0,0,0,7Z" transform="translate(0 -28.103)" fill="#fabb05"/>
      <path id="Fill-14" d="M62.53,133.858a4.237,4.237,0,0,1,2.993,1.169h0L67.75,132.8a7.5,7.5,0,0,0-5.22-2.03,7.8,7.8,0,0,0-6.971,4.294l2.591,2.008a4.666,4.666,0,0,1,4.38-3.217" transform="translate(-5.438 0)" fill="#e94235"/>
    </g>
  </g>
</svg>
