<svg xmlns="http://www.w3.org/2000/svg" width="135" height="38.568" viewBox="0 0 135 38.568">
  <g id="Bexim" transform="translate(-85.788 -238.716)">
    <g id="Group_61" data-name="Group 61" transform="translate(133.922 245.318)">
      <path id="Path_66" data-name="Path 66" d="M217.434,249.925a2.592,2.592,0,0,1,.772-1.845,2.467,2.467,0,0,1,1.846-.805,2.629,2.629,0,0,1,1.878.771,2.5,2.5,0,0,1,.805,1.879,2.54,2.54,0,0,1-.789,1.862,2.58,2.58,0,0,1-1.895.788,2.472,2.472,0,0,1-1.862-.788A2.6,2.6,0,0,1,217.434,249.925Z" transform="translate(-164.019 -247.275)" fill="#ff7f62"/>
      <g id="Group_60" data-name="Group 60" transform="translate(0 2.046)">
        <path id="Path_67" data-name="Path 67" d="M148.188,272.777V249.928h8.657a8.69,8.69,0,0,1,4.6,1.041,4.375,4.375,0,0,1,2.08,4.026,4.751,4.751,0,0,1-1.677,3.724,7.14,7.14,0,0,1-3.826,1.645v.3a8.235,8.235,0,0,1,3.926,1.275,4.878,4.878,0,0,1,2.114,4.261,5.776,5.776,0,0,1-2.551,5.032,9.509,9.509,0,0,1-5.569,1.544Zm5.032-20.87v7.886h1.041a6.539,6.539,0,0,0,1.593-.167,2.953,2.953,0,0,0,1.225-.668,3.845,3.845,0,0,0,1.091-1.538,5.282,5.282,0,0,0,.353-1.938,3.777,3.777,0,0,0-.94-2.739,3.525,3.525,0,0,0-2.652-.969A11.817,11.817,0,0,0,153.22,251.907Zm0,9.832v9.092H154.9a3.831,3.831,0,0,0,2.735-1.191,4.263,4.263,0,0,0,1.225-3.2,4.359,4.359,0,0,0-1.476-3.725A7.04,7.04,0,0,0,153.22,261.739Z" transform="translate(-148.188 -249.928)" fill="#0e153d"/>
        <path id="Path_68" data-name="Path 68" d="M187.412,266.735h-9.6a8.224,8.224,0,0,0,.973,4.428,4.029,4.029,0,0,0,3.69,1.812,5.488,5.488,0,0,0,2.047-.4,7.3,7.3,0,0,0,1.879-1.108l.4.3-.737,1.878a8.148,8.148,0,0,1-4.8,1.51q-4.128,0-6.274-2.316a9.208,9.208,0,0,1-2.148-6.508,8.24,8.24,0,0,1,2.063-5.822,7.282,7.282,0,0,1,5.621-2.232q3.725,0,5.4,2.416A10.467,10.467,0,0,1,187.412,266.735Zm-9.6-1.611h4.967a13.184,13.184,0,0,0-.336-3.322q-.537-2.014-1.879-2.013-1.609,0-2.282,1.979A10.464,10.464,0,0,0,177.816,265.124Z" transform="translate(-153.826 -251.837)" fill="#0e153d"/>
        <path id="Path_69" data-name="Path 69" d="M203.793,274.941l-3.221-5.838q-.436.679-1.844,2.852-1.243,1.934-1.88,2.986l-1.341-.167-1.343.167,5.336-7.449q-1.377-2.461-3.154-5.427-.1-.169-2.047-3.4.57,0,1.544.089t1.175.087q.6,0,1.576-.087c.649-.059,1.041-.089,1.175-.089q.7,1.311,1.459,2.705t1.426,2.571q.839-1.209,1.78-2.588.769-1.141,1.711-2.688l1.509.109,1.51-.109q-1.475,1.78-2.852,3.524-1.208,1.545-2.617,3.391l1.845,3.156q1.844,3.122,3.723,6.21-.57,0-1.542-.083c-.65-.056-1.052-.084-1.209-.084q-.57,0-1.544.084T203.793,274.941Z" transform="translate(-158.699 -251.924)" fill="#0e153d"/>
        <path id="Path_70" data-name="Path 70" d="M217.87,274.943V258.671q.57.067,1.292.117c.481.034.821.05,1.024.05a12.012,12.012,0,0,0,1.341-.067q.605-.067.974-.1v16.272a8.043,8.043,0,0,0-.84-.067q-1.173-.1-1.475-.1a12.234,12.234,0,0,0-1.343.067C218.441,274.888,218.115,274.922,217.87,274.943Z" transform="translate(-164.119 -251.927)" fill="#0e153d"/>
        <path id="Path_71" data-name="Path 71" d="M229.221,274.854V258.581c.381.045.811.084,1.292.117s.822.05,1.024.05a12.043,12.043,0,0,0,1.342-.067q.6-.067.973-.1V261.1a5.714,5.714,0,0,1,2.1-2.029,5.573,5.573,0,0,1,2.835-.789,4.824,4.824,0,0,1,2.751.789,4.478,4.478,0,0,1,1.711,2.264,7.41,7.41,0,0,1,2.148-2.181,5.414,5.414,0,0,1,2.954-.872,4.914,4.914,0,0,1,4.058,1.577,6.685,6.685,0,0,1,1.175,4.294v10.7a8.012,8.012,0,0,0-.838-.067q-1.176-.1-1.476-.1a12.253,12.253,0,0,0-1.343.067q-.6.067-.973.1v-9.092a7.5,7.5,0,0,0-.62-3.724,2.054,2.054,0,0,0-1.829-.94,2.486,2.486,0,0,0-2.282,1.007,5.056,5.056,0,0,0-.5,2.584v10.165a8.012,8.012,0,0,0-.838-.067q-1.176-.1-1.476-.1a12.253,12.253,0,0,0-1.343.067q-.6.067-.973.1v-9.092a7.5,7.5,0,0,0-.62-3.724,2.054,2.054,0,0,0-1.829-.94,2.341,2.341,0,0,0-2.249,1.275,5.731,5.731,0,0,0-.535,2.684v9.8a8.039,8.039,0,0,0-.839-.067q-1.176-.1-1.476-.1a12.239,12.239,0,0,0-1.342.067Q229.59,274.82,229.221,274.854Z" transform="translate(-166.714 -251.837)" fill="#0e153d"/>
      </g>
    </g>
    <g id="Group_62" data-name="Group 62" transform="translate(85.788 238.716)">
      <path id="Path_72" data-name="Path 72" d="M108.281,239A19.279,19.279,0,0,0,87.305,265.51q.706-.5,1.439-.965A32.574,32.574,0,0,1,108.281,239Z" transform="translate(-85.788 -238.716)" fill="#ff7f62"/>
      <path id="Path_73" data-name="Path 73" d="M119.354,248.108a32.846,32.846,0,0,1,3.632.207,19.313,19.313,0,0,0-10.626-8.412,31.127,31.127,0,0,0-20.352,23.114A32.509,32.509,0,0,1,119.354,248.108Z" transform="translate(-87.21 -238.987)" fill="#ff7f62"/>
      <path id="Path_74" data-name="Path 74" d="M94.685,265.589a32.53,32.53,0,0,1,30.6,1.965,19.057,19.057,0,0,0-.791-14.707,30.964,30.964,0,0,0-29.8,12.742Z" transform="translate(-87.822 -241.87)" fill="#ff7f62"/>
      <path id="Path_75" data-name="Path 75" d="M91.193,275.593c0,.339.015.676.026,1.012a19.26,19.26,0,0,0,32.691-4.135,30.922,30.922,0,0,0-31.649-.884c-.346.6-.677,1.214-.984,1.84C91.228,274.143,91.193,274.864,91.193,275.593Z" transform="translate(-87.024 -245.333)" fill="#0e153d"/>
    </g>
  </g>
</svg>
