<svg xmlns="http://www.w3.org/2000/svg" width="135" height="34.604" viewBox="0 0 135 34.604">
  <g id="Lighton" transform="translate(-321.032 -238.716)">
    <g id="Group_64" data-name="Group 64" transform="translate(361.286 240.659)">
      <path id="Path_76" data-name="Path 76" d="M383.716,244.747v18.358q1.931,0,3.3-.09t3.6-.332c-.041.221-.076.452-.106.693a4.961,4.961,0,0,0-.045.6,4.786,4.786,0,0,0,.06.633c.04.282.07.5.091.663H379.2V244.747q.513,0,1.327.075c.543.051.853.075.934.075.342,0,.624-.01.844-.03Q383.6,244.748,383.716,244.747Z" transform="translate(-379.195 -242.516)" fill="#2b246a"/>
      <path id="Path_77" data-name="Path 77" d="M400.1,244.472a2.328,2.328,0,0,1,.693-1.658,2.217,2.217,0,0,1,1.659-.724,2.364,2.364,0,0,1,1.688.693,2.251,2.251,0,0,1,.723,1.689,2.281,2.281,0,0,1-.709,1.672,2.317,2.317,0,0,1-1.7.709,2.222,2.222,0,0,1-1.673-.709A2.334,2.334,0,0,1,400.1,244.472Zm.3,20.136v-14.62q.513.061,1.16.106c.433.03.738.045.92.045a10.983,10.983,0,0,0,1.206-.06q.543-.06.875-.091v14.62a7.217,7.217,0,0,0-.755-.06q-1.054-.09-1.325-.091a11.014,11.014,0,0,0-1.206.06C400.916,264.559,400.624,264.588,400.4,264.609Z" transform="translate(-385.632 -241.698)" fill="#2b246a"/>
      <path id="Path_78" data-name="Path 78" d="M424.461,253.2l-.03,1.386-2.714-.09a4.251,4.251,0,0,1,1.6,3.376,4.318,4.318,0,0,1-1.808,3.738,7.688,7.688,0,0,1-4.553,1.206h-.512a1.11,1.11,0,0,0-.814.226,1.432,1.432,0,0,0-.286.407.919.919,0,0,0-.076.362,1.3,1.3,0,0,0,.663,1.221,3.6,3.6,0,0,0,1.779.376l2.592.091a4.7,4.7,0,0,1,3.437,1.085,3.8,3.8,0,0,1,.964,2.8,5.615,5.615,0,0,1-2.471,4.853,9.166,9.166,0,0,1-5.456,1.568,8.566,8.566,0,0,1-3.919-.815,3.4,3.4,0,0,1-2.08-3.195,3.343,3.343,0,0,1,.664-2.08,3.89,3.89,0,0,1,1.808-1.3l.453-.271-.21-.242a2.121,2.121,0,0,1-1.477-2.231,2.926,2.926,0,0,1,.768-1.884,3.187,3.187,0,0,1,1.583-1.13l.453-.12a4.5,4.5,0,0,1-3.829-4.824,3.814,3.814,0,0,1,1.793-3.512,9.483,9.483,0,0,1,4.96-1.1l3.074.091Zm-10.792,16.881a1.714,1.714,0,0,0-.12.512,5.863,5.863,0,0,0-.03.6,2.985,2.985,0,0,0,1.237,2.562,4.621,4.621,0,0,0,2.8.814,3.672,3.672,0,0,0,2.668-1.009,3.165,3.165,0,0,0,1.04-2.336,2.5,2.5,0,0,0-1.386-2.532,8.34,8.34,0,0,0-3.075-.392,5.263,5.263,0,0,0-1.959.271A2.047,2.047,0,0,0,413.668,270.082Zm1.6-11.847a5.053,5.053,0,0,0,.565,2.653,1.48,1.48,0,0,0,1.335.783q1.217,0,1.662-1.477a9.2,9.2,0,0,0,.266-2.532,6.659,6.659,0,0,0-.3-2.17,1.583,1.583,0,0,0-1.513-1.266q-1.248,0-1.721,1.477A8.446,8.446,0,0,0,415.266,258.235Z" transform="translate(-388.918 -245.091)" fill="#2b246a"/>
      <path id="Path_79" data-name="Path 79" d="M437.931,241.524v10.37a7.5,7.5,0,0,1,2.02-1.627,4.922,4.922,0,0,1,2.442-.724,4.844,4.844,0,0,1,3.527,1.387,3.6,3.6,0,0,1,1.024,1.628,8.386,8.386,0,0,1,.241,2.2v9.677a7.18,7.18,0,0,0-.753-.06q-1.055-.09-1.326-.091a10.965,10.965,0,0,0-1.206.06c-.361.041-.654.071-.874.091v-7.506a10.009,10.009,0,0,0-.423-3.467,2.057,2.057,0,0,0-2.05-1.387,2.319,2.319,0,0,0-2.351,1.989,14.639,14.639,0,0,0-.271,3.438v6.933a7.208,7.208,0,0,0-.753-.06q-1.057-.09-1.327-.091a11.007,11.007,0,0,0-1.206.06q-.542.061-.874.091v-22.91q.513.06,1.161.105c.432.03.739.046.92.046a10.689,10.689,0,0,0,1.206-.061Q437.6,241.555,437.931,241.524Z" transform="translate(-395.999 -241.524)" fill="#2b246a"/>
      <path id="Path_80" data-name="Path 80" d="M462.5,253.1v8.591a6.02,6.02,0,0,0,.257,2.1q.256.618,1.22.618a5.015,5.015,0,0,0,1.327-.211v1.175a9.179,9.179,0,0,1-3.135.694,3.391,3.391,0,0,1-3.076-1.387,6.453,6.453,0,0,1-.754-3.5V253.1h-2.049a2.5,2.5,0,0,0,.06-.543v-1.386h1.989v-3.386q.755-.3,1.96-.839t2.2-1.019v5.245h2.563c-.02.181-.036.367-.046.558s-.015.327-.015.407v.965Z" transform="translate(-402.934 -242.878)" fill="#2b246a"/>
      <path id="Path_81" data-name="Path 81" d="M478.861,268.273a7.271,7.271,0,0,1-5.335-1.959,7.107,7.107,0,0,1-1.99-5.306,8.24,8.24,0,0,1,1.944-5.758,6.939,6.939,0,0,1,5.411-2.141,7.468,7.468,0,0,1,5.427,1.93,7.045,7.045,0,0,1,1.988,5.306,8.146,8.146,0,0,1-1.928,5.667A7.081,7.081,0,0,1,478.861,268.273Zm.212-13.806a2.552,2.552,0,0,0-2.442,1.869,16.712,16.712,0,0,0-.211,8.29q.693,2.291,2.442,2.291,1.6,0,2.351-2.261a15.177,15.177,0,0,0,.633-4.793,9.624,9.624,0,0,0-.6-3.8A2.324,2.324,0,0,0,479.073,254.467Z" transform="translate(-407.628 -245.091)" fill="#2b246a"/>
      <path id="Path_82" data-name="Path 82" d="M496.71,268v-14.62c.322.041.689.075,1.1.106s.718.045.92.045a9.8,9.8,0,0,0,1.161-.06c.332-.04.608-.071.829-.091v2.231a8.653,8.653,0,0,1,2.049-1.779,5.059,5.059,0,0,1,2.593-.724,4.24,4.24,0,0,1,3.8,1.658,7.943,7.943,0,0,1,.965,4.4V268a7.191,7.191,0,0,0-.754-.06q-1.055-.09-1.325-.091a10.978,10.978,0,0,0-1.206.06c-.361.041-.654.071-.874.091V260.5a10.011,10.011,0,0,0-.423-3.467,2.057,2.057,0,0,0-2.05-1.387,2.317,2.317,0,0,0-2.291,1.989,13.253,13.253,0,0,0-.331,3.438V268a7.218,7.218,0,0,0-.754-.06q-1.057-.09-1.327-.091a11.024,11.024,0,0,0-1.206.06Q497.042,267.972,496.71,268Z" transform="translate(-415.379 -245.091)" fill="#2b246a"/>
    </g>
    <g id="Group_65" data-name="Group 65" transform="translate(321.032 238.716)">
      <path id="Path_83" data-name="Path 83" d="M321.032,252.567v15.945a7.707,7.707,0,0,0,7.707-7.706V244.86A7.707,7.707,0,0,0,321.032,252.567Z" transform="translate(-321.032 -240.608)" fill="#20d3c2"/>
      <path id="Path_84" data-name="Path 84" d="M338.311,246.423v23.044a3.854,3.854,0,0,0,7.707,0V238.716A7.707,7.707,0,0,0,338.311,246.423Z" transform="translate(-326.352 -238.716)" fill="#20d3c2"/>
      <path id="Path_85" data-name="Path 85" d="M355.591,253.308v10.1a7.707,7.707,0,0,0,7.707,7.706v-10.1A7.707,7.707,0,0,0,355.591,253.308Z" transform="translate(-331.673 -243.209)" fill="#20d3c2"/>
    </g>
  </g>
</svg>
