<svg xmlns="http://www.w3.org/2000/svg" width="20.956" height="19.998" viewBox="0 0 20.956 19.998">
  <g id="Group_45" data-name="Group 45" transform="translate(-225.407 -654.261)">
    <g id="Group_44" data-name="Group 44">
      <path id="Path_60" data-name="Path 60" d="M246.293,661.76a1.441,1.441,0,0,0-1.164-.981l-5.5-.8-2.46-4.98a1.5,1.5,0,0,0-2.582,0l-2.46,4.98-5.487.8a1.44,1.44,0,0,0-.8,2.457l3.978,3.867-.938,5.473a1.44,1.44,0,0,0,2.091,1.518l4.9-2.586,4.917,2.586a1.442,1.442,0,0,0,.669.165,1.465,1.465,0,0,0,.85-.273,1.445,1.445,0,0,0,.573-1.41l-.937-5.473,3.978-3.867A1.439,1.439,0,0,0,246.293,661.76Zm-6.9,3.806a1.442,1.442,0,0,0-.416,1.276l.573,3.344-3-1.58a1.443,1.443,0,0,0-1.34,0l-2.99,1.576.574-3.34a1.442,1.442,0,0,0-.417-1.276l-2.425-2.357,3.343-.487a1.44,1.44,0,0,0,1.083-.788l1.5-3.043,1.5,3.043a1.438,1.438,0,0,0,1.084.788l3.356.488Z" fill="#20d3c2"/>
    </g>
  </g>
</svg>
