<svg xmlns="http://www.w3.org/2000/svg" width="20.956" height="19.999" viewBox="0 0 20.956 19.999">
  <g id="Group_37" data-name="Group 37" transform="translate(-133.235 -654.26)">
    <g id="Group_36" data-name="Group 36">
      <path id="Path_56" data-name="Path 56" d="M154.121,661.76a1.441,1.441,0,0,0-1.164-.981l-5.5-.8L145,655a1.5,1.5,0,0,0-2.582,0l-2.46,4.98-5.487.8a1.44,1.44,0,0,0-.8,2.457l3.977,3.867-.937,5.473a1.44,1.44,0,0,0,2.091,1.518l4.9-2.586,4.917,2.586a1.449,1.449,0,0,0,.67.165,1.465,1.465,0,0,0,.85-.273,1.446,1.446,0,0,0,.573-1.41l-.938-5.473,3.978-3.867A1.437,1.437,0,0,0,154.121,661.76Z" fill="#20d3c2"/>
    </g>
  </g>
</svg>
